<svg width="25" height="24" viewBox="0 0 25 24" fill="none" xmlns="http://www.w3.org/2000/svg">
<g id="Insights" clip-path="url(#clip0_1678_2235)">
<g id="Group">
<g id="Group_2">
<path id="Vector" d="M21.5 8C20.05 8 19.24 9.44 19.57 10.51L16.02 14.07C15.72 13.98 15.28 13.98 14.98 14.07L12.43 11.52C12.77 10.45 11.96 9 10.5 9C9.05 9 8.23 10.44 8.57 11.52L4.01 16.07C2.94 15.74 1.5 16.55 1.5 18C1.5 19.1 2.4 20 3.5 20C4.95 20 5.76 18.56 5.43 17.49L9.98 12.93C10.28 13.02 10.72 13.02 11.02 12.93L13.57 15.48C13.23 16.55 14.04 18 15.5 18C16.95 18 17.77 16.56 17.43 15.48L20.99 11.93C22.06 12.26 23.5 11.45 23.5 10C23.5 8.9 22.6 8 21.5 8Z" fill="white" fill-opacity="0.8"/>
<path id="Vector_2" d="M15.5 9L16.44 6.93L18.5 6L16.44 5.07L15.5 3L14.58 5.07L12.5 6L14.58 6.93L15.5 9Z" fill="white" fill-opacity="0.8"/>
<path id="Vector_3" d="M4 11L4.5 9L6.5 8.5L4.5 8L4 6L3.5 8L1.5 8.5L3.5 9L4 11Z" fill="white" fill-opacity="0.8"/>
</g>
</g>
</g>
<defs>
<clipPath id="clip0_1678_2235">
<rect width="24" height="24" fill="white" transform="translate(0.5)"/>
</clipPath>
</defs>
</svg>
