<svg width="30" height="31" viewBox="0 0 30 31" fill="none" xmlns="http://www.w3.org/2000/svg">
<path fill-rule="evenodd" clip-rule="evenodd" d="M22.5 13.7705C22.5 13.9363 22.4342 14.0952 22.3169 14.2125C22.1997 14.3297 22.0408 14.3955 21.875 14.3955H20.625C20.4592 14.3955 20.3003 14.4614 20.1831 14.5786C20.0658 14.6958 20 14.8547 20 15.0205C20 15.1863 20.0658 15.3452 20.1831 15.4625C20.3003 15.5797 20.4592 15.6455 20.625 15.6455H21.875C22.1212 15.6455 22.365 15.597 22.5925 15.5028C22.82 15.4086 23.0267 15.2704 23.2008 15.0963C23.3749 14.9222 23.513 14.7155 23.6073 14.488C23.7015 14.2606 23.75 14.0167 23.75 13.7705C23.75 13.5243 23.7015 13.2805 23.6073 13.053C23.513 12.8255 23.3749 12.6188 23.2008 12.4447C23.0267 12.2706 22.82 12.1325 22.5925 12.0382C22.365 11.944 22.1212 11.8955 21.875 11.8955C21.7092 11.8955 21.5503 11.8297 21.4331 11.7125C21.3158 11.5952 21.25 11.4363 21.25 11.2705C21.25 11.6155 21.25 11.6155 21.25 11.2705C21.25 11.1047 21.3158 10.9458 21.4331 10.8286C21.5503 10.7114 21.7092 10.6455 21.875 10.6455H23.125C23.2908 10.6455 23.4497 10.5797 23.5669 10.4624C23.6842 10.3452 23.75 10.1863 23.75 10.0205C23.75 9.85475 23.6842 9.69578 23.5669 9.57857C23.4497 9.46136 23.2908 9.39551 23.125 9.39551H21.875C21.3777 9.39551 20.9008 9.59305 20.5492 9.94468C20.1975 10.2963 20 10.7732 20 11.2705C20 11.6155 20 11.2705 20 11.2705C20 11.7678 20.1975 12.2447 20.5492 12.5963C20.9008 12.948 21.3777 13.1455 21.875 13.1455C22.0408 13.1455 22.1997 13.2114 22.3169 13.3286C22.4342 13.4458 22.5 13.6047 22.5 13.7705Z" fill="#F56630"/>
<path fill-rule="evenodd" clip-rule="evenodd" d="M21.25 8.77051V10.0205C21.25 10.1863 21.3158 10.3452 21.4331 10.4624C21.5503 10.5797 21.7092 10.6455 21.875 10.6455C22.0408 10.6455 22.1997 10.5797 22.3169 10.4624C22.4342 10.3452 22.5 10.1863 22.5 10.0205V8.77051C22.5 8.60475 22.4342 8.44578 22.3169 8.32857C22.1997 8.21136 22.0408 8.14551 21.875 8.14551C21.7092 8.14551 21.5503 8.21136 21.4331 8.32857C21.3158 8.44578 21.25 8.60475 21.25 8.77051ZM21.25 15.0205V16.2705C21.25 16.4363 21.3158 16.5952 21.4331 16.7125C21.5503 16.8297 21.7092 16.8955 21.875 16.8955C22.0408 16.8955 22.1997 16.8297 22.3169 16.7125C22.4342 16.5952 22.5 16.4363 22.5 16.2705V15.0205C22.5 14.8547 22.4342 14.6958 22.3169 14.5786C22.1997 14.4614 22.0408 14.3955 21.875 14.3955C21.7092 14.3955 21.5503 14.4614 21.4331 14.5786C21.3158 14.6958 21.25 14.8547 21.25 15.0205Z" fill="#F56630"/>
<path fill-rule="evenodd" clip-rule="evenodd" d="M16.3625 11.3949C16.8844 8.82863 19.1556 6.89551 21.875 6.89551C24.9794 6.89551 27.5 9.41613 27.5 12.5205C27.5 15.6249 24.9794 18.1455 21.875 18.1455C19.1556 18.1455 16.8844 16.2124 16.3625 13.6461C16.3462 13.5657 16.3142 13.4893 16.2683 13.4212C16.2224 13.3531 16.1636 13.2948 16.0952 13.2495C16.0267 13.2041 15.9501 13.1727 15.8695 13.157C15.7889 13.1413 15.7061 13.1417 15.6256 13.158C15.5452 13.1743 15.4688 13.2064 15.4007 13.2522C15.3326 13.2981 15.2743 13.3569 15.229 13.4254C15.1836 13.4938 15.1522 13.5705 15.1365 13.651C15.1208 13.7316 15.1212 13.8144 15.1375 13.8949C15.7756 17.0318 18.5513 19.3955 21.875 19.3955C25.6694 19.3955 28.75 16.3149 28.75 12.5205C28.75 8.72613 25.6694 5.64551 21.875 5.64551C18.5513 5.64551 15.7756 8.00926 15.1375 11.1461C15.1045 11.3086 15.1374 11.4775 15.229 11.6157C15.3205 11.7539 15.4632 11.85 15.6256 11.883C15.7881 11.916 15.957 11.8831 16.0952 11.7916C16.2334 11.7 16.3295 11.5573 16.3625 11.3949Z" fill="#F56630"/>
<path fill-rule="evenodd" clip-rule="evenodd" d="M17.8182 12.5206C17.8184 12.6027 17.8024 12.6841 17.7711 12.76C17.7398 12.836 17.6938 12.905 17.6357 12.9631C17.5776 13.0211 17.5086 13.0672 17.4326 13.0985C17.3567 13.1298 17.2753 13.1458 17.1932 13.1456H12.2632C11.9417 13.1455 11.6221 13.195 11.3157 13.2924L4.81067 15.3624C4.6527 15.4127 4.52116 15.5236 4.44497 15.6708C4.36878 15.818 4.3542 15.9895 4.40442 16.1474C4.45465 16.3054 4.56557 16.437 4.71279 16.5131C4.86 16.5893 5.03145 16.6039 5.18942 16.5537L11.6944 14.4837C11.8788 14.4256 12.07 14.3956 12.2632 14.3956H17.1932C17.6907 14.3956 18.1675 14.1981 18.5188 13.8462C18.7809 13.584 18.9595 13.2499 19.0318 12.8862C19.1041 12.5226 19.067 12.1456 18.9251 11.8031C18.7832 11.4605 18.5429 11.1677 18.2347 10.9617C17.9264 10.7557 17.564 10.6456 17.1932 10.6456H11.4063C10.975 10.6456 10.625 10.2956 10.625 9.86431C10.625 9.43306 10.975 9.08306 11.4063 9.08306H14.375C14.5408 9.08306 14.6998 9.01721 14.817 8.9C14.9342 8.78279 15 8.62382 15 8.45806C15 8.2923 14.9342 8.13333 14.817 8.01612C14.6998 7.89891 14.5408 7.83306 14.375 7.83306H11.4063C10.8676 7.83306 10.3509 8.04707 9.96999 8.428C9.58906 8.80894 9.37505 9.32559 9.37505 9.86431C9.37505 9.86431 9.37505 10.2093 9.37505 9.86431C9.37505 10.403 9.58906 10.9197 9.96999 11.3006C10.3509 11.6816 10.8676 11.8956 11.4063 11.8956H17.1932C17.3589 11.8956 17.5179 11.9614 17.6351 12.0786C17.7523 12.1958 17.8182 12.3548 17.8182 12.5206ZM18.3869 3.92181L14.7538 2.24681C14.0474 1.92098 13.2811 1.74524 12.5033 1.73072C11.7255 1.71619 10.9531 1.8632 10.235 2.16244L4.75942 4.44369C4.68367 4.47529 4.61488 4.5215 4.55698 4.57968C4.49908 4.63787 4.45321 4.70689 4.42199 4.7828C4.35893 4.93611 4.35936 5.10819 4.42317 5.26119C4.48699 5.41418 4.60897 5.53556 4.76228 5.59862C4.8382 5.62985 4.91951 5.64581 5.0016 5.64561C5.08368 5.64541 5.16492 5.62904 5.24067 5.59744L10.7157 3.31619C11.2741 3.08338 11.8748 2.96901 12.4797 2.98031C13.0847 2.99161 13.6807 3.12832 14.23 3.38181L17.8632 5.05681C18.0137 5.12627 18.1856 5.13309 18.3412 5.07577C18.4967 5.01845 18.6231 4.9017 18.6925 4.75119C18.762 4.60068 18.7688 4.42874 18.7115 4.2732C18.6542 4.11767 18.5374 3.99127 18.3869 3.92181Z" fill="#F56630"/>
<path fill-rule="evenodd" clip-rule="evenodd" d="M5.625 5.02051C5.62525 4.77421 5.57692 4.53028 5.48278 4.30269C5.38864 4.07509 5.25054 3.86829 5.07638 3.69413C4.90222 3.51997 4.69542 3.38187 4.46782 3.28773C4.24023 3.19359 3.9963 3.14526 3.75 3.14551H3.125C2.8787 3.14526 2.63477 3.19359 2.40718 3.28773C2.17958 3.38187 1.97278 3.51997 1.79863 3.69413C1.62447 3.86829 1.48636 4.07509 1.39222 4.30269C1.29808 4.53028 1.24975 4.77421 1.25 5.02051V16.2705C1.24975 16.5168 1.29808 16.7607 1.39222 16.9883C1.48636 17.2159 1.62447 17.4227 1.79863 17.5969C1.97278 17.771 2.17958 17.9091 2.40718 18.0033C2.63477 18.0974 2.8787 18.1458 3.125 18.1455H3.75C3.9963 18.1458 4.24023 18.0974 4.46782 18.0033C4.69542 17.9091 4.90222 17.771 5.07638 17.5969C5.25054 17.4227 5.38864 17.2159 5.48278 16.9883C5.57692 16.7607 5.62525 16.5168 5.625 16.2705V5.02051ZM4.375 5.02051V16.2705C4.375 16.4363 4.30915 16.5952 4.19194 16.7125C4.07473 16.8297 3.91576 16.8955 3.75 16.8955H3.125C2.95929 16.8953 2.80042 16.8294 2.68324 16.7123C2.56607 16.5951 2.50017 16.4362 2.5 16.2705V5.02051C2.5 4.85475 2.56585 4.69578 2.68306 4.57857C2.80027 4.46136 2.95924 4.39551 3.125 4.39551H3.75C3.91571 4.39567 4.07459 4.46158 4.19176 4.57875C4.30893 4.69592 4.37484 4.8548 4.375 5.02051ZM28.75 22.3749C28.75 21.8774 28.5525 21.4005 28.2006 21.0493C28.0266 20.875 27.82 20.7368 27.5925 20.6426C27.3651 20.5483 27.1212 20.4998 26.875 20.4999H15C14.5025 20.4999 14.0256 20.6974 13.6744 21.0493C13.5001 21.2232 13.3619 21.4299 13.2677 21.6574C13.1734 21.8848 13.1249 22.1287 13.125 22.3749C13.125 22.8724 13.3225 23.3493 13.6744 23.7005C13.8484 23.8747 14.055 24.0129 14.2825 24.1072C14.5099 24.2015 14.7538 24.25 15 24.2499H26.875C27.3725 24.2499 27.8494 24.0524 28.2006 23.7005C28.3749 23.5265 28.5131 23.3199 28.6073 23.0924C28.7016 22.8649 28.7501 22.6211 28.75 22.3749ZM27.5 22.3749C27.5002 22.457 27.4843 22.5384 27.4529 22.6144C27.4216 22.6903 27.3756 22.7593 27.3175 22.8174C27.2594 22.8755 27.1904 22.9215 27.1145 22.9528C27.0385 22.9841 26.9571 23.0001 26.875 22.9999H15C14.9179 23.0001 14.8365 22.9841 14.7605 22.9528C14.6846 22.9215 14.6156 22.8755 14.5575 22.8174C14.4994 22.7593 14.4534 22.6903 14.4221 22.6144C14.3908 22.5384 14.3748 22.457 14.375 22.3749C14.3748 22.2927 14.3908 22.2114 14.4221 22.1354C14.4534 22.0595 14.4994 21.9905 14.5575 21.9324C14.6156 21.8743 14.6846 21.8283 14.7605 21.797C14.8365 21.7656 14.9179 21.7496 15 21.7499H26.875C26.9571 21.7496 27.0385 21.7656 27.1145 21.797C27.1904 21.8283 27.2594 21.8743 27.3175 21.9324C27.3756 21.9905 27.4216 22.0595 27.4529 22.1354C27.4843 22.2114 27.5002 22.2927 27.5 22.3749Z" fill="#F56630"/>
<path fill-rule="evenodd" clip-rule="evenodd" d="M27.5 23.625C27.5 23.4592 27.4342 23.3003 27.3169 23.1831C27.1997 23.0658 27.0408 23 26.875 23H15C14.8342 23 14.6753 23.0658 14.5581 23.1831C14.4408 23.3003 14.375 23.4592 14.375 23.625V27.375C14.375 27.8723 14.5725 28.3492 14.9242 28.7008C15.2758 29.0525 15.7527 29.25 16.25 29.25H25.625C26.1223 29.25 26.5992 29.0525 26.9508 28.7008C27.3025 28.3492 27.5 27.8723 27.5 27.375V23.625ZM26.25 24.25V27.375C26.25 27.5408 26.1842 27.6997 26.0669 27.8169C25.9497 27.9342 25.7908 28 25.625 28H16.25C16.0842 28 15.9253 27.9342 15.8081 27.8169C15.6908 27.6997 15.625 27.5408 15.625 27.375V24.25H26.25Z" fill="#F56630"/>
</svg>
