<svg width="20" height="20" viewBox="0 0 20 20" fill="none" xmlns="http://www.w3.org/2000/svg">
<path fill-rule="evenodd" clip-rule="evenodd" d="M8.22805 2.33959C6.92631 1.03784 4.81576 1.03785 3.51401 2.33959L3.06773 2.78587C2.45243 3.40118 2.03157 4.32324 2.27162 5.32207C2.63963 6.85333 3.74704 9.64369 7.04954 12.9462C10.352 16.2487 13.1424 17.3561 14.6737 17.7241C15.6725 17.9642 16.5946 17.5433 17.2099 16.928L17.6561 16.4817C18.9579 15.18 18.9579 13.0694 17.6561 11.7677L16.8821 10.9936C15.821 9.93257 14.1818 9.71128 12.8774 10.453L12.7969 10.4988C12.2624 10.8027 11.6483 10.7779 11.2133 10.463C10.8623 10.209 10.5268 9.94164 10.2904 9.70529C10.0541 9.46894 9.78676 9.13345 9.53272 8.78242C9.21788 8.3474 9.19304 7.73333 9.49699 7.1988L9.54273 7.11835C10.2845 5.81394 10.0632 4.17471 9.00212 3.11366L8.22805 2.33959ZM4.69252 3.5181C5.3434 2.86723 6.39867 2.86723 7.04954 3.5181L7.82361 4.29217C8.35413 4.82269 8.46478 5.64231 8.09391 6.29452L8.04817 6.37496C7.46075 7.40801 7.44014 8.73374 8.18254 9.75956C8.45523 10.1364 8.78294 10.5548 9.11194 10.8838C9.44093 11.2128 9.85938 11.5405 10.2362 11.8132C11.262 12.5556 12.5877 12.535 13.6208 11.9476L13.7012 11.9018C14.3534 11.531 15.173 11.6416 15.7036 12.1721L16.4776 12.9462C17.1285 13.5971 17.1285 14.6523 16.4776 15.3032L16.0314 15.7495C15.709 16.0719 15.3537 16.1734 15.0631 16.1036C13.8389 15.8094 11.3194 14.8591 8.22805 11.7677C5.13666 8.67629 4.18636 6.15681 3.89214 4.93261C3.82232 4.64207 3.92387 4.28676 4.24624 3.96438L4.69252 3.5181Z" fill="#667185"/>
</svg>