<svg width="30" height="31" viewBox="0 0 30 31" fill="none" xmlns="http://www.w3.org/2000/svg">
<path d="M24.9888 3.00244C24.8246 3.00235 24.662 3.03462 24.5103 3.0974C24.3586 3.16019 24.2208 3.25226 24.1047 3.36835C23.9886 3.48444 23.8965 3.62228 23.8337 3.77398C23.7709 3.92568 23.7387 4.08826 23.7388 4.25244V5.04834C22.6845 6.35547 21.3521 7.41108 19.8384 8.13834C18.3248 8.8656 16.668 9.2462 14.9888 9.25244H7.48877C6.49454 9.25353 5.54134 9.64896 4.83832 10.352C4.13529 11.055 3.73985 12.0082 3.73877 13.0024V15.5024C3.73985 16.4967 4.13529 17.4499 4.83832 18.1529C5.54134 18.8559 6.49454 19.2514 7.48877 19.2524H8.09351L5.09009 26.2604C5.00848 26.4505 4.97534 26.6579 4.99366 26.8639C5.01198 27.07 5.08118 27.2682 5.19506 27.4409C5.30893 27.6136 5.46391 27.7554 5.64608 27.8534C5.82825 27.9514 6.03191 28.0026 6.23877 28.0024H11.2388C11.4835 28.0026 11.7228 27.9308 11.927 27.796C12.1313 27.6613 12.2914 27.4694 12.3875 27.2444L15.7921 19.2999C17.3304 19.4129 18.8293 19.84 20.196 20.5548C21.5628 21.2697 22.7686 22.2572 23.7388 23.4563V24.2524C23.7388 24.584 23.8705 24.9019 24.1049 25.1363C24.3393 25.3707 24.6572 25.5024 24.9888 25.5024C25.3203 25.5024 25.6382 25.3707 25.8727 25.1363C26.1071 24.9019 26.2388 24.584 26.2388 24.2524V4.25244C26.2389 4.08826 26.2066 3.92567 26.1438 3.77397C26.081 3.62227 25.989 3.48444 25.8729 3.36835C25.7568 3.25225 25.6189 3.16018 25.4672 3.0974C25.3155 3.03461 25.1529 3.00235 24.9888 3.00244ZM7.48877 16.7524C7.15732 16.7522 6.8395 16.6205 6.60513 16.3861C6.37076 16.1517 6.23899 15.8339 6.23877 15.5024V13.0024C6.23899 12.671 6.37076 12.3532 6.60513 12.1188C6.83951 11.8844 7.15732 11.7527 7.48877 11.7524H8.73877V16.7524H7.48877ZM10.4148 25.5024H8.13452L10.8127 19.2524H13.093L10.4148 25.5024ZM23.7388 19.9047C21.2741 17.8742 18.1821 16.7603 14.9888 16.7524H11.2388V11.7524H14.9888C18.1822 11.7442 21.2741 10.6301 23.7388 8.59945V19.9047Z" fill="#F56630"/>
</svg>
