<svg width="30" height="31" viewBox="0 0 30 31" fill="none" xmlns="http://www.w3.org/2000/svg">
<path d="M15.5918 29.3283C16.582 28.6984 17.5752 28.0715 18.5654 27.4416C19.0137 27.1574 19.4678 26.8761 19.9043 26.5715C20.9414 25.8478 21.9141 25.0246 22.7783 24.0988C24.4893 22.2619 25.79 20.0851 26.6133 17.715C27.2842 15.7785 27.5713 13.7365 27.5713 11.6916V7.79215C27.5713 7.26774 27.2051 6.81071 26.71 6.6613C26.3525 6.5529 25.998 6.44157 25.6553 6.29801C25.749 6.3361 25.8428 6.37712 25.9365 6.4152C25.3242 6.15446 24.75 5.82048 24.2227 5.41618L24.46 5.60075C23.9385 5.19645 23.4697 4.73063 23.0654 4.20915L23.25 4.44645C22.8457 3.91911 22.5088 3.34196 22.248 2.72965C22.2861 2.8234 22.3271 2.91715 22.3652 3.0109C22.2773 2.79997 22.1953 2.58317 22.125 2.36637C21.9668 1.87126 21.5244 1.50505 20.9941 1.50505H10.4795C9.99609 1.50505 9.50977 1.4904 9.02637 1.50505H9.00586C8.47266 1.50505 8.0332 1.87126 7.875 2.36637C7.80469 2.5861 7.72559 2.79997 7.63477 3.0109C7.67285 2.91715 7.71387 2.8234 7.75195 2.72965C7.49121 3.34196 7.1543 3.91618 6.75 4.44645L6.93457 4.20915C6.53027 4.73063 6.06152 5.19645 5.54004 5.60075L5.77734 5.41618C5.25 5.82048 4.67285 6.15446 4.06348 6.4152C4.15723 6.37712 4.25098 6.3361 4.34473 6.29801C3.99902 6.44157 3.64746 6.5529 3.29004 6.6613C2.79492 6.81071 2.42871 7.26774 2.42871 7.79215V11.3254C2.42871 11.9465 2.42871 12.5675 2.47266 13.1886C2.56641 14.4513 2.78027 15.7111 3.13477 16.9269C3.83789 19.341 5.05664 21.5646 6.67383 23.4836C7.93066 24.9748 9.44531 26.1818 11.0859 27.2218L14.3291 29.2785C14.3555 29.2961 14.3848 29.3136 14.4111 29.3312C14.9297 29.6593 15.7266 29.4572 16.0137 28.9093C16.3184 28.3293 16.1455 27.6584 15.5918 27.3068C15.0645 26.9728 14.5371 26.6388 14.0127 26.3048C13.3389 25.8771 12.668 25.4523 11.9941 25.0246C11.5225 24.7257 11.0625 24.4064 10.6172 24.0666L10.8545 24.2511C9.74707 23.3927 8.75098 22.3966 7.89258 21.2892L8.07715 21.5265C7.2041 20.3927 6.47754 19.1506 5.91797 17.8322C5.95605 17.9259 5.99707 18.0197 6.03516 18.1134C5.46387 16.757 5.07422 15.3332 4.87793 13.8742C4.89258 13.9767 4.90723 14.0822 4.91895 14.1847C4.79297 13.2355 4.77246 12.2863 4.77246 11.3341V7.80387C4.48535 8.1818 4.19824 8.5568 3.91113 8.93473C4.92188 8.63005 5.90039 8.22575 6.75879 7.60758C7.77539 6.87516 8.64258 5.97282 9.28711 4.89469C9.6416 4.3029 9.92578 3.65837 10.1367 3.00212C9.75879 3.28923 9.38379 3.57633 9.00586 3.86344H19.5205C20.0039 3.86344 20.4902 3.87516 20.9736 3.86344H20.9941C20.6162 3.57633 20.2412 3.28923 19.8633 3.00212C20.5986 5.29606 22.2686 7.29118 24.46 8.32243C24.9873 8.57145 25.5293 8.76481 26.0889 8.93473C25.8018 8.5568 25.5146 8.1818 25.2275 7.80387V11.9582C25.2275 12.7023 25.1777 13.4465 25.0811 14.1847C25.0957 14.0822 25.1104 13.9767 25.1221 13.8742C24.9229 15.3302 24.5332 16.757 23.9648 18.1134C24.0029 18.0197 24.0439 17.9259 24.082 17.8322C23.5225 19.1506 22.7959 20.3927 21.9228 21.5265L22.1074 21.2892C21.249 22.3966 20.2529 23.3927 19.1455 24.2511L19.3828 24.0666C18.7266 24.5734 18.0293 25.0099 17.332 25.4552C16.5586 25.9474 15.7852 26.4367 15.0117 26.9289C14.8125 27.0548 14.6104 27.1838 14.4111 27.3097C14.1562 27.4709 13.9541 27.714 13.8721 28.0099C13.7959 28.2912 13.8311 28.6632 13.9893 28.9123C14.3232 29.4279 15.0381 29.6799 15.5918 29.3283Z" fill="#F56630"/>
<path d="M9.02953 15.4387L12.0383 18.4475L12.4661 18.8752C12.9143 19.3235 13.676 19.3235 14.1243 18.8752L16.4475 16.552L20.1243 12.8752L20.9709 12.0286C21.4045 11.595 21.4368 10.7981 20.9709 10.3703C20.5022 9.93968 19.7756 9.90746 19.3127 10.3703L16.9895 12.6936L13.3127 16.3703L12.4661 17.217H14.1243L11.1155 14.2082L10.6877 13.7805C10.2541 13.3469 9.45726 13.3147 9.02953 13.7805C8.59886 14.2493 8.56664 14.9729 9.02953 15.4387Z" fill="#F56630"/>
</svg>
