<svg width="30" height="31" viewBox="0 0 30 31" fill="none" xmlns="http://www.w3.org/2000/svg">
<path d="M17.1279 18.3124H12.8717C12.6852 18.3124 12.5064 18.2383 12.3745 18.1065C12.2426 17.9746 12.1686 17.7958 12.1686 17.6093V13.3718C12.1686 13.1853 12.2426 13.0065 12.3745 12.8746C12.5064 12.7427 12.6852 12.6687 12.8717 12.6687H17.1279C17.3144 12.6687 17.4933 12.7427 17.6251 12.8746C17.757 13.0065 17.8311 13.1853 17.8311 13.3718V17.628C17.8262 17.8112 17.7499 17.9853 17.6186 18.1131C17.4873 18.241 17.3112 18.3125 17.1279 18.3124ZM13.5936 16.9062H16.4061V14.0937H13.5936V16.9062ZM24.4732 18.3124H20.217C20.0305 18.3124 19.8517 18.2383 19.7198 18.1065C19.5879 17.9746 19.5139 17.7958 19.5139 17.6093V13.3718C19.5139 13.1853 19.5879 13.0065 19.7198 12.8746C19.8517 12.7427 20.0305 12.6687 20.217 12.6687H24.4732C24.6597 12.6687 24.8386 12.7427 24.9704 12.8746C25.1023 13.0065 25.1764 13.1853 25.1764 13.3718V17.628C25.1715 17.8112 25.0952 17.9853 24.9639 18.1131C24.8326 18.241 24.6565 18.3125 24.4732 18.3124ZM20.9201 16.9062H23.7701V14.0937H20.9201V16.9062ZM9.78262 18.3124H5.52637C5.33989 18.3124 5.16104 18.2383 5.02918 18.1065C4.89732 17.9746 4.82324 17.7958 4.82324 17.6093V13.3718C4.82324 13.1853 4.89732 13.0065 5.02918 12.8746C5.16104 12.7427 5.33989 12.6687 5.52637 12.6687H9.78262C9.9691 12.6687 10.1479 12.7427 10.2798 12.8746C10.4117 13.0065 10.4857 13.1853 10.4857 13.3718V17.628C10.4809 17.8112 10.4046 17.9853 10.2733 18.1131C10.142 18.241 9.96589 18.3125 9.78262 18.3124ZM6.22949 16.9062H9.07949V14.0937H6.22949V16.9062ZM17.1279 10.8405H12.8717C12.6852 10.8405 12.5064 10.7664 12.3745 10.6346C12.2426 10.5027 12.1686 10.3239 12.1686 10.1374V5.87646C12.1686 5.68998 12.2426 5.51114 12.3745 5.37928C12.5064 5.24742 12.6852 5.17334 12.8717 5.17334H17.1279C17.3144 5.17334 17.4933 5.24742 17.6251 5.37928C17.757 5.51114 17.8311 5.68998 17.8311 5.87646V10.1374C17.8311 10.3239 17.757 10.5027 17.6251 10.6346C17.4933 10.7664 17.3144 10.8405 17.1279 10.8405ZM13.5748 9.43428H16.4061V6.59365H13.5936L13.5748 9.43428ZM24.4732 10.8405H20.217C20.0305 10.8405 19.8517 10.7664 19.7198 10.6346C19.5879 10.5027 19.5139 10.3239 19.5139 10.1374V5.87646C19.5139 5.68998 19.5879 5.51114 19.7198 5.37928C19.8517 5.24742 20.0305 5.17334 20.217 5.17334H24.4732C24.6597 5.17334 24.8386 5.24742 24.9704 5.37928C25.1023 5.51114 25.1764 5.68998 25.1764 5.87646V10.1374C25.1764 10.3239 25.1023 10.5027 24.9704 10.6346C24.8386 10.7664 24.6597 10.8405 24.4732 10.8405ZM20.9201 9.43428H23.7701V6.59365H20.9201V9.43428ZM9.78262 10.8405H5.52637C5.33989 10.8405 5.16104 10.7664 5.02918 10.6346C4.89732 10.5027 4.82324 10.3239 4.82324 10.1374V5.87646C4.82324 5.68998 4.89732 5.51114 5.02918 5.37928C5.16104 5.24742 5.33989 5.17334 5.52637 5.17334H9.78262C9.9691 5.17334 10.1479 5.24742 10.2798 5.37928C10.4117 5.51114 10.4857 5.68998 10.4857 5.87646V10.1374C10.4857 10.3239 10.4117 10.5027 10.2798 10.6346C10.1479 10.7664 9.9691 10.8405 9.78262 10.8405ZM6.22949 9.43428H9.07949V6.59365H6.22949V9.43428ZM17.1279 25.8124H12.8717C12.6852 25.8124 12.5064 25.7383 12.3745 25.6065C12.2426 25.4746 12.1686 25.2958 12.1686 25.1093V20.8624C12.1686 20.6759 12.2426 20.4971 12.3745 20.3652C12.5064 20.2334 12.6852 20.1593 12.8717 20.1593H17.1279C17.3144 20.1593 17.4933 20.2334 17.6251 20.3652C17.757 20.4971 17.8311 20.6759 17.8311 20.8624V25.1233C17.8274 25.3074 17.7517 25.4826 17.6202 25.6115C17.4887 25.7403 17.312 25.8124 17.1279 25.8124ZM13.5936 24.4062H16.4061V21.5655H13.5936V24.4062ZM24.4732 25.8124H20.217C20.0305 25.8124 19.8517 25.7383 19.7198 25.6065C19.5879 25.4746 19.5139 25.2958 19.5139 25.1093V20.8624C19.5139 20.6759 19.5879 20.4971 19.7198 20.3652C19.8517 20.2334 20.0305 20.1593 20.217 20.1593H24.4732C24.6597 20.1593 24.8386 20.2334 24.9704 20.3652C25.1023 20.4971 25.1764 20.6759 25.1764 20.8624V25.1233C25.1727 25.3074 25.097 25.4826 24.9655 25.6115C24.8341 25.7403 24.6573 25.8124 24.4732 25.8124ZM20.9201 24.4062H23.7701V21.5655H20.9201V24.4062ZM9.78262 25.8124H5.52637C5.33989 25.8124 5.16104 25.7383 5.02918 25.6065C4.89732 25.4746 4.82324 25.2958 4.82324 25.1093V20.8624C4.82324 20.6759 4.89732 20.4971 5.02918 20.3652C5.16104 20.2334 5.33989 20.1593 5.52637 20.1593H9.78262C9.9691 20.1593 10.1479 20.2334 10.2798 20.3652C10.4117 20.4971 10.4857 20.6759 10.4857 20.8624V25.1233C10.4821 25.3074 10.4064 25.4826 10.2749 25.6115C10.1434 25.7403 9.96669 25.8124 9.78262 25.8124ZM6.22949 24.4062H9.07949V21.5655H6.22949V24.4062Z" fill="#F56630"/>
</svg>
