<svg width="60" height="58" viewBox="0 0 60 58" fill="none" xmlns="http://www.w3.org/2000/svg">
<path d="M39.0963 2.72669L9.85793 9.44374C4.74443 10.6185 1.55144 15.7161 2.72619 20.8296L8.92546 47.8142C10.1002 52.9277 15.1978 56.1207 20.3113 54.9459L49.5497 48.2289C54.6632 47.0541 57.8562 41.9565 56.6814 36.843L50.4822 9.85843C49.3074 4.74493 44.2098 1.55194 39.0963 2.72669Z" fill="white"/>
<path d="M39.0963 2.72669L9.85793 9.44374C4.74443 10.6185 1.55144 15.7161 2.72619 20.8296L8.92546 47.8142C10.1002 52.9277 15.1978 56.1207 20.3113 54.9459L49.5497 48.2289C54.6632 47.0541 57.8562 41.9565 56.6814 36.843L50.4822 9.85843C49.3074 4.74493 44.2098 1.55194 39.0963 2.72669Z" stroke="#E4E7EC"/>
<path d="M16.6678 16.601C16.4659 16.6474 16.2906 16.7721 16.1806 16.9477C16.0706 17.1233 16.0349 17.3354 16.0813 17.5373L16.6061 19.8216L10.5117 21.2216L10.8616 22.7445L10.8646 22.7438L12.9637 31.8808L12.9606 31.8815L13.3105 33.4043L13.3135 33.4036L15.4126 42.5406L15.4096 42.5413L15.7594 44.0641L21.8538 42.664L22.3786 44.9483C22.4249 45.1502 22.5497 45.3254 22.7253 45.4354C22.9009 45.5454 23.113 45.5811 23.3149 45.5347L49.203 39.5873C49.405 39.541 49.5802 39.4162 49.6902 39.2406C49.8002 39.065 49.8359 38.8529 49.7895 38.651L48.3901 32.5597C48.3437 32.3577 48.219 32.1825 48.0434 32.0725C47.8678 31.9625 47.6557 31.9268 47.4538 31.9732L21.5657 37.9206C21.3637 37.967 21.1885 38.0917 21.0785 38.2673C20.9685 38.4429 20.9328 38.655 20.9792 38.8569L21.5039 41.1412L16.9354 42.1907L14.8364 33.0537L19.4049 32.0042L19.9296 34.2884C19.976 34.4904 20.1007 34.6656 20.2763 34.7756C20.4519 34.8856 20.664 34.9213 20.866 34.8749L46.7541 28.9275C46.956 28.8811 47.1313 28.7564 47.2412 28.5808C47.3512 28.4052 47.387 28.1931 47.3406 27.9912L45.9412 21.8999C45.8948 21.6979 45.7701 21.5227 45.5945 21.4127C45.4189 21.3027 45.2068 21.267 45.0048 21.3134L19.1167 27.2608C18.9148 27.3072 18.7395 27.4319 18.6296 27.6075C18.5196 27.7831 18.4838 27.9952 18.5302 28.1971L19.055 30.4814L14.4865 31.5309L12.3874 22.3939L16.9559 21.3444L17.4807 23.6286C17.5271 23.8306 17.6518 24.0058 17.8274 24.1158C18.003 24.2258 18.2151 24.2615 18.417 24.2151L44.3051 18.2677C44.5071 18.2213 44.6823 18.0966 44.7923 17.921C44.9023 17.7454 44.938 17.5333 44.8916 17.3314L43.4922 11.2401C43.4459 11.0381 43.3211 10.8629 43.1455 10.7529C42.9699 10.6429 42.7579 10.6072 42.5559 10.6536L16.6678 16.601ZM17.7791 17.9489L42.1443 12.3513L43.1939 16.9198L18.8286 22.5174L17.7791 17.9489ZM21.1746 18.772L21.5244 20.2948L32.1842 17.8459L31.8344 16.3231L21.1746 18.772ZM38.6871 14.7488C38.4852 14.7952 38.3099 14.9199 38.1999 15.0955C38.09 15.2711 38.0542 15.4832 38.1006 15.6851C38.147 15.887 38.2717 16.0623 38.4473 16.1723C38.6229 16.2823 38.835 16.318 39.037 16.2716C39.2389 16.2252 39.4141 16.1005 39.5241 15.9249C39.6341 15.7493 39.6698 15.5372 39.6235 15.3353C39.5771 15.1333 39.4523 14.9581 39.2768 14.8481C39.1012 14.7381 38.8891 14.7024 38.6871 14.7488ZM20.228 28.6087L44.5933 23.0111L45.6428 27.5796L21.2775 33.1772L20.228 28.6087ZM23.6235 29.4318L23.9733 30.9547L34.6332 28.5057L34.2833 26.9829L23.6235 29.4318ZM41.136 25.4086C40.9341 25.455 40.7589 25.5797 40.6489 25.7553C40.5389 25.9309 40.5032 26.143 40.5496 26.3449C40.5959 26.5469 40.7207 26.7221 40.8963 26.8321C41.0719 26.9421 41.284 26.9778 41.4859 26.9314C41.6878 26.885 41.8631 26.7603 41.9731 26.5847C42.0831 26.4091 42.1188 26.197 42.0724 25.9951C42.026 25.7931 41.9013 25.6179 41.7257 25.5079C41.5501 25.3979 41.338 25.3622 41.136 25.4086ZM22.6769 39.2685L47.0422 33.6709L48.0917 38.2394L23.7265 43.837L22.6769 39.2685ZM26.0724 40.0916L26.4223 41.6145L37.0821 39.1655L36.7322 37.6427L26.0724 40.0916ZM43.585 36.0684C43.383 36.1148 43.2078 36.2395 43.0978 36.4151C42.9878 36.5907 42.9521 36.8028 42.9985 37.0047C43.0449 37.2067 43.1696 37.3819 43.3452 37.4919C43.5208 37.6019 43.7329 37.6376 43.9348 37.5912C44.1368 37.5448 44.312 37.4201 44.422 37.2445C44.532 37.0689 44.5677 36.8568 44.5213 36.6549C44.4749 36.4529 44.3502 36.2777 44.1746 36.1677C43.999 36.0577 43.7869 36.022 43.585 36.0684Z" fill="#475367"/>
</svg>
