<svg width="100" height="100" viewBox="0 0 85 85" fill="none" xmlns="http://www.w3.org/2000/svg">
<g clip-path="url(#clip0_155_3759)">
<g filter="url(#filter0_d_155_3759)">
<path d="M64.5067 8.59023L12.9651 14.7156C10.2229 15.0415 8.26418 17.5286 8.59006 20.2707L14.804 72.5578C15.1299 75.2999 17.617 77.2587 20.3592 76.9328L71.9007 70.8074C74.6429 70.4815 76.6016 67.9944 76.2757 65.2523L70.0618 12.9652C69.7359 10.2231 67.2488 8.26434 64.5067 8.59023Z" fill="white" fill-opacity="0.1"/>
<path d="M64.5658 9.08673L13.0242 15.2121C10.5563 15.5054 8.79343 17.7438 9.08672 20.2117L15.3007 72.4988C15.594 74.9667 17.8324 76.7296 20.3003 76.4363L71.8419 70.3109C74.3098 70.0176 76.0727 67.7792 75.7794 65.3113L69.5654 13.0242C69.2721 10.5563 67.0337 8.79344 64.5658 9.08673Z" stroke="#E4E7EC"/>
<path d="M46.1328 65.5394C47.6477 64.3022 49.1681 63.0692 50.6831 61.832C51.3691 61.2735 52.0653 60.7187 52.7278 60.1286C54.3019 58.727 55.7498 57.1732 56.998 55.471C59.4684 52.0943 61.1931 48.2359 62.0894 44.1514C62.8188 40.8145 62.8924 37.3784 62.4901 33.9941L61.7232 27.5404C61.62 26.6725 60.9241 25.9882 60.0752 25.8383C59.4624 25.7292 58.8538 25.6146 58.2583 25.4445C58.4209 25.4891 58.5841 25.5385 58.7468 25.5831C57.6821 25.272 56.6661 24.8322 55.7138 24.2668L56.1428 24.5256C55.2003 23.959 54.3328 23.2803 53.5612 22.4967L53.9133 22.8532C53.1405 22.0599 52.4693 21.171 51.9174 20.2089C51.9988 20.3566 52.0852 20.5037 52.1666 20.6513C51.9797 20.3195 51.8013 19.9769 51.6423 19.6319C51.2831 18.8436 50.4789 18.3245 49.6013 18.4288L32.1993 20.4969C31.3993 20.592 30.5915 20.6634 29.7944 20.7827L29.7604 20.7868C28.878 20.8916 28.2227 21.5841 28.0582 22.4347C27.9851 22.8122 27.8962 23.1817 27.7874 23.5487C27.832 23.386 27.8815 23.2228 27.926 23.0601C27.6149 24.1248 27.1703 25.1414 26.6055 26.0985L26.8643 25.6695C26.2977 26.6121 25.6135 27.4752 24.83 28.2469L25.1864 27.8948C24.3932 28.6676 23.5037 29.3339 22.5464 29.8853C22.6941 29.8038 22.8412 29.7175 22.9889 29.636C22.445 29.9416 21.885 30.195 21.3148 30.4447C20.5248 30.7894 20.0086 31.6178 20.1117 32.4857L20.8066 38.3332C20.9288 39.3611 21.051 40.3891 21.2459 41.4083C21.6494 43.4797 22.2511 45.5226 23.0769 47.465C24.7154 51.3221 27.1699 54.7625 30.2238 57.6203C32.5972 59.8411 35.3413 61.5408 38.2612 62.9394L44.0332 65.7053C44.0803 65.7292 44.1322 65.7526 44.1793 65.7765C45.1021 66.2175 46.3812 65.7262 46.7486 64.7631C47.1388 63.7431 46.7207 62.6667 45.7352 62.1938C44.7967 61.7448 43.8583 61.2957 42.9247 60.8461C41.7253 60.2708 40.5314 59.6997 39.3321 59.1243C38.4927 58.7225 37.6686 58.2845 36.8648 57.8096L37.2938 58.0684C35.2922 56.8655 33.4477 55.4129 31.8092 53.7489L32.1614 54.1054C30.4935 52.4007 29.0467 50.4877 27.8613 48.4159C27.9427 48.5635 28.029 48.7106 28.1105 48.8583C26.8982 46.7257 25.9733 44.4459 25.3615 42.0698C25.4059 42.2367 25.4509 42.4083 25.4904 42.5757C25.0952 41.0295 24.8746 39.4626 24.6873 37.8868L23.993 32.0441C23.5921 32.7261 23.1907 33.4032 22.7899 34.0851C24.4027 33.382 25.9427 32.5205 27.2418 31.3285C28.7802 29.9164 30.0379 28.2525 30.8926 26.3414C31.3629 25.2922 31.7064 24.1696 31.9265 23.042C31.3575 23.5915 30.7933 24.1404 30.2243 24.6899L47.6262 22.6218C48.4263 22.5268 49.2335 22.4505 50.0312 22.336L50.0651 22.332C49.3832 21.9312 48.7061 21.5297 48.0241 21.1289C49.6923 24.7808 52.8485 27.7543 56.6782 29.03C57.5999 29.3384 58.5349 29.5518 59.4945 29.723C58.945 29.154 58.396 28.5898 57.8465 28.0208L58.6636 34.8963C58.81 36.1278 58.8739 37.3692 58.8591 38.6101C58.8632 38.4375 58.8667 38.2601 58.8659 38.0881C58.8226 40.537 58.4584 42.975 57.7845 45.3317C57.8291 45.1691 57.8785 45.0059 57.9231 44.8432C57.2563 47.1352 56.2982 49.3339 55.0763 51.3821L55.3351 50.953C54.1322 52.9547 52.6796 54.7992 51.0156 56.4376L51.3721 56.0855C50.3856 57.0534 49.3175 57.913 48.2511 58.7871C47.0679 59.7539 45.884 60.7157 44.7008 61.6824C44.3959 61.9301 44.0867 62.1832 43.7817 62.4309C43.3916 62.7477 43.1049 63.1899 43.0273 63.6957C42.9565 64.1762 43.0879 64.7851 43.3987 65.1661C44.0529 65.9538 45.2855 66.2302 46.1328 65.5394Z" fill="#E4E7EC"/>
<path d="M32.5404 43.8427L38.1118 48.2305L38.9039 48.8543C39.7339 49.508 40.9945 49.3581 41.6482 48.5281L45.0363 44.2262L50.3982 37.4179L51.6329 35.8501C52.2653 35.0472 52.1619 33.722 51.3068 33.1057C50.4463 32.4851 49.2375 32.5747 48.5624 33.4319L45.1744 37.7338L39.8124 44.5421L38.5777 46.1099L41.3221 45.7838L35.7507 41.3959L34.9586 40.7722C34.1557 40.1398 32.8306 40.2432 32.2143 41.0983C31.5937 41.9588 31.6827 43.1628 32.5404 43.8427Z" fill="#E4E7EC"/>
</g>
</g>
<defs>
<filter id="filter0_d_155_3759" x="0.554688" y="0.554688" width="83.7568" height="84.4136" filterUnits="userSpaceOnUse" color-interpolation-filters="sRGB">
<feFlood flood-opacity="0" result="BackgroundImageFix"/>
<feColorMatrix in="SourceAlpha" type="matrix" values="0 0 0 0 0 0 0 0 0 0 0 0 0 0 0 0 0 0 127 0" result="hardAlpha"/>
<feOffset/>
<feGaussianBlur stdDeviation="4"/>
<feComposite in2="hardAlpha" operator="out"/>
<feColorMatrix type="matrix" values="0 0 0 0 0.720922 0 0 0 0 0.731952 0 0 0 0 0.996667 0 0 0 0.3 0"/>
<feBlend mode="normal" in2="BackgroundImageFix" result="effect1_dropShadow_155_3759"/>
<feBlend mode="normal" in="SourceGraphic" in2="effect1_dropShadow_155_3759" result="shape"/>
</filter>
<clipPath id="clip0_155_3759">
<rect width="85" height="85" fill="white"/>
</clipPath>
</defs>
</svg>
