<svg width="77" height="75" viewBox="0 0 77 75" fill="none" xmlns="http://www.w3.org/2000/svg">
<path d="M66.975 13.1093L23.7479 2.80532C18.6442 1.58876 13.5206 4.73992 12.3041 9.84363L2.80454 49.6959C1.58798 54.7996 4.73914 59.9232 9.84285 61.1398L53.0699 71.4437C58.1737 72.6603 63.2973 69.5091 64.5138 64.4054L74.0133 24.5532C75.2299 19.4494 72.0787 14.3259 66.975 13.1093Z" fill="#E4E7EC"/>
<path d="M66.975 13.1093L23.7479 2.80532C18.6442 1.58876 13.5206 4.73992 12.3041 9.84363L2.80454 49.6959C1.58798 54.7996 4.73914 59.9232 9.84285 61.1398L53.0699 71.4437C58.1737 72.6603 63.2973 69.5091 64.5138 64.4054L74.0133 24.5532C75.2299 19.4494 72.0787 14.3259 66.975 13.1093Z" stroke="#E4E7EC"/>
<path d="M48.0923 30.196C48.2938 30.2441 48.5062 30.2101 48.6827 30.1015C48.8592 29.993 48.9853 29.8188 49.0334 29.6172C49.0814 29.4156 49.0474 29.2033 48.9389 29.0268C48.8303 28.8503 48.6561 28.7241 48.4546 28.6761L46.9346 28.3138L47.2969 26.7939L48.0569 26.975C48.2585 27.0231 48.4708 26.9891 48.6473 26.8805C48.8238 26.772 48.95 26.5978 48.998 26.3962C49.046 26.1947 49.0121 25.9823 48.9035 25.8058C48.795 25.6293 48.6208 25.5032 48.4192 25.4551L47.6592 25.274C47.7073 25.0724 47.6733 24.86 47.5647 24.6835C47.4562 24.507 47.282 24.3809 47.0804 24.3329L47.2616 23.5729C47.3096 23.3713 47.2756 23.159 47.1671 22.9825C47.0585 22.806 46.8843 22.6798 46.6828 22.6318C46.4812 22.5837 46.2688 22.6177 46.0923 22.7263C45.9159 22.8348 45.7897 23.009 45.7417 23.2106L45.5605 23.9706L44.0406 23.6083L44.4029 22.0883C44.4509 21.8868 44.417 21.6744 44.3084 21.4979C44.1999 21.3214 44.0256 21.1953 43.8241 21.1472C43.6225 21.0992 43.4102 21.1332 43.2337 21.2417C43.0572 21.3503 42.931 21.5245 42.883 21.726L42.5207 23.246L41.0008 22.8837L41.3631 21.3637C41.4111 21.1622 41.3771 20.9498 41.2686 20.7733C41.16 20.5968 40.9858 20.4707 40.7843 20.4226C40.5827 20.3746 40.3703 20.4086 40.1938 20.5171C40.0173 20.6257 39.8912 20.7999 39.8432 21.0014L39.4809 22.5214L37.9609 22.1591L38.1421 21.3991C38.1901 21.1975 38.1561 20.9852 38.0476 20.8087C37.939 20.6322 37.7648 20.506 37.5633 20.458C37.3617 20.4099 37.1493 20.4439 36.9728 20.5525C36.7964 20.661 36.6702 20.8352 36.6222 21.0368L36.441 21.7968C36.2395 21.7487 36.0271 21.7827 35.8506 21.8912C35.6741 21.9998 35.548 22.174 35.4999 22.3756L34.8349 22.2171C34.6334 22.169 34.421 22.203 34.2445 22.3116C34.068 22.4201 33.9419 22.5943 33.8938 22.7959C33.8458 22.9974 33.8798 23.2098 33.9883 23.3863C34.0969 23.5628 34.2711 23.6889 34.4726 23.737L35.1376 23.8955L34.7753 25.4154L33.2554 25.0531C33.0538 25.0051 32.8415 25.039 32.665 25.1476C32.4885 25.2561 32.3623 25.4303 32.3143 25.6319C32.2662 25.8335 32.3002 26.0458 32.4088 26.2223C32.5173 26.3988 32.6915 26.525 32.8931 26.573L34.413 26.9353L34.0507 28.4552L32.5308 28.0929C32.3292 28.0449 32.1169 28.0789 31.9404 28.1874C31.7639 28.296 31.6377 28.4702 31.5897 28.6717C31.5416 28.8733 31.5756 29.0857 31.6842 29.2622C31.7927 29.4387 31.9669 29.5648 32.1685 29.6128L33.6884 29.9751L33.3261 31.4951L32.5662 31.3139C32.3646 31.2659 32.1522 31.2999 31.9757 31.4084C31.7992 31.517 31.6731 31.6912 31.625 31.8927C31.577 32.0943 31.611 32.3067 31.7195 32.4831C31.8281 32.6596 32.0023 32.7858 32.2039 32.8338L32.9638 33.015C32.9158 33.2165 32.9498 33.4289 33.0583 33.6054C33.1669 33.7819 33.3411 33.908 33.5426 33.9561L33.3615 34.716C33.3134 34.9176 33.3474 35.13 33.456 35.3065C33.5645 35.483 33.7387 35.6091 33.9403 35.6571C34.1418 35.7052 34.3542 35.6712 34.5307 35.5627C34.7072 35.4541 34.8333 35.2799 34.8814 35.0783L35.0625 34.3184L36.5825 34.6807L36.2202 36.2006C36.1721 36.4022 36.2061 36.6145 36.3146 36.791C36.4232 36.9675 36.5974 37.0937 36.799 37.1417C37.0005 37.1898 37.2129 37.1558 37.3894 37.0472C37.5659 36.9387 37.692 36.7645 37.7401 36.5629L38.1024 35.043L39.6223 35.4053L39.26 36.9252C39.2119 37.1268 39.2459 37.3391 39.3545 37.5156C39.463 37.6921 39.6372 37.8183 39.8388 37.8663C40.0403 37.9144 40.2527 37.8804 40.4292 37.7718C40.6057 37.6633 40.7319 37.4891 40.7799 37.2875L41.1422 35.7676L42.6621 36.1299L42.481 36.8898C42.4329 37.0914 42.4669 37.3038 42.5755 37.4803C42.684 37.6568 42.8582 37.7829 43.0598 37.8309C43.2613 37.879 43.4737 37.845 43.6502 37.7365C43.8267 37.6279 43.9528 37.4537 44.0009 37.2521L44.182 36.4922C44.3836 36.5402 44.596 36.5062 44.7725 36.3977C44.949 36.2891 45.0751 36.1149 45.1231 35.9134L45.7881 36.0719C45.9897 36.1199 46.202 36.0859 46.3785 35.9774C46.555 35.8688 46.6812 35.6946 46.7292 35.4931C46.7773 35.2915 46.7433 35.0791 46.6347 34.9026C46.5262 34.7262 46.352 34.6 46.1504 34.552L45.4854 34.3935L45.8477 32.8735L47.3677 33.2358C47.5692 33.2839 47.7816 33.2499 47.9581 33.1413C48.1346 33.0328 48.2607 32.8586 48.3088 32.657C48.3568 32.4555 48.3228 32.2431 48.2143 32.0666C48.1057 31.8901 47.9315 31.764 47.73 31.7159L46.21 31.3536L46.5723 29.8337L48.0923 30.196ZM34.6649 32.6173L36.8387 23.4978L45.9582 25.6716L43.7844 34.7911L34.6649 32.6173Z" fill="#475367"/>
<path d="M44.257 26.0698L38.1773 24.6206C37.9757 24.5726 37.7634 24.6066 37.5869 24.7151C37.4104 24.8237 37.2842 24.9979 37.2362 25.1994L35.787 31.2791C35.7389 31.4806 35.7729 31.693 35.8815 31.8695C35.99 32.046 36.1642 32.1722 36.3658 32.2202L42.4455 33.6694C42.647 33.7174 42.8594 33.6835 43.0359 33.5749C43.2124 33.4664 43.3385 33.2921 43.3866 33.0906L44.8358 27.0109C44.8838 26.8094 44.8498 26.597 44.7413 26.4205C44.6327 26.244 44.4585 26.1179 44.257 26.0698ZM42.0478 31.9683L37.4881 30.8814L38.575 26.3217L43.1347 27.4086L42.0478 31.9683ZM21.3629 23.8251C21.3045 23.2754 21.0536 22.7639 20.6546 22.3812C20.2555 21.9985 19.7341 21.7692 19.1823 21.7338C18.6306 21.6984 18.0841 21.8592 17.6394 22.1877C17.1947 22.5163 16.8806 22.9915 16.7524 23.5293C16.6242 24.0671 16.6902 24.6329 16.9388 25.1267C17.1875 25.6206 17.6027 26.0106 18.1111 26.2279C18.6195 26.4452 19.1883 26.4757 19.7171 26.3142C20.2458 26.1527 20.7004 25.8094 21.0006 25.3451L27.2109 26.8254L27.5732 25.3055L21.3629 23.8251ZM18.8514 24.8328C18.7011 24.7969 18.5648 24.7173 18.4597 24.6041C18.3547 24.4908 18.2855 24.3488 18.2611 24.1963C18.2367 24.0437 18.2581 23.8873 18.3225 23.7469C18.387 23.6065 18.4917 23.4883 18.6233 23.4073C18.7549 23.3264 18.9076 23.2863 19.062 23.2921C19.2164 23.2979 19.3656 23.3494 19.4907 23.44C19.6159 23.5306 19.7114 23.6563 19.7651 23.8012C19.8188 23.9461 19.8283 24.1037 19.7925 24.254C19.7443 24.4554 19.6181 24.6295 19.4416 24.738C19.2652 24.8465 19.0529 24.8806 18.8514 24.8328ZM62.1337 31.9373C61.6622 31.8256 61.1678 31.8625 60.7181 32.0429C60.2685 32.2233 59.8857 32.5384 59.6222 32.945L53.4118 31.4646L53.0495 32.9845L59.2599 34.4649C59.3053 34.8922 59.4673 35.2988 59.7281 35.6402C59.989 35.9816 60.3387 36.2448 60.7391 36.4009C61.1394 36.557 61.575 36.6 61.9981 36.5253C62.4213 36.4506 62.8157 36.261 63.1384 35.9772C63.4611 35.6934 63.6995 35.3264 63.8276 34.9162C63.9558 34.5061 63.9687 34.0686 63.865 33.6516C63.7613 33.2346 63.5449 32.8541 63.2396 32.5518C62.9342 32.2495 62.5517 32.0369 62.1337 31.9373ZM61.4091 34.9772C61.2587 34.9413 61.1224 34.8617 61.0174 34.7484C60.9123 34.6352 60.8432 34.4932 60.8188 34.3407C60.7944 34.1881 60.8157 34.0317 60.8802 33.8913C60.9447 33.7508 61.0493 33.6327 61.1809 33.5517C61.3125 33.4708 61.4652 33.4307 61.6196 33.4365C61.774 33.4423 61.9232 33.4938 62.0484 33.5844C62.1735 33.675 62.269 33.8007 62.3227 33.9456C62.3764 34.0905 62.386 34.2481 62.3502 34.3984C62.3019 34.5998 62.1757 34.7739 61.9993 34.8824C61.8229 34.9909 61.6106 35.025 61.4091 34.9772Z" fill="#475367"/>
<path d="M56.9197 40.3322C56.4483 40.2205 55.9539 40.2573 55.5043 40.4377C55.0547 40.6182 54.6719 40.9333 54.4086 41.3399L53.5175 41.1275L54.061 38.8477C54.109 38.6461 54.075 38.4337 53.9665 38.2572C53.8579 38.0807 53.6837 37.9546 53.4822 37.9065L50.8185 37.2716C51.9714 35.7793 52.7936 34.0587 53.2304 32.2242C53.6671 30.3897 53.7085 28.4833 53.3518 26.6315L56.0183 27.2671C56.2198 27.3152 56.4322 27.2812 56.6087 27.1726C56.7852 27.0641 56.9113 26.8899 56.9594 26.6883L57.5028 24.4084L58.3939 24.6208C58.4523 25.1706 58.7032 25.6821 59.1022 26.0648C59.5012 26.4475 60.0227 26.6768 60.5744 26.7122C61.1262 26.7476 61.6727 26.5868 62.1173 26.2583C62.562 25.9297 62.8762 25.4545 63.0044 24.9167C63.1326 24.3789 63.0665 23.8131 62.8179 23.3193C62.5693 22.8254 62.1541 22.4354 61.6457 22.2181C61.1373 22.0008 60.5684 21.9702 60.0397 22.1318C59.5109 22.2933 59.0563 22.6366 58.7562 23.1009L57.1052 22.7074C56.9036 22.6593 56.6912 22.6933 56.5147 22.8019C56.3382 22.9104 56.2121 23.0846 56.1641 23.2862L55.6206 25.5661L52.8971 24.9169C52.1806 22.7803 50.932 20.8613 49.2688 19.3408C47.6056 17.8203 45.5826 16.7482 43.3906 16.2257C41.1985 15.7032 38.9095 15.7474 36.7392 16.3541C34.5689 16.9609 32.5889 18.1102 30.9856 19.6939L28.2621 19.0447L28.8056 16.7648C28.8536 16.5632 28.8196 16.3509 28.7111 16.1744C28.6025 15.9979 28.4283 15.8717 28.2268 15.8237L26.5758 15.4301C26.5173 14.8803 26.2665 14.3689 25.8674 13.9862C25.4684 13.6035 24.947 13.3742 24.3952 13.3388C23.8435 13.3034 23.297 13.4642 22.8523 13.7927C22.4076 14.1213 22.0934 14.5965 21.9652 15.1343C21.837 15.6721 21.9031 16.2379 22.1517 16.7317C22.4004 17.2255 22.8156 17.6156 23.324 17.8329C23.8323 18.0502 24.4012 18.0807 24.9299 17.9192C25.4587 17.7576 25.9133 17.4144 26.2135 16.9501L27.1045 17.1624L26.5611 19.4423C26.513 19.6439 26.547 19.8563 26.6555 20.0328C26.7641 20.2092 26.9383 20.3354 27.1399 20.3834L29.8064 21.019C28.6526 22.5107 27.8296 24.2309 27.3918 26.0651C26.9541 27.8994 26.9117 29.8058 27.2674 31.6578L24.6038 31.0228C24.4022 30.9748 24.1898 31.0088 24.0133 31.1173C23.8368 31.2259 23.7107 31.4001 23.6627 31.6017L23.1192 33.8815L22.2282 33.6691C22.1697 33.1193 21.9189 32.6079 21.5198 32.2252C21.1208 31.8425 20.5994 31.6132 20.0476 31.5778C19.4959 31.5424 18.9494 31.7032 18.5047 32.0317C18.06 32.3603 17.7458 32.8355 17.6176 33.3733C17.4894 33.9111 17.5555 34.4769 17.8041 34.9707C18.0528 35.4645 18.468 35.8546 18.9764 36.0719C19.4848 36.2892 20.0536 36.3197 20.5823 36.1582C21.1111 35.9966 21.5657 35.6534 21.8659 35.189L23.5169 35.5826C23.7184 35.6306 23.9308 35.5966 24.1073 35.4881C24.2838 35.3796 24.4099 35.2053 24.458 35.0038L25.0014 32.7239L27.7202 33.372C27.7331 33.4102 27.7449 33.4492 27.7581 33.4864C28.5071 35.6485 29.8004 37.5811 31.5134 39.098L30.9707 41.375L29.4507 41.0127C29.2492 40.9647 29.0368 40.9987 28.8603 41.1072C28.6838 41.2158 28.5577 41.39 28.5096 41.5915L27.785 44.6314C27.737 44.8329 27.771 45.0453 27.8795 45.2218C27.9881 45.3983 28.1623 45.5244 28.3638 45.5725L27.0958 50.8922C27.0477 51.0937 27.0817 51.3061 27.1903 51.4826C27.2988 51.6591 27.473 51.7853 27.6746 51.8333L28.4896 52.0276C28.3724 53.3368 28.7299 54.6445 29.4969 55.712C30.2638 56.7796 31.3891 57.5356 32.6674 57.8422L34.1873 58.2045C35.4664 58.5075 36.8117 58.3404 37.9778 57.7336C39.1439 57.1269 40.0528 56.1211 40.5388 54.8997L41.3538 55.094C41.5554 55.142 41.7678 55.108 41.9443 54.9995C42.1208 54.891 42.2469 54.7167 42.2949 54.5152L43.563 49.1955C43.7645 49.2435 43.9769 49.2095 44.1534 49.101C44.3299 48.9924 44.4561 48.8182 44.5041 48.6167L45.2287 45.5768C45.2767 45.3753 45.2428 45.1629 45.1342 44.9864C45.0257 44.8099 44.8514 44.6838 44.6499 44.6357L43.13 44.2734L43.6728 41.9964C45.8858 41.4153 47.9119 40.2739 49.5556 38.6823C49.5842 38.655 49.6123 38.6255 49.6412 38.5972L52.3599 39.2453L51.8165 41.5252C51.7684 41.7267 51.8024 41.9391 51.911 42.1156C52.0195 42.2921 52.1937 42.4182 52.3953 42.4663L54.0463 42.8598C54.0917 43.2872 54.2537 43.6938 54.5146 44.0352C54.7755 44.3767 55.1252 44.6398 55.5256 44.7959C55.9259 44.952 56.3615 44.995 56.7847 44.9203C57.2078 44.8455 57.6023 44.6558 57.9249 44.372C58.2476 44.0882 58.486 43.7211 58.6141 43.311C58.7422 42.9008 58.7551 42.4633 58.6513 42.0463C58.5475 41.6293 58.3311 41.2488 58.0257 40.9465C57.7203 40.6442 57.3377 40.4317 56.9197 40.3322ZM60.905 23.6131C61.0553 23.649 61.1916 23.7286 61.2966 23.8418C61.4017 23.9551 61.4708 24.0971 61.4952 24.2496C61.5197 24.4022 61.4983 24.5586 61.4338 24.699C61.3694 24.8394 61.2647 24.9576 61.1331 25.0386C61.0015 25.1195 60.8488 25.1596 60.6944 25.1538C60.54 25.148 60.3908 25.0965 60.2656 25.0059C60.1405 24.9153 60.045 24.7896 59.9913 24.6447C59.9376 24.4998 59.928 24.3422 59.9638 24.1919C60.0121 23.9905 60.1383 23.8165 60.3148 23.708C60.4912 23.5995 60.7034 23.5654 60.905 23.6131ZM24.0647 16.4378C23.9144 16.402 23.7781 16.3224 23.673 16.2091C23.5679 16.0958 23.4988 15.9539 23.4744 15.8014C23.45 15.6488 23.4713 15.4924 23.5358 15.352C23.6003 15.2115 23.7049 15.0934 23.8365 15.0124C23.9682 14.9315 24.1208 14.8914 24.2752 14.8972C24.4296 14.903 24.5789 14.9545 24.704 15.0451C24.8292 15.1357 24.9246 15.2614 24.9783 15.4063C25.0321 15.5512 25.0416 15.7087 25.0058 15.859C24.9575 16.0604 24.8313 16.2345 24.6549 16.343C24.4784 16.4515 24.2662 16.4856 24.0647 16.4378ZM19.7171 34.6768C19.5668 34.641 19.4305 34.5614 19.3254 34.4481C19.2203 34.3348 19.1512 34.1929 19.1268 34.0403C19.1024 33.8878 19.1237 33.7314 19.1882 33.591C19.2527 33.4505 19.3573 33.3324 19.4889 33.2514C19.6206 33.1705 19.7732 33.1304 19.9276 33.1362C20.082 33.142 20.2313 33.1935 20.3564 33.2841C20.4816 33.3747 20.577 33.5004 20.6307 33.6453C20.6845 33.7902 20.694 33.9477 20.6582 34.098C20.6099 34.2994 20.4837 34.4735 20.3073 34.582C20.1309 34.6905 19.9186 34.7246 19.7171 34.6768ZM34.5496 56.6846L33.0297 56.3223C32.1543 56.1126 31.378 55.6074 30.8316 54.8919C30.2853 54.1765 30.0023 53.2946 30.0305 52.3949L38.998 54.5324C38.6172 55.3481 37.9668 56.0075 37.1565 56.3996C36.3462 56.7916 35.4255 56.8923 34.5496 56.6846ZM40.9562 53.3929L28.7969 50.4945L29.8838 45.9348L32.9236 46.6594L32.3801 48.9393C32.3321 49.1408 32.3661 49.3532 32.4746 49.5297C32.5832 49.7062 32.7574 49.8323 32.9589 49.8804L37.5187 50.9673C37.7202 51.0153 37.9326 50.9813 38.1091 50.8728C38.2856 50.7642 38.4118 50.59 38.4598 50.3885L39.0032 48.1086L42.0431 48.8332L40.9562 53.3929ZM34.0812 48.5416L34.4435 47.0217L37.4833 47.7463L37.121 49.2662L34.0812 48.5416ZM43.5276 45.9745L43.1653 47.4944L29.4861 44.2337L29.8484 42.7138L43.5276 45.9745ZM48.4689 37.5599C46.9118 39.0673 44.9683 40.115 42.8531 40.5873C42.7103 40.6194 42.5794 40.6908 42.4753 40.7936C42.3711 40.8964 42.2978 41.0263 42.2638 41.1686L41.6101 43.9111L32.4906 41.7373L33.1443 38.9948C33.1781 38.8525 33.1714 38.7035 33.1247 38.5647C33.0781 38.426 32.9935 38.3032 32.8806 38.2102C31.0442 36.7046 29.7085 34.6767 29.0504 32.395C28.3924 30.1134 28.443 27.6856 29.1957 25.4334C29.9483 23.1812 31.3674 21.2107 33.265 19.7831C35.1626 18.3555 37.4492 17.538 39.8218 17.4391C42.1944 17.3401 44.5411 17.9642 46.551 19.2289C48.5609 20.4935 50.1392 22.3389 51.0768 24.5206C52.0144 26.7023 52.2671 29.1174 51.8014 31.4459C51.3357 33.7745 50.1735 35.9066 48.4689 37.5599ZM56.1951 43.372C56.0448 43.3362 55.9084 43.2566 55.8034 43.1433C55.6983 43.03 55.6292 42.8881 55.6048 42.7355C55.5804 42.583 55.6017 42.4266 55.6662 42.2862C55.7307 42.1457 55.8353 42.0276 55.9669 41.9466C56.0985 41.8657 56.2512 41.8256 56.4056 41.8314C56.56 41.8372 56.7092 41.8887 56.8344 41.9793C56.9595 42.0699 57.055 42.1956 57.1087 42.3405C57.1624 42.4854 57.172 42.6429 57.1362 42.7932C57.0879 42.9946 56.9617 43.1687 56.7853 43.2772C56.6088 43.3857 56.3966 43.4198 56.1951 43.372Z" fill="#475367"/>
</svg>
