<svg width="50" height="50" viewBox="0 0 50 50" fill="none" xmlns="http://www.w3.org/2000/svg">
<path d="M37.5 14.0625C34.6392 14.0601 31.8922 15.1825 29.8516 17.1875H27.6906C27.1484 16.2578 26.1531 15.625 24.9984 15.625C23.8438 15.625 22.8484 16.2578 22.3063 17.1875H20.1453C18.1062 15.1821 15.36 14.0596 12.5 14.0625C10.3368 14.0625 8.22212 14.704 6.42346 15.9058C4.62479 17.1076 3.22291 18.8158 2.39507 20.8144C1.56724 22.813 1.35064 25.0121 1.77267 27.1338C2.19469 29.2555 3.23639 31.2043 4.76602 32.734C6.29566 34.2636 8.24454 35.3053 10.3662 35.7273C12.4879 36.1494 14.687 35.9328 16.6856 35.1049C18.6842 34.2771 20.3924 32.8752 21.5942 31.0766C22.796 29.2779 23.4375 27.1632 23.4375 25H26.5625C26.5625 27.1632 27.204 29.2779 28.4058 31.0766C29.6076 32.8752 31.3158 34.2771 33.3144 35.1049C35.313 35.9328 37.5121 36.1494 39.6338 35.7273C41.7555 35.3053 43.7043 34.2636 45.234 32.734C46.7636 31.2043 47.8053 29.2555 48.2273 27.1338C48.6494 25.0121 48.4328 22.813 47.6049 20.8144C46.7771 18.8158 45.3752 17.1076 43.5766 15.9058C41.7779 14.704 39.6632 14.0625 37.5 14.0625ZM12.5 32.8125C8.19219 32.8125 4.6875 29.3078 4.6875 25C4.6875 20.6922 8.19219 17.1875 12.5 17.1875C16.8078 17.1875 20.3125 20.6922 20.3125 25C20.3125 29.3078 16.8078 32.8125 12.5 32.8125ZM37.5 32.8125C33.1922 32.8125 29.6875 29.3078 29.6875 25C29.6875 20.6922 33.1922 17.1875 37.5 17.1875C41.8078 17.1875 45.3125 20.6922 45.3125 25C45.3125 29.3078 41.8078 32.8125 37.5 32.8125Z" fill="black"/>
</svg>
