<svg width="30" height="30" viewBox="0 0 30 30" fill="none" xmlns="http://www.w3.org/2000/svg">
<path d="M6.32812 28.1438C4.90406 28.1438 3.75 26.9897 3.75 25.5657V5.40942C3.75 3.98536 4.90406 2.8313 6.32812 2.8313H23.6719C25.0959 2.8313 26.25 3.98536 26.25 5.40942V25.5657C26.25 26.9897 25.0959 28.1438 23.6719 28.1438H6.32812Z" fill="#FFECE5"/>
<path d="M26.25 5.41113V9.02426H3.75V5.41113C3.75 3.98707 4.90406 2.83301 6.32812 2.83301H23.6719C25.0959 2.83301 26.25 3.98707 26.25 5.41113Z" fill="white"/>
<path d="M20.7338 26.6492C22.955 26.6492 24.7557 24.8486 24.7557 22.6273C24.7557 20.4061 22.955 18.6055 20.7338 18.6055C18.5126 18.6055 16.7119 20.4061 16.7119 22.6273C16.7119 24.8486 18.5126 26.6492 20.7338 26.6492Z" fill="white"/>
<path d="M23.6719 1.98745H22.6406V1.8562C22.6406 1.39026 22.2628 1.01245 21.7969 1.01245C21.3309 1.01245 20.9531 1.39026 20.9531 1.8562V1.98745H15.8437V1.8562C15.8437 1.39026 15.4659 1.01245 15 1.01245C14.5341 1.01245 14.1562 1.39026 14.1562 1.8562V1.98745H9.04687V1.8562C9.04687 1.39026 8.66906 1.01245 8.20312 1.01245C7.73719 1.01245 7.35938 1.39026 7.35938 1.8562V1.98745H6.32812C4.44094 1.98745 2.90625 3.52214 2.90625 5.40933V25.5656C2.90625 27.4528 4.44094 28.9875 6.32812 28.9875H15.9656C16.4316 28.9875 16.8094 28.6096 16.8094 28.1437C16.8094 27.6778 16.4316 27.3 15.9656 27.3H6.32812C5.37188 27.3 4.59375 26.5218 4.59375 25.5656V9.86808H25.4062V17.8593C25.4062 18.3253 25.7841 18.7031 26.25 18.7031C26.7159 18.7031 27.0938 18.3253 27.0938 17.8593V5.40933C27.0938 3.52214 25.5591 1.98745 23.6719 1.98745ZM4.59375 8.18058V5.40933C4.59375 4.45308 5.37188 3.67495 6.32812 3.67495H7.35938V3.80995C7.35938 4.27589 7.73719 4.6537 8.20312 4.6537C8.66906 4.6537 9.04687 4.27589 9.04687 3.80995V3.67495H14.1562V3.80995C14.1562 4.27589 14.5341 4.6537 15 4.6537C15.4659 4.6537 15.8437 4.27589 15.8437 3.80995V3.67495H20.9531V3.80995C20.9531 4.27589 21.3309 4.6537 21.7969 4.6537C22.2628 4.6537 22.6406 4.27589 22.6406 3.80995V3.67495H23.6719C24.6291 3.67495 25.4062 4.45308 25.4062 5.40933V8.18058H4.59375Z" fill="#F56630"/>
<path d="M21.9375 14.1216C21.9375 13.6556 21.5597 13.2778 21.0938 13.2778H8.90625C8.44031 13.2778 8.0625 13.6556 8.0625 14.1216C8.0625 14.5875 8.44031 14.9653 8.90625 14.9653H21.0938C21.5597 14.9644 21.9375 14.5875 21.9375 14.1216ZM8.90625 18.3C8.44031 18.3 8.0625 18.6778 8.0625 19.1438C8.0625 19.6097 8.44031 19.9875 8.90625 19.9875H14.3156C14.7816 19.9875 15.1594 19.6097 15.1594 19.1438C15.1594 18.6778 14.7816 18.3 14.3156 18.3H8.90625ZM24.7134 25.4138C25.2844 24.6019 25.6003 23.641 25.6003 22.6275C25.6003 21.3281 25.0941 20.1066 24.1744 19.1878C23.2556 18.2691 22.0341 17.7619 20.7337 17.7619C19.4334 17.7619 18.2128 18.2681 17.2931 19.1869C16.3744 20.1056 15.8681 21.3281 15.8681 22.6275C15.8681 23.9278 16.3744 25.1494 17.2931 26.0681C18.2119 26.9869 19.4334 27.4931 20.7337 27.4931C21.7472 27.4931 22.7072 27.1772 23.5191 26.6063L25.6528 28.74C25.8178 28.905 26.0344 28.9875 26.25 28.9875C26.4656 28.9875 26.6822 28.905 26.8472 28.74C27.1772 28.411 27.1772 27.8766 26.8472 27.5475L24.7134 25.4138ZM18.4875 24.8747C17.8866 24.2747 17.5566 23.4769 17.5566 22.6275C17.5566 21.7791 17.8875 20.9813 18.4875 20.3803C19.0875 19.7794 19.8853 19.4494 20.7337 19.4494C21.5822 19.4494 22.3809 19.7803 22.98 20.3813C23.5809 20.9813 23.9109 21.7791 23.9109 22.6275C23.9109 23.4769 23.58 24.2747 22.98 24.8747C21.7809 26.0756 19.6866 26.0756 18.4875 24.8747Z" fill="#F56630"/>
</svg>
