<svg width="50" height="50" viewBox="0 0 50 50" fill="none" xmlns="http://www.w3.org/2000/svg">
<g clip-path="url(#clip0_9_373)">
<path d="M44.1406 14.4531C44.7587 14.4531 45.3629 14.2698 45.8768 13.9265C46.3907 13.5831 46.7912 13.095 47.0277 12.524C47.2643 11.953 47.3262 11.3247 47.2056 10.7185C47.085 10.1123 46.7874 9.55546 46.3503 9.11842C45.9133 8.68138 45.3565 8.38375 44.7503 8.26317C44.1441 8.14259 43.5158 8.20448 42.9447 8.441C42.3737 8.67753 41.8857 9.07807 41.5423 9.59197C41.1989 10.1059 41.0156 10.7101 41.0156 11.3281C41.0167 12.1566 41.3462 12.9509 41.9321 13.5367C42.5179 14.1225 43.3121 14.4521 44.1406 14.4531ZM44.1406 9.76563C44.4497 9.76563 44.7518 9.85727 45.0087 10.029C45.2657 10.2006 45.4659 10.4447 45.5842 10.7302C45.7024 11.0157 45.7334 11.3299 45.6731 11.633C45.6128 11.9361 45.464 12.2145 45.2455 12.433C45.027 12.6515 44.7486 12.8003 44.4455 12.8606C44.1424 12.9209 43.8282 12.89 43.5427 12.7717C43.2572 12.6534 43.0131 12.4532 42.8415 12.1962C42.6698 11.9393 42.5781 11.6372 42.5781 11.3281C42.5785 10.9139 42.7433 10.5167 43.0362 10.2237C43.3292 9.93079 43.7264 9.76604 44.1406 9.76563Z" fill="black"/>
<path d="M46.875 7.42188C47.3065 7.42188 47.6562 7.0721 47.6562 6.64062C47.6562 6.20915 47.3065 5.85938 46.875 5.85938C46.4435 5.85938 46.0938 6.20915 46.0938 6.64062C46.0938 7.0721 46.4435 7.42188 46.875 7.42188Z" fill="black"/>
<path d="M2.73438 11.3281C2.73438 11.9462 2.91765 12.5504 3.26103 13.0643C3.60441 13.5782 4.09247 13.9787 4.66349 14.2152C5.23451 14.4518 5.86284 14.5137 6.46903 14.3931C7.07522 14.2725 7.63204 13.9749 8.06908 13.5378C8.50612 13.1008 8.80375 12.544 8.92433 11.9378C9.04491 11.3316 8.98302 10.7033 8.7465 10.1322C8.50997 9.56122 8.10944 9.07316 7.59553 8.72978C7.08163 8.3864 6.47744 8.20312 5.85938 8.20312C5.03089 8.20416 4.23664 8.53373 3.65081 9.11956C3.06498 9.70539 2.73541 10.4996 2.73438 11.3281ZM5.85938 9.76562C6.16841 9.76562 6.4705 9.85726 6.72745 10.029C6.98441 10.2006 7.18468 10.4447 7.30294 10.7302C7.4212 11.0157 7.45214 11.3299 7.39185 11.633C7.33156 11.936 7.18275 12.2145 6.96423 12.433C6.74571 12.6515 6.4673 12.8003 6.1642 12.8606C5.86111 12.9209 5.54694 12.8899 5.26143 12.7717C4.97592 12.6534 4.73189 12.4532 4.5602 12.1962C4.38851 11.9393 4.29688 11.6372 4.29688 11.3281C4.29729 10.9139 4.46204 10.5167 4.75498 10.2237C5.04791 9.93079 5.4451 9.76604 5.85938 9.76562Z" fill="black"/>
<path d="M3.125 7.42188C3.55647 7.42188 3.90625 7.0721 3.90625 6.64062C3.90625 6.20915 3.55647 5.85938 3.125 5.85938C2.69353 5.85938 2.34375 6.20915 2.34375 6.64062C2.34375 7.0721 2.69353 7.42188 3.125 7.42188Z" fill="black"/>
<path d="M47.2656 38.6719C47.2656 38.0538 47.0823 37.4496 46.739 36.9357C46.3956 36.4218 45.9075 36.0213 45.3365 35.7848C44.7655 35.5482 44.1372 35.4863 43.531 35.6069C42.9248 35.7275 42.368 36.0251 41.9309 36.4622C41.4939 36.8992 41.1963 37.456 41.0757 38.0622C40.9551 38.6684 41.017 39.2967 41.2535 39.8678C41.49 40.4388 41.8906 40.9268 42.4045 41.2702C42.9184 41.6136 43.5226 41.7969 44.1406 41.7969C44.9691 41.7958 45.7634 41.4663 46.3492 40.8804C46.935 40.2946 47.2646 39.5004 47.2656 38.6719ZM44.1406 40.2344C43.8316 40.2344 43.5295 40.1427 43.2725 39.971C43.0156 39.7994 42.8153 39.5553 42.6971 39.2698C42.5788 38.9843 42.5479 38.6701 42.6081 38.367C42.6684 38.064 42.8173 37.7855 43.0358 37.567C43.2543 37.3485 43.5327 37.1997 43.8358 37.1394C44.1389 37.0791 44.4531 37.1101 44.7386 37.2283C45.0241 37.3466 45.2681 37.5468 45.4398 37.8038C45.6115 38.0607 45.7031 38.3628 45.7031 38.6719C45.7027 39.0862 45.538 39.4833 45.245 39.7763C44.9521 40.0692 44.5549 40.234 44.1406 40.2344Z" fill="black"/>
<path d="M46.875 44.1406C47.3065 44.1406 47.6562 43.7908 47.6562 43.3594C47.6562 42.9279 47.3065 42.5781 46.875 42.5781C46.4435 42.5781 46.0938 42.9279 46.0938 43.3594C46.0938 43.7908 46.4435 44.1406 46.875 44.1406Z" fill="black"/>
<path d="M5.85938 35.5469C5.24131 35.5469 4.63712 35.7302 4.12322 36.0735C3.60932 36.4169 3.20878 36.905 2.97225 37.476C2.73573 38.047 2.67384 38.6753 2.79442 39.2815C2.915 39.8877 3.21263 40.4445 3.64967 40.8816C4.08671 41.3186 4.64353 41.6163 5.24972 41.7368C5.85591 41.8574 6.48424 41.7955 7.05526 41.559C7.62628 41.3225 8.11434 40.9219 8.45772 40.408C8.8011 39.8941 8.98438 39.2899 8.98438 38.6719C8.98334 37.8434 8.65377 37.0491 8.06794 36.4633C7.48212 35.8775 6.68786 35.5479 5.85938 35.5469ZM5.85938 40.2344C5.55034 40.2344 5.24825 40.1427 4.9913 39.971C4.73435 39.7994 4.53408 39.5553 4.41581 39.2698C4.29755 38.9843 4.26661 38.6701 4.3269 38.367C4.38719 38.0639 4.536 37.7855 4.75452 37.567C4.97304 37.3485 5.25145 37.1997 5.55455 37.1394C5.85764 37.0791 6.17181 37.1101 6.45732 37.2283C6.74283 37.3466 6.98686 37.5468 7.15855 37.8038C7.33024 38.0607 7.42188 38.3628 7.42188 38.6719C7.42146 39.0861 7.25671 39.4833 6.96377 39.7763C6.67084 40.0692 6.27365 40.234 5.85938 40.2344Z" fill="black"/>
<path d="M3.125 44.1406C3.55647 44.1406 3.90625 43.7908 3.90625 43.3594C3.90625 42.9279 3.55647 42.5781 3.125 42.5781C2.69353 42.5781 2.34375 42.9279 2.34375 43.3594C2.34375 43.7908 2.69353 44.1406 3.125 44.1406Z" fill="black"/>
<path d="M49.811 24.3799C41.5786 14.8369 32.8891 10.1924 23.9622 10.5674C9.92116 11.1631 0.541469 23.8905 0.148891 24.4322C0.0272127 24.6 -0.0228521 24.8092 0.00971034 25.0138C0.0422728 25.2185 0.154795 25.4018 0.322524 25.5235C0.490253 25.6451 0.699448 25.6952 0.90409 25.6626C1.10873 25.6301 1.29206 25.5176 1.41373 25.3498C1.50553 25.2229 10.7579 12.6854 24.0387 12.1287C32.4563 11.7865 40.7262 16.242 48.627 25.401C48.7624 25.558 48.9545 25.6547 49.1612 25.67C49.3679 25.6853 49.5722 25.6178 49.7292 25.4824C49.8861 25.3471 49.9829 25.1549 49.9981 24.9482C50.0134 24.7415 49.946 24.5372 49.8106 24.3803L49.811 24.3799ZM13.5122 34.9139C13.3286 34.8203 13.1154 34.8028 12.919 34.8654C12.7226 34.9279 12.5588 35.0654 12.4632 35.248C12.3675 35.4305 12.3477 35.6435 12.4081 35.8405C12.4684 36.0376 12.6041 36.2029 12.7856 36.3006C12.8981 36.3582 13.0225 36.389 13.1489 36.3905C13.2919 36.3909 13.4322 36.3517 13.5542 36.2773C13.6763 36.2028 13.7753 36.0959 13.8403 35.9686C13.9357 35.785 13.9548 35.5712 13.8934 35.3737C13.8319 35.1761 13.6949 35.0109 13.5122 34.9139ZM15.9262 36.0389C15.7833 35.9802 15.6262 35.9652 15.4747 35.9957C15.3233 36.0263 15.1843 36.1011 15.0753 36.2107C14.9664 36.3203 14.8924 36.4597 14.8627 36.6114C14.833 36.763 14.8489 36.92 14.9085 37.0626C14.968 37.2052 15.0685 37.3269 15.1972 37.4124C15.3259 37.4979 15.4771 37.5432 15.6316 37.5428C15.7862 37.5423 15.9371 37.4961 16.0653 37.4099C16.1935 37.3237 16.2933 37.2013 16.352 37.0584C16.3913 36.9636 16.4114 36.8619 16.4112 36.7592C16.4111 36.6565 16.3906 36.5549 16.351 36.4602C16.3115 36.3654 16.2536 36.2794 16.1807 36.2071C16.1078 36.1348 16.0213 36.0777 15.9262 36.0389ZM11.1997 33.5819C11.0695 33.5002 10.9181 33.4589 10.7646 33.4632C10.611 33.4674 10.4622 33.5171 10.3367 33.6058C10.2113 33.6945 10.115 33.8184 10.0599 33.9618C10.0047 34.1052 9.99328 34.2617 10.027 34.4116C10.0606 34.5614 10.1379 34.698 10.2491 34.8041C10.3602 34.9101 10.5003 34.9808 10.6516 35.0074C10.8029 35.034 10.9587 35.0152 11.0993 34.9533C11.24 34.8915 11.3591 34.7894 11.4419 34.66C11.4975 34.5735 11.5355 34.4769 11.5534 34.3756C11.5714 34.2744 11.569 34.1705 11.5465 34.0702C11.524 33.9699 11.4817 33.875 11.4221 33.7912C11.3626 33.7074 11.287 33.6362 11.1997 33.5819ZM6.38717 31.7615C6.54722 31.7624 6.70365 31.714 6.83531 31.623C6.96698 31.532 7.06752 31.4028 7.12334 31.2528C7.17916 31.1028 7.18757 30.9393 7.14743 30.7844C7.10728 30.6294 7.02053 30.4906 6.89889 30.3865C6.82092 30.3199 6.73058 30.2692 6.63302 30.2374C6.53546 30.2056 6.4326 30.1934 6.33031 30.2014C6.22802 30.2094 6.12831 30.2374 6.03686 30.2839C5.94541 30.3304 5.86402 30.3945 5.79733 30.4725C5.73064 30.5505 5.67997 30.6408 5.64819 30.7384C5.61642 30.8359 5.60418 30.9388 5.61216 31.0411C5.62014 31.1434 5.64819 31.2431 5.6947 31.3345C5.74122 31.426 5.80529 31.5074 5.88327 31.574C6.02325 31.6951 6.20213 31.7616 6.38717 31.7615ZM2.99655 27.7381C3.13173 27.6166 3.2201 27.4517 3.24634 27.2719C3.27257 27.092 3.23501 26.9087 3.14016 26.7537C3.04532 26.5987 2.89918 26.4818 2.72713 26.4233C2.55508 26.3648 2.36797 26.3684 2.19829 26.4334C2.02861 26.4985 1.88707 26.6209 1.79825 26.7795C1.70942 26.938 1.67892 27.1226 1.71204 27.3013C1.74515 27.48 1.8398 27.6415 1.97954 27.7576C2.11928 27.8738 2.29529 27.9374 2.47702 27.9373C2.66873 27.9367 2.85357 27.8658 2.99655 27.7381ZM4.37155 29.9139C4.4756 29.9142 4.57865 29.8936 4.6746 29.8533C4.77055 29.8131 4.85745 29.754 4.93014 29.6795C5.03827 29.569 5.11122 29.429 5.13976 29.2771C5.16829 29.1251 5.15114 28.9681 5.09046 28.826C5.02979 28.6838 4.92831 28.5628 4.79887 28.4783C4.66943 28.3938 4.51784 28.3495 4.36326 28.3512C4.20869 28.3528 4.05806 28.4002 3.93045 28.4875C3.80283 28.5747 3.70394 28.6978 3.64629 28.8413C3.58864 28.9847 3.57482 29.142 3.60657 29.2933C3.63832 29.4446 3.71422 29.5831 3.82467 29.6912C3.97058 29.8345 4.16707 29.9145 4.37155 29.9139ZM8.99264 32.0623C8.91031 32.0013 8.81676 31.9571 8.71733 31.9322C8.61791 31.9073 8.51455 31.9022 8.41317 31.9173C8.31179 31.9323 8.21436 31.9672 8.12646 32.0199C8.03855 32.0726 7.96189 32.1421 7.90084 32.2244C7.8398 32.3068 7.79557 32.4003 7.77068 32.4997C7.74579 32.5992 7.74073 32.7025 7.75578 32.8039C7.77083 32.9053 7.80571 33.0027 7.85841 33.0906C7.91112 33.1785 7.98062 33.2552 8.06295 33.3162H8.05905C8.22533 33.44 8.43397 33.4927 8.63909 33.4627C8.84421 33.4326 9.029 33.3224 9.1528 33.1561C9.2766 32.9898 9.32928 32.7812 9.29924 32.576C9.26921 32.3709 9.15892 32.1861 8.99264 32.0623ZM36.352 34.8944C36.1972 34.9758 36.0742 35.1068 36.0027 35.2664C35.9312 35.4261 35.9154 35.6051 35.9577 35.7748C36 35.9445 36.0981 36.0951 36.2361 36.2025C36.3742 36.3099 36.5443 36.3678 36.7192 36.367C36.838 36.367 36.9552 36.3399 37.0619 36.2878C37.1687 36.2357 37.2621 36.1599 37.3353 36.0663C37.4084 35.9727 37.4592 35.8637 37.4839 35.7475C37.5085 35.6313 37.5064 35.511 37.4777 35.3958C37.449 35.2805 37.3944 35.1733 37.318 35.0824C37.2417 34.9914 37.1456 34.9189 37.0371 34.8706C36.9286 34.8223 36.8105 34.7993 36.6918 34.8034C36.5731 34.8075 36.4569 34.8386 36.352 34.8944ZM43.9536 31.5155C44.0938 31.3959 44.1876 31.2308 44.2183 31.0491C44.249 30.8674 44.2149 30.6807 44.1217 30.5216C44.0286 30.3626 43.8825 30.2414 43.7089 30.1793C43.5354 30.1172 43.3456 30.1182 43.1727 30.182C42.9998 30.2458 42.8549 30.3685 42.7634 30.5284C42.6719 30.6884 42.6395 30.8755 42.6721 31.0569C42.7047 31.2383 42.8 31.4024 42.9415 31.5205C43.083 31.6387 43.2615 31.7032 43.4458 31.703C43.6323 31.705 43.8131 31.6383 43.9536 31.5155ZM38.6528 33.5428C38.5225 33.6262 38.4199 33.7464 38.3579 33.8882C38.296 34.03 38.2775 34.187 38.3049 34.3393C38.3322 34.4915 38.4042 34.6323 38.5116 34.7437C38.619 34.855 38.757 34.932 38.9082 34.9649C39.0594 34.9978 39.2169 34.985 39.3609 34.9283C39.5048 34.8715 39.6287 34.7734 39.7168 34.6462C39.8049 34.519 39.8532 34.3685 39.8558 34.2138C39.8583 34.0591 39.8148 33.9072 39.7309 33.7772C39.6186 33.6037 39.4421 33.4817 39.2402 33.4378C39.0382 33.3939 38.827 33.4316 38.6528 33.5428ZM41.7856 33.2615C41.9092 33.1688 42.0026 33.0416 42.0538 32.8958C42.1051 32.75 42.112 32.5923 42.0737 32.4427C42.0353 32.293 41.9534 32.158 41.8384 32.0549C41.7234 31.9517 41.5803 31.885 41.4273 31.8631C41.2744 31.8413 41.1184 31.8653 40.979 31.9321C40.8397 31.9989 40.7233 32.1055 40.6446 32.2385C40.5659 32.3715 40.5284 32.5248 40.5368 32.6791C40.5452 32.8334 40.5991 32.9817 40.6919 33.1053C40.8162 33.2711 41.0013 33.3806 41.2064 33.4099C41.4115 33.4392 41.6199 33.3859 41.7856 33.2615ZM46.0083 29.6483C46.1415 29.5225 46.2267 29.3542 46.2492 29.1723C46.2717 28.9905 46.2301 28.8065 46.1316 28.652C46.033 28.4976 45.8837 28.3823 45.7093 28.3261C45.5349 28.2699 45.3463 28.2762 45.1761 28.3441C45.0059 28.4119 44.8647 28.537 44.7768 28.6977C44.6889 28.8585 44.6597 29.0449 44.6944 29.2248C44.7292 29.4047 44.8255 29.5669 44.9669 29.6834C45.1084 29.7999 45.286 29.8635 45.4692 29.8631C45.6698 29.8632 45.8627 29.7863 46.0083 29.6483ZM46.8208 26.6053C46.7153 26.7161 46.6449 26.8555 46.6181 27.0061C46.5913 27.1567 46.6095 27.3119 46.6703 27.4522C46.7311 27.5926 46.8319 27.7119 46.96 27.7954C47.0882 27.8789 47.2381 27.9228 47.3911 27.9217C47.4974 27.922 47.6026 27.9003 47.7001 27.858C47.7975 27.8156 47.8852 27.7535 47.9575 27.6756C48.0305 27.6015 48.088 27.5136 48.1266 27.4169C48.1651 27.3203 48.184 27.2169 48.182 27.1129C48.1801 27.0089 48.1574 26.9063 48.1152 26.8112C48.0731 26.716 48.0124 26.6303 47.9366 26.559C47.8609 26.4877 47.7716 26.4322 47.6742 26.3958C47.5767 26.3595 47.4729 26.343 47.3689 26.3473C47.265 26.3516 47.163 26.3767 47.0688 26.421C46.9747 26.4653 46.8903 26.5279 46.8208 26.6053ZM23.6215 37.8514C23.518 37.8431 23.4139 37.8555 23.3152 37.888C23.2166 37.9204 23.1254 37.9722 23.047 38.0403C22.9686 38.1084 22.9046 38.1915 22.8587 38.2847C22.8128 38.3778 22.786 38.4792 22.7797 38.5829C22.7735 38.6865 22.788 38.7904 22.8224 38.8884C22.8568 38.9864 22.9104 39.0765 22.9801 39.1535C23.0497 39.2306 23.134 39.2929 23.2281 39.3369C23.3221 39.381 23.424 39.4058 23.5278 39.41H23.5747C23.7771 39.4094 23.9713 39.3301 24.1164 39.1889C24.2614 39.0477 24.3459 38.8557 24.352 38.6534C24.3581 38.451 24.2853 38.2543 24.149 38.1046C24.0127 37.955 23.8236 37.8642 23.6215 37.8514ZM18.4262 36.9217C18.3277 36.8927 18.2245 36.8834 18.1224 36.8943C18.0203 36.9052 17.9214 36.9362 17.8313 36.9853C17.7411 37.0345 17.6615 37.1009 17.5971 37.1808C17.5326 37.2607 17.4845 37.3525 17.4555 37.451C17.4265 37.5495 17.4172 37.6527 17.4282 37.7548C17.4391 37.8569 17.47 37.9558 17.5191 38.046C17.5683 38.1361 17.6347 38.2157 17.7146 38.2802C17.7945 38.3446 17.8863 38.3927 17.9848 38.4217C18.0561 38.4415 18.1296 38.4521 18.2036 38.453C18.3916 38.4532 18.5734 38.3857 18.7157 38.2628C18.858 38.1399 18.9512 37.9699 18.9783 37.7838C19.0053 37.5977 18.9644 37.4081 18.863 37.2498C18.7616 37.0915 18.6066 36.975 18.4262 36.9217ZM21.0005 37.535C20.8988 37.5156 20.7944 37.5167 20.6931 37.538C20.5919 37.5593 20.4959 37.6005 20.4107 37.6592C20.3256 37.718 20.2529 37.793 20.1969 37.88C20.1409 37.967 20.1028 38.0643 20.0847 38.1661C20.0666 38.268 20.0689 38.3724 20.0915 38.4734C20.1141 38.5743 20.1564 38.6698 20.2162 38.7543C20.2759 38.8387 20.3519 38.9105 20.4395 38.9654C20.5272 39.0203 20.6249 39.0572 20.727 39.074C20.7722 39.0817 20.8179 39.0856 20.8637 39.0858C21.0594 39.0862 21.2481 39.0133 21.3926 38.8813C21.537 38.7494 21.6267 38.568 21.6439 38.3731C21.6611 38.1782 21.6045 37.984 21.4854 37.8288C21.3662 37.6736 21.1932 37.5687 21.0005 37.535ZM28.8833 37.5389C28.6905 37.5726 28.5175 37.6775 28.3984 37.8327C28.2792 37.9879 28.2226 38.1821 28.2398 38.377C28.257 38.5719 28.3467 38.7533 28.4912 38.8852C28.6356 39.0172 28.8243 39.0902 29.02 39.0897C29.0658 39.0894 29.1115 39.0855 29.1567 39.078C29.3587 39.0395 29.5374 38.923 29.6541 38.7537C29.7708 38.5843 29.8161 38.3758 29.7801 38.1734C29.7442 37.9709 29.6299 37.7908 29.462 37.672C29.2941 37.5532 29.0862 37.5054 28.8833 37.5389ZM26.2583 37.8514C26.0558 37.8642 25.8661 37.9552 25.7295 38.1052C25.5928 38.2552 25.5198 38.4525 25.5259 38.6553C25.532 38.8581 25.6167 39.0507 25.7621 39.1922C25.9075 39.3338 26.1022 39.4132 26.3051 39.4139C26.3209 39.4145 26.3366 39.4132 26.352 39.41C26.4558 39.4058 26.5577 39.381 26.6517 39.3369C26.7458 39.2929 26.8301 39.2306 26.8998 39.1535C26.9694 39.0765 27.023 38.9864 27.0574 38.8884C27.0918 38.7904 27.1063 38.6865 27.1001 38.5829C27.0938 38.4792 27.067 38.3778 27.0211 38.2847C26.9752 38.1915 26.9112 38.1084 26.8328 38.0403C26.7544 37.9722 26.6632 37.9204 26.5646 37.888C26.4659 37.8555 26.3618 37.8431 26.2583 37.8514ZM33.9497 36.0311C33.7824 36.1003 33.6443 36.2254 33.559 36.3851C33.4737 36.5448 33.4465 36.7291 33.482 36.9066C33.5175 37.0842 33.6136 37.2438 33.7537 37.3584C33.8938 37.473 34.0694 37.5354 34.2505 37.535C34.3522 37.5346 34.453 37.5147 34.5473 37.4764C34.739 37.3971 34.8913 37.245 34.9708 37.0534C35.0503 36.8619 35.0504 36.6466 34.9712 36.4549C34.8919 36.2632 34.7398 36.1109 34.5482 36.0314C34.3566 35.952 34.1413 35.9518 33.9497 36.0311ZM31.4536 36.9256C31.2737 36.9788 31.1191 37.0951 31.018 37.253C30.9169 37.411 30.8762 37.6001 30.9032 37.7857C30.9303 37.9713 31.0233 38.1409 31.1653 38.2635C31.3073 38.386 31.4887 38.4533 31.6762 38.453C31.7516 38.4542 31.8268 38.4436 31.8989 38.4217C31.9971 38.3925 32.0886 38.3442 32.1682 38.2796C32.2478 38.2149 32.3138 38.1353 32.3626 38.0452C32.4114 37.955 32.442 37.8562 32.4525 37.7542C32.4631 37.6523 32.4535 37.5492 32.4243 37.451C32.395 37.3528 32.3467 37.2612 32.2821 37.1817C32.2175 37.1021 32.1379 37.0361 32.0477 36.9873C31.9576 36.9385 31.8587 36.9079 31.7568 36.8973C31.6548 36.8868 31.5518 36.8964 31.4536 36.9256Z" fill="black"/>
<path d="M25 20.3125C24.0729 20.3125 23.1666 20.5874 22.3958 21.1025C21.6249 21.6176 21.0241 22.3496 20.6693 23.2062C20.3145 24.0627 20.2217 25.0052 20.4026 25.9145C20.5834 26.8238 21.0299 27.659 21.6854 28.3146C22.341 28.9701 23.1762 29.4166 24.0855 29.5974C24.9948 29.7783 25.9373 29.6855 26.7938 29.3307C27.6504 28.9759 28.3824 28.3751 28.8975 27.6042C29.4126 26.8334 29.6875 25.9271 29.6875 25C29.6862 23.7572 29.1919 22.5657 28.3131 21.6869C27.4343 20.8081 26.2428 20.3138 25 20.3125ZM25 28.125C24.3819 28.125 23.7777 27.9417 23.2638 27.5983C22.7499 27.255 22.3494 26.7669 22.1129 26.1959C21.8764 25.6249 21.8145 24.9965 21.935 24.3903C22.0556 23.7842 22.3533 23.2273 22.7903 22.7903C23.2273 22.3533 23.7842 22.0556 24.3903 21.935C24.9965 21.8145 25.6249 21.8764 26.1959 22.1129C26.7669 22.3494 27.255 22.7499 27.5983 23.2638C27.9417 23.7777 28.125 24.3819 28.125 25C28.124 25.8285 27.7944 26.6227 27.2086 27.2086C26.6227 27.7944 25.8285 28.124 25 28.125Z" fill="black"/>
<path d="M34.1375 22.5523C34.4197 22.2151 34.5915 21.7994 34.6297 21.3614C34.6679 20.9233 34.5707 20.4841 34.3512 20.1031L33.9164 19.35C33.6966 18.9691 33.3648 18.6651 32.9662 18.4793C32.5675 18.2935 32.1213 18.235 31.6883 18.3117C31.7643 17.8787 31.7055 17.4328 31.5198 17.0343C31.3341 16.6358 31.0304 16.3039 30.65 16.0836L29.8969 15.6488C29.5161 15.4288 29.0767 15.3315 28.6386 15.37C28.2005 15.4086 27.7849 15.5813 27.4484 15.8645C27.2979 15.4512 27.024 15.0942 26.6638 14.8417C26.3037 14.5893 25.8746 14.4536 25.4348 14.4531H24.5652C24.1254 14.4536 23.6963 14.5893 23.3362 14.8417C22.976 15.0942 22.7021 15.4512 22.5516 15.8645C22.2151 15.5813 21.7995 15.4086 21.3614 15.37C20.9233 15.3315 20.4839 15.4288 20.1031 15.6488L19.35 16.0836C18.9695 16.3039 18.6659 16.6358 18.4802 17.0343C18.2946 17.4328 18.2357 17.8787 18.3117 18.3117C17.8787 18.235 17.4325 18.2935 17.0338 18.4793C16.6352 18.6651 16.3034 18.9691 16.0836 19.35L15.6488 20.1031C15.4293 20.4841 15.3321 20.9233 15.3703 21.3614C15.4085 21.7994 15.5803 22.2151 15.8625 22.5523C15.4497 22.7032 15.0932 22.9771 14.8411 23.3371C14.5891 23.6971 14.4536 24.1258 14.4531 24.5652V25.4348C14.4537 25.8742 14.5892 26.3029 14.8412 26.6629C15.0933 27.0229 15.4498 27.2968 15.8625 27.4477C15.5803 27.7849 15.4085 28.2006 15.3703 28.6386C15.3321 29.0767 15.4293 29.5159 15.6488 29.8969L16.0836 30.65C16.3034 31.0309 16.6352 31.3349 17.0338 31.5207C17.4325 31.7065 17.8787 31.765 18.3117 31.6883C18.2357 32.1213 18.2946 32.5672 18.4802 32.9657C18.6659 33.3642 18.9695 33.6961 19.35 33.9164L20.1031 34.3512C20.4839 34.5712 20.9233 34.6685 21.3614 34.63C21.7995 34.5914 22.2151 34.4187 22.5516 34.1355C22.7021 34.5488 22.976 34.9058 23.3362 35.1583C23.6963 35.4107 24.1254 35.5464 24.5652 35.5469H25.4348C25.8746 35.5464 26.3037 35.4107 26.6638 35.1583C27.024 34.9058 27.2979 34.5488 27.4484 34.1355C27.7849 34.4187 28.2005 34.5914 28.6386 34.63C29.0767 34.6685 29.5161 34.5712 29.8969 34.3512L30.65 33.9164C31.0305 33.6961 31.3341 33.3643 31.5198 32.9658C31.7055 32.5672 31.7643 32.1213 31.6883 31.6883C32.1213 31.765 32.5675 31.7065 32.9662 31.5207C33.3648 31.3349 33.6966 31.0309 33.9164 30.65L34.3512 29.8969C34.5707 29.5159 34.6679 29.0767 34.6297 28.6386C34.5915 28.2006 34.4197 27.7849 34.1375 27.4477C34.5503 27.2968 34.9068 27.0229 35.1589 26.6629C35.4109 26.3029 35.5464 25.8742 35.5469 25.4348V24.5652C35.5464 24.1258 35.4109 23.6971 35.1589 23.3371C34.9068 22.9771 34.5503 22.7032 34.1375 22.5523ZM33.9844 25.4348C33.9844 25.5885 33.9233 25.736 33.8146 25.8447C33.7059 25.9534 33.5584 26.0145 33.4047 26.0145H32.3191C32.236 26.6209 32.0774 27.2146 31.8469 27.7816L32.7859 28.3238C32.9191 28.4007 33.0162 28.5273 33.056 28.6758C33.0957 28.8243 33.0749 28.9825 32.998 29.1156L32.5633 29.8687C32.5252 29.9347 32.4746 29.9925 32.4142 30.0389C32.3538 30.0852 32.2849 30.1192 32.2113 30.1389C32.1378 30.1586 32.0611 30.1636 31.9856 30.1537C31.9102 30.1437 31.8374 30.119 31.7715 30.0809L30.8309 29.5379C30.4547 30.0205 30.0205 30.4547 29.5379 30.8309L30.0809 31.7715C30.1577 31.9046 30.1785 32.0628 30.1388 32.2113C30.099 32.3598 30.0019 32.4864 29.8687 32.5633L29.1156 32.998C29.0497 33.0362 28.9769 33.0609 28.9015 33.0709C28.826 33.0808 28.7493 33.0758 28.6758 33.0561C28.6022 33.0364 28.5333 33.0024 28.4729 32.9561C28.4125 32.9097 28.3619 32.8519 28.3238 32.7859L27.7816 31.8469C27.2146 32.0775 26.6209 32.2363 26.0145 32.3195V33.4047C26.0145 33.5584 25.9534 33.7059 25.8447 33.8146C25.736 33.9233 25.5885 33.9844 25.4348 33.9844H24.5652C24.4115 33.9844 24.264 33.9233 24.1553 33.8146C24.0466 33.7059 23.9855 33.5584 23.9855 33.4047V32.3191C23.3791 32.236 22.7854 32.0774 22.2184 31.8469L21.6762 32.7859C21.6381 32.8519 21.5875 32.9097 21.5271 32.9561C21.4667 33.0024 21.3978 33.0364 21.3242 33.0561C21.2507 33.0758 21.174 33.0808 21.0985 33.0709C21.0231 33.0609 20.9503 33.0362 20.8844 32.998L20.1312 32.5633C19.9981 32.4864 19.901 32.3598 19.8612 32.2113C19.8215 32.0628 19.8423 31.9046 19.9191 31.7715L20.4621 30.8309C19.9795 30.4547 19.5453 30.0205 19.1691 29.5379L18.2285 30.0809C18.1626 30.119 18.0898 30.1437 18.0144 30.1537C17.9389 30.1636 17.8622 30.1586 17.7887 30.1389C17.7151 30.1192 17.6462 30.0852 17.5858 30.0389C17.5254 29.9925 17.4748 29.9347 17.4367 29.8687L17.002 29.1156C16.9251 28.9825 16.9043 28.8243 16.944 28.6758C16.9838 28.5273 17.0809 28.4007 17.2141 28.3238L18.1531 27.7816C17.9225 27.2146 17.7637 26.6209 17.6805 26.0145H16.5953C16.4416 26.0145 16.2941 25.9534 16.1854 25.8447C16.0767 25.736 16.0156 25.5885 16.0156 25.4348V24.5652C16.0156 24.4115 16.0767 24.264 16.1854 24.1553C16.2941 24.0466 16.4416 23.9855 16.5953 23.9855H17.6809C17.7639 23.379 17.9226 22.7852 18.1531 22.218L17.2141 21.6762C17.0809 21.5993 16.9838 21.4727 16.944 21.3242C16.9043 21.1757 16.9251 21.0175 17.002 20.8844L17.4367 20.1312C17.4748 20.0653 17.5254 20.0075 17.5858 19.9611C17.6462 19.9148 17.7151 19.8808 17.7887 19.8611C17.8622 19.8414 17.9389 19.8364 18.0144 19.8463C18.0898 19.8563 18.1626 19.881 18.2285 19.9191L19.1691 20.4621C19.5453 19.9795 19.9795 19.5453 20.4621 19.1691L19.9191 18.2285C19.8423 18.0954 19.8215 17.9372 19.8612 17.7887C19.901 17.6402 19.9981 17.5136 20.1312 17.4367L20.8844 17.002C20.9503 16.9638 21.0231 16.9391 21.0985 16.9291C21.174 16.9192 21.2507 16.9242 21.3242 16.9439C21.3978 16.9636 21.4667 16.9976 21.5271 17.0439C21.5875 17.0903 21.6381 17.1481 21.6762 17.2141L22.218 18.1531C22.7851 17.9224 23.3789 17.7637 23.9855 17.6805V16.5953C23.9855 16.4416 24.0466 16.2941 24.1553 16.1854C24.264 16.0767 24.4115 16.0156 24.5652 16.0156H25.4348C25.5885 16.0156 25.736 16.0767 25.8447 16.1854C25.9534 16.2941 26.0145 16.4416 26.0145 16.5953V17.6809C26.6209 17.764 27.2146 17.9226 27.7816 18.1531L28.3238 17.2141C28.3619 17.1481 28.4125 17.0903 28.4729 17.0439C28.5333 16.9976 28.6022 16.9636 28.6758 16.9439C28.7493 16.9242 28.826 16.9192 28.9015 16.9291C28.9769 16.9391 29.0497 16.9638 29.1156 17.002L29.8687 17.4367C30.0019 17.5136 30.099 17.6402 30.1388 17.7887C30.1785 17.9372 30.1577 18.0954 30.0809 18.2285L29.5379 19.1691C30.0205 19.5453 30.4548 19.9795 30.8309 20.4621L31.7715 19.9191C31.8374 19.881 31.9102 19.8563 31.9856 19.8463C32.0611 19.8364 32.1378 19.8414 32.2113 19.8611C32.2849 19.8808 32.3538 19.9148 32.4142 19.9611C32.4746 20.0075 32.5252 20.0653 32.5633 20.1312L32.998 20.8844C33.0749 21.0175 33.0957 21.1757 33.056 21.3242C33.0162 21.4727 32.9191 21.5993 32.7859 21.6762L31.8469 22.2184C32.0775 22.7854 32.2363 23.3791 32.3195 23.9855H33.4047C33.5584 23.9855 33.7059 24.0466 33.8146 24.1553C33.9233 24.264 33.9844 24.4115 33.9844 24.5652V25.4348Z" fill="black"/>
</g>
<defs>
<clipPath id="clip0_9_373">
<rect width="50" height="50" fill="white"/>
</clipPath>
</defs>
</svg>
