<svg width="1440" height="327" viewBox="0 0 1440 327" fill="none" xmlns="http://www.w3.org/2000/svg">
<path d="M810 174.5H1075.52M1075.52 174.5L1185.92 32.8526C1187.82 30.4215 1190.73 29 1193.81 29H1458M1075.52 174.5H1458M1075.52 174.5L1186.77 315.274C1188.17 317.04 1188.92 319.224 1188.92 321.474V715" stroke="url(#paint0_linear_1_3053)"/>
<path d="M630 173.5H364.479M364.479 173.5L253.188 316.289C251.819 318.046 251.076 320.21 251.076 322.437L251.076 721.5M364.479 173.5L-18 173.5M364.479 173.5L254.078 33.7997C252.182 31.3999 249.291 30 246.233 30L-18 30" stroke="url(#paint1_linear_1_3053)"/>
<path d="M366.096 147.727L336.858 154.444C331.744 155.618 328.551 160.716 329.726 165.83L335.925 192.814C337.1 197.928 342.198 201.121 347.311 199.946L376.55 193.229C381.663 192.054 384.856 186.956 383.681 181.843L377.482 154.858C376.307 149.745 371.21 146.552 366.096 147.727Z" fill="white"/>
<path d="M366.096 147.727L336.858 154.444C331.744 155.618 328.551 160.716 329.726 165.83L335.925 192.814C337.1 197.928 342.198 201.121 347.311 199.946L376.55 193.229C381.663 192.054 384.856 186.956 383.681 181.843L377.482 154.858C376.307 149.745 371.21 146.552 366.096 147.727Z" stroke="#E4E7EC"/>
<path d="M343.668 161.601C343.466 161.647 343.291 161.772 343.181 161.948C343.071 162.123 343.035 162.335 343.081 162.537L343.606 164.822L337.512 166.222L337.862 167.745L337.865 167.744L339.964 176.881L339.961 176.882L340.311 178.404L340.314 178.404L342.413 187.541L342.41 187.541L342.759 189.064L348.854 187.664L349.379 189.948C349.425 190.15 349.55 190.325 349.725 190.435C349.901 190.545 350.113 190.581 350.315 190.535L376.203 184.587C376.405 184.541 376.58 184.416 376.69 184.241C376.8 184.065 376.836 183.853 376.79 183.651L375.39 177.56C375.344 177.358 375.219 177.183 375.043 177.073C374.868 176.963 374.656 176.927 374.454 176.973L348.566 182.921C348.364 182.967 348.189 183.092 348.079 183.267C347.969 183.443 347.933 183.655 347.979 183.857L348.504 186.141L343.935 187.191L341.836 178.054L346.405 177.004L346.93 179.288C346.976 179.49 347.101 179.666 347.276 179.776C347.452 179.886 347.664 179.921 347.866 179.875L373.754 173.928C373.956 173.881 374.131 173.756 374.241 173.581C374.351 173.405 374.387 173.193 374.341 172.991L372.941 166.9C372.895 166.698 372.77 166.523 372.595 166.413C372.419 166.303 372.207 166.267 372.005 166.313L346.117 172.261C345.915 172.307 345.74 172.432 345.63 172.608C345.52 172.783 345.484 172.995 345.53 173.197L346.055 175.481L341.487 176.531L339.387 167.394L343.956 166.344L344.481 168.629C344.527 168.831 344.652 169.006 344.827 169.116C345.003 169.226 345.215 169.262 345.417 169.215L371.305 163.268C371.507 163.221 371.682 163.097 371.792 162.921C371.902 162.745 371.938 162.533 371.892 162.331L370.492 156.24C370.446 156.038 370.321 155.863 370.146 155.753C369.97 155.643 369.758 155.607 369.556 155.654L343.668 161.601ZM344.779 162.949L369.144 157.351L370.194 161.92L345.829 167.517L344.779 162.949ZM348.175 163.772L348.524 165.295L359.184 162.846L358.834 161.323L348.175 163.772ZM365.687 159.749C365.485 159.795 365.31 159.92 365.2 160.096C365.09 160.271 365.054 160.483 365.101 160.685C365.147 160.887 365.272 161.062 365.447 161.172C365.623 161.282 365.835 161.318 366.037 161.272C366.239 161.225 366.414 161.101 366.524 160.925C366.634 160.749 366.67 160.537 366.624 160.335C366.577 160.133 366.452 159.958 366.277 159.848C366.101 159.738 365.889 159.702 365.687 159.749ZM347.228 173.609L371.593 168.011L372.643 172.58L348.278 178.177L347.228 173.609ZM350.624 174.432L350.973 175.955L361.633 173.506L361.283 171.983L350.624 174.432ZM368.136 170.409C367.934 170.455 367.759 170.58 367.649 170.755C367.539 170.931 367.503 171.143 367.55 171.345C367.596 171.547 367.721 171.722 367.896 171.832C368.072 171.942 368.284 171.978 368.486 171.931C368.688 171.885 368.863 171.76 368.973 171.585C369.083 171.409 369.119 171.197 369.072 170.995C369.026 170.793 368.901 170.618 368.726 170.508C368.55 170.398 368.338 170.362 368.136 170.409ZM349.677 184.269L374.042 178.671L375.092 183.239L350.727 188.837L349.677 184.269ZM353.072 185.092L353.422 186.615L364.082 184.166L363.732 182.643L353.072 185.092ZM370.585 181.068C370.383 181.115 370.208 181.24 370.098 181.415C369.988 181.591 369.952 181.803 369.999 182.005C370.045 182.207 370.17 182.382 370.345 182.492C370.521 182.602 370.733 182.638 370.935 182.591C371.137 182.545 371.312 182.42 371.422 182.245C371.532 182.069 371.568 181.857 371.521 181.655C371.475 181.453 371.35 181.278 371.175 181.168C370.999 181.058 370.787 181.022 370.585 181.068Z" fill="#475367"/>
<path d="M1229.98 13.1093L1186.75 2.80532C1181.64 1.58876 1176.52 4.73992 1175.3 9.84363L1165.8 49.6959C1164.59 54.7996 1167.74 59.9232 1172.84 61.1398L1216.07 71.4437C1221.17 72.6603 1226.3 69.5091 1227.51 64.4054L1237.01 24.5532C1238.23 19.4494 1235.08 14.3259 1229.98 13.1093Z" fill="white"/>
<path d="M1229.98 13.1093L1186.75 2.80532C1181.64 1.58876 1176.52 4.73992 1175.3 9.84363L1165.8 49.6959C1164.59 54.7996 1167.74 59.9232 1172.84 61.1398L1216.07 71.4437C1221.17 72.6603 1226.3 69.5091 1227.51 64.4054L1237.01 24.5532C1238.23 19.4494 1235.08 14.3259 1229.98 13.1093Z" stroke="#E4E7EC"/>
<path d="M1211.09 30.196C1211.29 30.2441 1211.51 30.2101 1211.68 30.1015C1211.86 29.993 1211.99 29.8188 1212.03 29.6172C1212.08 29.4156 1212.05 29.2033 1211.94 29.0268C1211.83 28.8503 1211.66 28.7241 1211.45 28.6761L1209.93 28.3138L1210.3 26.7939L1211.06 26.975C1211.26 27.0231 1211.47 26.9891 1211.65 26.8805C1211.82 26.772 1211.95 26.5978 1212 26.3962C1212.05 26.1947 1212.01 25.9823 1211.9 25.8058C1211.79 25.6293 1211.62 25.5032 1211.42 25.4551L1210.66 25.274C1210.71 25.0724 1210.67 24.86 1210.56 24.6835C1210.46 24.507 1210.28 24.3809 1210.08 24.3329L1210.26 23.5729C1210.31 23.3713 1210.28 23.159 1210.17 22.9825C1210.06 22.806 1209.88 22.6798 1209.68 22.6318C1209.48 22.5837 1209.27 22.6177 1209.09 22.7263C1208.92 22.8348 1208.79 23.009 1208.74 23.2106L1208.56 23.9706L1207.04 23.6083L1207.4 22.0883C1207.45 21.8868 1207.42 21.6744 1207.31 21.4979C1207.2 21.3214 1207.03 21.1953 1206.82 21.1472C1206.62 21.0992 1206.41 21.1332 1206.23 21.2417C1206.06 21.3503 1205.93 21.5245 1205.88 21.726L1205.52 23.246L1204 22.8837L1204.36 21.3637C1204.41 21.1622 1204.38 20.9498 1204.27 20.7733C1204.16 20.5968 1203.99 20.4707 1203.78 20.4226C1203.58 20.3746 1203.37 20.4086 1203.19 20.5171C1203.02 20.6257 1202.89 20.7999 1202.84 21.0014L1202.48 22.5214L1200.96 22.1591L1201.14 21.3991C1201.19 21.1975 1201.16 20.9852 1201.05 20.8087C1200.94 20.6322 1200.76 20.506 1200.56 20.458C1200.36 20.4099 1200.15 20.4439 1199.97 20.5525C1199.8 20.661 1199.67 20.8352 1199.62 21.0368L1199.44 21.7968C1199.24 21.7487 1199.03 21.7827 1198.85 21.8912C1198.67 21.9998 1198.55 22.174 1198.5 22.3756L1197.83 22.2171C1197.63 22.169 1197.42 22.203 1197.24 22.3116C1197.07 22.4201 1196.94 22.5943 1196.89 22.7959C1196.85 22.9974 1196.88 23.2098 1196.99 23.3863C1197.1 23.5628 1197.27 23.6889 1197.47 23.737L1198.14 23.8955L1197.78 25.4154L1196.26 25.0531C1196.05 25.0051 1195.84 25.039 1195.66 25.1476C1195.49 25.2561 1195.36 25.4303 1195.31 25.6319C1195.27 25.8335 1195.3 26.0458 1195.41 26.2223C1195.52 26.3988 1195.69 26.525 1195.89 26.573L1197.41 26.9353L1197.05 28.4552L1195.53 28.0929C1195.33 28.0449 1195.12 28.0789 1194.94 28.1874C1194.76 28.296 1194.64 28.4702 1194.59 28.6717C1194.54 28.8733 1194.58 29.0857 1194.68 29.2622C1194.79 29.4387 1194.97 29.5648 1195.17 29.6128L1196.69 29.9751L1196.33 31.4951L1195.57 31.3139C1195.36 31.2659 1195.15 31.2999 1194.98 31.4084C1194.8 31.517 1194.67 31.6912 1194.62 31.8927C1194.58 32.0943 1194.61 32.3067 1194.72 32.4831C1194.83 32.6596 1195 32.7858 1195.2 32.8338L1195.96 33.015C1195.92 33.2165 1195.95 33.4289 1196.06 33.6054C1196.17 33.7819 1196.34 33.908 1196.54 33.9561L1196.36 34.716C1196.31 34.9176 1196.35 35.13 1196.46 35.3065C1196.56 35.483 1196.74 35.6091 1196.94 35.6571C1197.14 35.7052 1197.35 35.6712 1197.53 35.5627C1197.71 35.4541 1197.83 35.2799 1197.88 35.0783L1198.06 34.3184L1199.58 34.6807L1199.22 36.2006C1199.17 36.4022 1199.21 36.6145 1199.31 36.791C1199.42 36.9675 1199.6 37.0937 1199.8 37.1417C1200 37.1898 1200.21 37.1558 1200.39 37.0472C1200.57 36.9387 1200.69 36.7645 1200.74 36.5629L1201.1 35.043L1202.62 35.4053L1202.26 36.9252C1202.21 37.1268 1202.25 37.3391 1202.35 37.5156C1202.46 37.6921 1202.64 37.8183 1202.84 37.8663C1203.04 37.9144 1203.25 37.8804 1203.43 37.7718C1203.61 37.6633 1203.73 37.4891 1203.78 37.2875L1204.14 35.7676L1205.66 36.1299L1205.48 36.8898C1205.43 37.0914 1205.47 37.3038 1205.58 37.4803C1205.68 37.6568 1205.86 37.7829 1206.06 37.8309C1206.26 37.879 1206.47 37.845 1206.65 37.7365C1206.83 37.6279 1206.95 37.4537 1207 37.2521L1207.18 36.4922C1207.38 36.5402 1207.6 36.5062 1207.77 36.3977C1207.95 36.2891 1208.08 36.1149 1208.12 35.9134L1208.79 36.0719C1208.99 36.1199 1209.2 36.0859 1209.38 35.9774C1209.55 35.8688 1209.68 35.6946 1209.73 35.4931C1209.78 35.2915 1209.74 35.0791 1209.63 34.9026C1209.53 34.7262 1209.35 34.6 1209.15 34.552L1208.49 34.3935L1208.85 32.8735L1210.37 33.2358C1210.57 33.2839 1210.78 33.2499 1210.96 33.1413C1211.13 33.0328 1211.26 32.8586 1211.31 32.657C1211.36 32.4555 1211.32 32.2431 1211.21 32.0666C1211.11 31.8901 1210.93 31.764 1210.73 31.7159L1209.21 31.3536L1209.57 29.8337L1211.09 30.196ZM1197.66 32.6173L1199.84 23.4978L1208.96 25.6716L1206.78 34.7911L1197.66 32.6173Z" fill="#475367"/>
<path d="M1207.26 26.0698L1201.18 24.6206C1200.98 24.5726 1200.76 24.6066 1200.59 24.7151C1200.41 24.8237 1200.28 24.9979 1200.24 25.1994L1198.79 31.2791C1198.74 31.4806 1198.77 31.693 1198.88 31.8695C1198.99 32.046 1199.16 32.1722 1199.37 32.2202L1205.45 33.6694C1205.65 33.7174 1205.86 33.6835 1206.04 33.5749C1206.21 33.4664 1206.34 33.2921 1206.39 33.0906L1207.84 27.0109C1207.88 26.8094 1207.85 26.597 1207.74 26.4205C1207.63 26.244 1207.46 26.1179 1207.26 26.0698ZM1205.05 31.9683L1200.49 30.8814L1201.57 26.3217L1206.13 27.4086L1205.05 31.9683ZM1184.36 23.8251C1184.3 23.2754 1184.05 22.7639 1183.65 22.3812C1183.26 21.9985 1182.73 21.7692 1182.18 21.7338C1181.63 21.6984 1181.08 21.8592 1180.64 22.1877C1180.19 22.5163 1179.88 22.9915 1179.75 23.5293C1179.62 24.0671 1179.69 24.6329 1179.94 25.1267C1180.19 25.6206 1180.6 26.0106 1181.11 26.2279C1181.62 26.4452 1182.19 26.4757 1182.72 26.3142C1183.25 26.1527 1183.7 25.8094 1184 25.3451L1190.21 26.8254L1190.57 25.3055L1184.36 23.8251ZM1181.85 24.8328C1181.7 24.7969 1181.56 24.7173 1181.46 24.6041C1181.35 24.4908 1181.29 24.3488 1181.26 24.1963C1181.24 24.0437 1181.26 23.8873 1181.32 23.7469C1181.39 23.6065 1181.49 23.4883 1181.62 23.4073C1181.75 23.3264 1181.91 23.2863 1182.06 23.2921C1182.22 23.2979 1182.37 23.3494 1182.49 23.44C1182.62 23.5306 1182.71 23.6563 1182.77 23.8012C1182.82 23.9461 1182.83 24.1037 1182.79 24.254C1182.74 24.4554 1182.62 24.6295 1182.44 24.738C1182.27 24.8465 1182.05 24.8806 1181.85 24.8328ZM1225.13 31.9373C1224.66 31.8256 1224.17 31.8625 1223.72 32.0429C1223.27 32.2233 1222.89 32.5384 1222.62 32.945L1216.41 31.4646L1216.05 32.9845L1222.26 34.4649C1222.31 34.8922 1222.47 35.2988 1222.73 35.6402C1222.99 35.9816 1223.34 36.2448 1223.74 36.4009C1224.14 36.557 1224.57 36.6 1225 36.5253C1225.42 36.4506 1225.82 36.261 1226.14 35.9772C1226.46 35.6934 1226.7 35.3264 1226.83 34.9162C1226.96 34.5061 1226.97 34.0686 1226.86 33.6516C1226.76 33.2346 1226.54 32.8541 1226.24 32.5518C1225.93 32.2495 1225.55 32.0369 1225.13 31.9373ZM1224.41 34.9772C1224.26 34.9413 1224.12 34.8617 1224.02 34.7484C1223.91 34.6352 1223.84 34.4932 1223.82 34.3407C1223.79 34.1881 1223.82 34.0317 1223.88 33.8913C1223.94 33.7508 1224.05 33.6327 1224.18 33.5517C1224.31 33.4708 1224.47 33.4307 1224.62 33.4365C1224.77 33.4423 1224.92 33.4938 1225.05 33.5844C1225.17 33.675 1225.27 33.8007 1225.32 33.9456C1225.38 34.0905 1225.39 34.2481 1225.35 34.3984C1225.3 34.5998 1225.18 34.7739 1225 34.8824C1224.82 34.9909 1224.61 35.025 1224.41 34.9772Z" fill="#475367"/>
<path d="M1219.92 40.3322C1219.45 40.2205 1218.95 40.2573 1218.5 40.4377C1218.05 40.6182 1217.67 40.9333 1217.41 41.3399L1216.52 41.1275L1217.06 38.8477C1217.11 38.6461 1217.07 38.4337 1216.97 38.2572C1216.86 38.0807 1216.68 37.9546 1216.48 37.9065L1213.82 37.2716C1214.97 35.7793 1215.79 34.0587 1216.23 32.2242C1216.67 30.3897 1216.71 28.4833 1216.35 26.6315L1219.02 27.2671C1219.22 27.3152 1219.43 27.2812 1219.61 27.1726C1219.79 27.0641 1219.91 26.8899 1219.96 26.6883L1220.5 24.4084L1221.39 24.6208C1221.45 25.1706 1221.7 25.6821 1222.1 26.0648C1222.5 26.4475 1223.02 26.6768 1223.57 26.7122C1224.13 26.7476 1224.67 26.5868 1225.12 26.2583C1225.56 25.9297 1225.88 25.4545 1226 24.9167C1226.13 24.3789 1226.07 23.8131 1225.82 23.3193C1225.57 22.8254 1225.15 22.4354 1224.65 22.2181C1224.14 22.0008 1223.57 21.9702 1223.04 22.1318C1222.51 22.2933 1222.06 22.6366 1221.76 23.1009L1220.11 22.7074C1219.9 22.6593 1219.69 22.6933 1219.51 22.8019C1219.34 22.9104 1219.21 23.0846 1219.16 23.2862L1218.62 25.5661L1215.9 24.9169C1215.18 22.7803 1213.93 20.8613 1212.27 19.3408C1210.61 17.8203 1208.58 16.7482 1206.39 16.2257C1204.2 15.7032 1201.91 15.7474 1199.74 16.3541C1197.57 16.9609 1195.59 18.1102 1193.99 19.6939L1191.26 19.0447L1191.81 16.7648C1191.85 16.5632 1191.82 16.3509 1191.71 16.1744C1191.6 15.9979 1191.43 15.8717 1191.23 15.8237L1189.58 15.4301C1189.52 14.8803 1189.27 14.3689 1188.87 13.9862C1188.47 13.6035 1187.95 13.3742 1187.4 13.3388C1186.84 13.3034 1186.3 13.4642 1185.85 13.7927C1185.41 14.1213 1185.09 14.5965 1184.97 15.1343C1184.84 15.6721 1184.9 16.2379 1185.15 16.7317C1185.4 17.2255 1185.82 17.6156 1186.32 17.8329C1186.83 18.0502 1187.4 18.0807 1187.93 17.9192C1188.46 17.7576 1188.91 17.4144 1189.21 16.9501L1190.1 17.1624L1189.56 19.4423C1189.51 19.6439 1189.55 19.8563 1189.66 20.0328C1189.76 20.2092 1189.94 20.3354 1190.14 20.3834L1192.81 21.019C1191.65 22.5107 1190.83 24.2309 1190.39 26.0651C1189.95 27.8994 1189.91 29.8058 1190.27 31.6578L1187.6 31.0228C1187.4 30.9748 1187.19 31.0088 1187.01 31.1173C1186.84 31.2259 1186.71 31.4001 1186.66 31.6017L1186.12 33.8815L1185.23 33.6691C1185.17 33.1193 1184.92 32.6079 1184.52 32.2252C1184.12 31.8425 1183.6 31.6132 1183.05 31.5778C1182.5 31.5424 1181.95 31.7032 1181.5 32.0317C1181.06 32.3603 1180.75 32.8355 1180.62 33.3733C1180.49 33.9111 1180.56 34.4769 1180.8 34.9707C1181.05 35.4645 1181.47 35.8546 1181.98 36.0719C1182.48 36.2892 1183.05 36.3197 1183.58 36.1582C1184.11 35.9966 1184.57 35.6534 1184.87 35.189L1186.52 35.5826C1186.72 35.6306 1186.93 35.5966 1187.11 35.4881C1187.28 35.3796 1187.41 35.2053 1187.46 35.0038L1188 32.7239L1190.72 33.372C1190.73 33.4102 1190.74 33.4492 1190.76 33.4864C1191.51 35.6485 1192.8 37.5811 1194.51 39.098L1193.97 41.375L1192.45 41.0127C1192.25 40.9647 1192.04 40.9987 1191.86 41.1072C1191.68 41.2158 1191.56 41.39 1191.51 41.5915L1190.78 44.6314C1190.74 44.8329 1190.77 45.0453 1190.88 45.2218C1190.99 45.3983 1191.16 45.5244 1191.36 45.5725L1190.1 50.8922C1190.05 51.0937 1190.08 51.3061 1190.19 51.4826C1190.3 51.6591 1190.47 51.7853 1190.67 51.8333L1191.49 52.0276C1191.37 53.3368 1191.73 54.6445 1192.5 55.712C1193.26 56.7796 1194.39 57.5356 1195.67 57.8422L1197.19 58.2045C1198.47 58.5075 1199.81 58.3404 1200.98 57.7336C1202.14 57.1269 1203.05 56.1211 1203.54 54.8997L1204.35 55.094C1204.56 55.142 1204.77 55.108 1204.94 54.9995C1205.12 54.891 1205.25 54.7167 1205.29 54.5152L1206.56 49.1955C1206.76 49.2435 1206.98 49.2095 1207.15 49.101C1207.33 48.9924 1207.46 48.8182 1207.5 48.6167L1208.23 45.5768C1208.28 45.3753 1208.24 45.1629 1208.13 44.9864C1208.03 44.8099 1207.85 44.6838 1207.65 44.6357L1206.13 44.2734L1206.67 41.9964C1208.89 41.4153 1210.91 40.2739 1212.56 38.6823C1212.58 38.655 1212.61 38.6255 1212.64 38.5972L1215.36 39.2453L1214.82 41.5252C1214.77 41.7267 1214.8 41.9391 1214.91 42.1156C1215.02 42.2921 1215.19 42.4182 1215.4 42.4663L1217.05 42.8598C1217.09 43.2872 1217.25 43.6938 1217.51 44.0352C1217.78 44.3767 1218.13 44.6398 1218.53 44.7959C1218.93 44.952 1219.36 44.995 1219.78 44.9203C1220.21 44.8455 1220.6 44.6558 1220.92 44.372C1221.25 44.0882 1221.49 43.7211 1221.61 43.311C1221.74 42.9008 1221.76 42.4633 1221.65 42.0463C1221.55 41.6293 1221.33 41.2488 1221.03 40.9465C1220.72 40.6442 1220.34 40.4317 1219.92 40.3322ZM1223.9 23.6131C1224.06 23.649 1224.19 23.7286 1224.3 23.8418C1224.4 23.9551 1224.47 24.0971 1224.5 24.2496C1224.52 24.4022 1224.5 24.5586 1224.43 24.699C1224.37 24.8394 1224.26 24.9576 1224.13 25.0386C1224 25.1195 1223.85 25.1596 1223.69 25.1538C1223.54 25.148 1223.39 25.0965 1223.27 25.0059C1223.14 24.9153 1223.04 24.7896 1222.99 24.6447C1222.94 24.4998 1222.93 24.3422 1222.96 24.1919C1223.01 23.9905 1223.14 23.8165 1223.31 23.708C1223.49 23.5995 1223.7 23.5654 1223.9 23.6131ZM1187.06 16.4378C1186.91 16.402 1186.78 16.3224 1186.67 16.2091C1186.57 16.0958 1186.5 15.9539 1186.47 15.8014C1186.45 15.6488 1186.47 15.4924 1186.54 15.352C1186.6 15.2115 1186.7 15.0934 1186.84 15.0124C1186.97 14.9315 1187.12 14.8914 1187.28 14.8972C1187.43 14.903 1187.58 14.9545 1187.7 15.0451C1187.83 15.1357 1187.92 15.2614 1187.98 15.4063C1188.03 15.5512 1188.04 15.7087 1188.01 15.859C1187.96 16.0604 1187.83 16.2345 1187.65 16.343C1187.48 16.4515 1187.27 16.4856 1187.06 16.4378ZM1182.72 34.6768C1182.57 34.641 1182.43 34.5614 1182.33 34.4481C1182.22 34.3348 1182.15 34.1929 1182.13 34.0403C1182.1 33.8878 1182.12 33.7314 1182.19 33.591C1182.25 33.4505 1182.36 33.3324 1182.49 33.2514C1182.62 33.1705 1182.77 33.1304 1182.93 33.1362C1183.08 33.142 1183.23 33.1935 1183.36 33.2841C1183.48 33.3747 1183.58 33.5004 1183.63 33.6453C1183.68 33.7902 1183.69 33.9477 1183.66 34.098C1183.61 34.2994 1183.48 34.4735 1183.31 34.582C1183.13 34.6905 1182.92 34.7246 1182.72 34.6768ZM1197.55 56.6846L1196.03 56.3223C1195.15 56.1126 1194.38 55.6074 1193.83 54.8919C1193.29 54.1765 1193 53.2946 1193.03 52.3949L1202 54.5324C1201.62 55.3481 1200.97 56.0075 1200.16 56.3996C1199.35 56.7916 1198.43 56.8923 1197.55 56.6846ZM1203.96 53.3929L1191.8 50.4945L1192.88 45.9348L1195.92 46.6594L1195.38 48.9393C1195.33 49.1408 1195.37 49.3532 1195.47 49.5297C1195.58 49.7062 1195.76 49.8323 1195.96 49.8804L1200.52 50.9673C1200.72 51.0153 1200.93 50.9813 1201.11 50.8728C1201.29 50.7642 1201.41 50.59 1201.46 50.3885L1202 48.1086L1205.04 48.8332L1203.96 53.3929ZM1197.08 48.5416L1197.44 47.0217L1200.48 47.7463L1200.12 49.2662L1197.08 48.5416ZM1206.53 45.9745L1206.17 47.4944L1192.49 44.2337L1192.85 42.7138L1206.53 45.9745ZM1211.47 37.5599C1209.91 39.0673 1207.97 40.115 1205.85 40.5873C1205.71 40.6194 1205.58 40.6908 1205.48 40.7936C1205.37 40.8964 1205.3 41.0263 1205.26 41.1686L1204.61 43.9111L1195.49 41.7373L1196.14 38.9948C1196.18 38.8525 1196.17 38.7035 1196.12 38.5647C1196.08 38.426 1195.99 38.3032 1195.88 38.2102C1194.04 36.7046 1192.71 34.6767 1192.05 32.395C1191.39 30.1134 1191.44 27.6856 1192.2 25.4334C1192.95 23.1812 1194.37 21.2107 1196.26 19.7831C1198.16 18.3555 1200.45 17.538 1202.82 17.4391C1205.19 17.3401 1207.54 17.9642 1209.55 19.2289C1211.56 20.4935 1213.14 22.3389 1214.08 24.5206C1215.01 26.7023 1215.27 29.1174 1214.8 31.4459C1214.34 33.7745 1213.17 35.9066 1211.47 37.5599ZM1219.2 43.372C1219.04 43.3362 1218.91 43.2566 1218.8 43.1433C1218.7 43.03 1218.63 42.8881 1218.6 42.7355C1218.58 42.583 1218.6 42.4266 1218.67 42.2862C1218.73 42.1457 1218.84 42.0276 1218.97 41.9466C1219.1 41.8657 1219.25 41.8256 1219.41 41.8314C1219.56 41.8372 1219.71 41.8887 1219.83 41.9793C1219.96 42.0699 1220.05 42.1956 1220.11 42.3405C1220.16 42.4854 1220.17 42.6429 1220.14 42.7932C1220.09 42.9946 1219.96 43.1687 1219.79 43.2772C1219.61 43.3857 1219.4 43.4198 1219.2 43.372Z" fill="#475367"/>
<defs>
<linearGradient id="paint0_linear_1_3053" x1="1134" y1="29" x2="1134" y2="435.5" gradientUnits="userSpaceOnUse">
<stop stop-color="#E4E7EC"/>
<stop offset="1" stop-color="#E4E7EC" stop-opacity="0"/>
</linearGradient>
<linearGradient id="paint1_linear_1_3053" x1="306" y1="30" x2="306" y2="435.5" gradientUnits="userSpaceOnUse">
<stop stop-color="#E4E7EC"/>
<stop offset="1" stop-color="#E4E7EC" stop-opacity="0"/>
</linearGradient>
</defs>
</svg>
