<svg width="1392" height="292" viewBox="0 0 1392 292" fill="none" xmlns="http://www.w3.org/2000/svg">
<path fill-rule="evenodd" clip-rule="evenodd" d="M52 -8H-46V90H52V-8ZM-47 -9V91H53V-9H-47Z" fill="url(#paint0_radial_95_956)"/>
<path fill-rule="evenodd" clip-rule="evenodd" d="M151 -8H53V90H151V-8ZM52 -9V91H152V-9H52Z" fill="url(#paint1_radial_95_956)"/>
<path fill-rule="evenodd" clip-rule="evenodd" d="M250 -8H152V90H250V-8ZM151 -9V91H251V-9H151Z" fill="url(#paint2_radial_95_956)"/>
<path fill-rule="evenodd" clip-rule="evenodd" d="M349 -8H251V90H349V-8ZM250 -9V91H350V-9H250Z" fill="url(#paint3_radial_95_956)"/>
<path fill-rule="evenodd" clip-rule="evenodd" d="M448 -8H350V90H448V-8ZM349 -9V91H449V-9H349Z" fill="url(#paint4_radial_95_956)"/>
<path fill-rule="evenodd" clip-rule="evenodd" d="M547 -8H449V90H547V-8ZM448 -9V91H548V-9H448Z" fill="url(#paint5_radial_95_956)"/>
<path fill-rule="evenodd" clip-rule="evenodd" d="M646 -8H548V90H646V-8ZM547 -9V91H647V-9H547Z" fill="url(#paint6_radial_95_956)"/>
<path fill-rule="evenodd" clip-rule="evenodd" d="M745 -8H647V90H745V-8ZM646 -9V91H746V-9H646Z" fill="url(#paint7_radial_95_956)"/>
<path fill-rule="evenodd" clip-rule="evenodd" d="M844 -8H746V90H844V-8ZM745 -9V91H845V-9H745Z" fill="url(#paint8_radial_95_956)"/>
<path fill-rule="evenodd" clip-rule="evenodd" d="M943 -8H845V90H943V-8ZM844 -9V91H944V-9H844Z" fill="url(#paint9_radial_95_956)"/>
<path fill-rule="evenodd" clip-rule="evenodd" d="M1042 -8H944V90H1042V-8ZM943 -9V91H1043V-9H943Z" fill="url(#paint10_radial_95_956)"/>
<path fill-rule="evenodd" clip-rule="evenodd" d="M1141 -8H1043V90H1141V-8ZM1042 -9V91H1142V-9H1042Z" fill="url(#paint11_radial_95_956)"/>
<path fill-rule="evenodd" clip-rule="evenodd" d="M1240 -8H1142V90H1240V-8ZM1141 -9V91H1241V-9H1141Z" fill="url(#paint12_radial_95_956)"/>
<path fill-rule="evenodd" clip-rule="evenodd" d="M1339 -8H1241V90H1339V-8ZM1240 -9V91H1340V-9H1240Z" fill="url(#paint13_radial_95_956)"/>
<path fill-rule="evenodd" clip-rule="evenodd" d="M1438 -8H1340V90H1438V-8ZM1339 -9V91H1439V-9H1339Z" fill="url(#paint14_radial_95_956)"/>
<path fill-rule="evenodd" clip-rule="evenodd" d="M52 91H-46V189H52V91ZM-47 90V190H53V90H-47Z" fill="url(#paint15_radial_95_956)"/>
<path fill-rule="evenodd" clip-rule="evenodd" d="M151 91H53V189H151V91ZM52 90V190H152V90H52Z" fill="url(#paint16_radial_95_956)"/>
<path fill-rule="evenodd" clip-rule="evenodd" d="M250 91H152V189H250V91ZM151 90V190H251V90H151Z" fill="url(#paint17_radial_95_956)"/>
<path fill-rule="evenodd" clip-rule="evenodd" d="M349 91H251V189H349V91ZM250 90V190H350V90H250Z" fill="url(#paint18_radial_95_956)"/>
<path fill-rule="evenodd" clip-rule="evenodd" d="M448 91H350V189H448V91ZM349 90V190H449V90H349Z" fill="url(#paint19_radial_95_956)"/>
<path fill-rule="evenodd" clip-rule="evenodd" d="M547 91H449V189H547V91ZM448 90V190H548V90H448Z" fill="url(#paint20_radial_95_956)"/>
<path fill-rule="evenodd" clip-rule="evenodd" d="M646 91H548V189H646V91ZM547 90V190H647V90H547Z" fill="url(#paint21_radial_95_956)"/>
<path fill-rule="evenodd" clip-rule="evenodd" d="M745 91H647V189H745V91ZM646 90V190H746V90H646Z" fill="url(#paint22_radial_95_956)"/>
<path fill-rule="evenodd" clip-rule="evenodd" d="M844 91H746V189H844V91ZM745 90V190H845V90H745Z" fill="url(#paint23_radial_95_956)"/>
<path fill-rule="evenodd" clip-rule="evenodd" d="M943 91H845V189H943V91ZM844 90V190H944V90H844Z" fill="url(#paint24_radial_95_956)"/>
<path fill-rule="evenodd" clip-rule="evenodd" d="M1042 91H944V189H1042V91ZM943 90V190H1043V90H943Z" fill="url(#paint25_radial_95_956)"/>
<path fill-rule="evenodd" clip-rule="evenodd" d="M1141 91H1043V189H1141V91ZM1042 90V190H1142V90H1042Z" fill="url(#paint26_radial_95_956)"/>
<path fill-rule="evenodd" clip-rule="evenodd" d="M1240 91H1142V189H1240V91ZM1141 90V190H1241V90H1141Z" fill="url(#paint27_radial_95_956)"/>
<path fill-rule="evenodd" clip-rule="evenodd" d="M1339 91H1241V189H1339V91ZM1240 90V190H1340V90H1240Z" fill="url(#paint28_radial_95_956)"/>
<path fill-rule="evenodd" clip-rule="evenodd" d="M1438 91H1340V189H1438V91ZM1339 90V190H1439V90H1339Z" fill="url(#paint29_radial_95_956)"/>
<path fill-rule="evenodd" clip-rule="evenodd" d="M52 190H-46V288H52V190ZM-47 189V289H53V189H-47Z" fill="url(#paint30_radial_95_956)"/>
<path fill-rule="evenodd" clip-rule="evenodd" d="M151 190H53V288H151V190ZM52 189V289H152V189H52Z" fill="url(#paint31_radial_95_956)"/>
<path fill-rule="evenodd" clip-rule="evenodd" d="M250 190H152V288H250V190ZM151 189V289H251V189H151Z" fill="url(#paint32_radial_95_956)"/>
<path fill-rule="evenodd" clip-rule="evenodd" d="M349 190H251V288H349V190ZM250 189V289H350V189H250Z" fill="url(#paint33_radial_95_956)"/>
<path fill-rule="evenodd" clip-rule="evenodd" d="M448 190H350V288H448V190ZM349 189V289H449V189H349Z" fill="url(#paint34_radial_95_956)"/>
<path fill-rule="evenodd" clip-rule="evenodd" d="M547 190H449V288H547V190ZM448 189V289H548V189H448Z" fill="url(#paint35_radial_95_956)"/>
<path fill-rule="evenodd" clip-rule="evenodd" d="M646 190H548V288H646V190ZM547 189V289H647V189H547Z" fill="url(#paint36_radial_95_956)"/>
<path fill-rule="evenodd" clip-rule="evenodd" d="M745 190H647V288H745V190ZM646 189V289H746V189H646Z" fill="url(#paint37_radial_95_956)"/>
<path fill-rule="evenodd" clip-rule="evenodd" d="M844 190H746V288H844V190ZM745 189V289H845V189H745Z" fill="url(#paint38_radial_95_956)"/>
<path fill-rule="evenodd" clip-rule="evenodd" d="M943 190H845V288H943V190ZM844 189V289H944V189H844Z" fill="url(#paint39_radial_95_956)"/>
<path fill-rule="evenodd" clip-rule="evenodd" d="M1042 190H944V288H1042V190ZM943 189V289H1043V189H943Z" fill="url(#paint40_radial_95_956)"/>
<path fill-rule="evenodd" clip-rule="evenodd" d="M1141 190H1043V288H1141V190ZM1042 189V289H1142V189H1042Z" fill="url(#paint41_radial_95_956)"/>
<path fill-rule="evenodd" clip-rule="evenodd" d="M1240 190H1142V288H1240V190ZM1141 189V289H1241V189H1141Z" fill="url(#paint42_radial_95_956)"/>
<path fill-rule="evenodd" clip-rule="evenodd" d="M1339 190H1241V288H1339V190ZM1240 189V289H1340V189H1240Z" fill="url(#paint43_radial_95_956)"/>
<path fill-rule="evenodd" clip-rule="evenodd" d="M1438 190H1340V288H1438V190ZM1339 189V289H1439V189H1339Z" fill="url(#paint44_radial_95_956)"/>
<path fill-rule="evenodd" clip-rule="evenodd" d="M52 289H-46V387H52V289ZM-47 288V388H53V288H-47Z" fill="url(#paint45_radial_95_956)"/>
<path fill-rule="evenodd" clip-rule="evenodd" d="M151 289H53V387H151V289ZM52 288V388H152V288H52Z" fill="url(#paint46_radial_95_956)"/>
<path fill-rule="evenodd" clip-rule="evenodd" d="M250 289H152V387H250V289ZM151 288V388H251V288H151Z" fill="url(#paint47_radial_95_956)"/>
<path fill-rule="evenodd" clip-rule="evenodd" d="M349 289H251V387H349V289ZM250 288V388H350V288H250Z" fill="url(#paint48_radial_95_956)"/>
<path fill-rule="evenodd" clip-rule="evenodd" d="M448 289H350V387H448V289ZM349 288V388H449V288H349Z" fill="url(#paint49_radial_95_956)"/>
<path fill-rule="evenodd" clip-rule="evenodd" d="M547 289H449V387H547V289ZM448 288V388H548V288H448Z" fill="url(#paint50_radial_95_956)"/>
<path fill-rule="evenodd" clip-rule="evenodd" d="M646 289H548V387H646V289ZM547 288V388H647V288H547Z" fill="url(#paint51_radial_95_956)"/>
<path fill-rule="evenodd" clip-rule="evenodd" d="M745 289H647V387H745V289ZM646 288V388H746V288H646Z" fill="url(#paint52_radial_95_956)"/>
<path fill-rule="evenodd" clip-rule="evenodd" d="M844 289H746V387H844V289ZM745 288V388H845V288H745Z" fill="url(#paint53_radial_95_956)"/>
<path fill-rule="evenodd" clip-rule="evenodd" d="M943 289H845V387H943V289ZM844 288V388H944V288H844Z" fill="url(#paint54_radial_95_956)"/>
<path fill-rule="evenodd" clip-rule="evenodd" d="M1042 289H944V387H1042V289ZM943 288V388H1043V288H943Z" fill="url(#paint55_radial_95_956)"/>
<path fill-rule="evenodd" clip-rule="evenodd" d="M1141 289H1043V387H1141V289ZM1042 288V388H1142V288H1042Z" fill="url(#paint56_radial_95_956)"/>
<path fill-rule="evenodd" clip-rule="evenodd" d="M1240 289H1142V387H1240V289ZM1141 288V388H1241V288H1141Z" fill="url(#paint57_radial_95_956)"/>
<path fill-rule="evenodd" clip-rule="evenodd" d="M1339 289H1241V387H1339V289ZM1240 288V388H1340V288H1240Z" fill="url(#paint58_radial_95_956)"/>
<path fill-rule="evenodd" clip-rule="evenodd" d="M1438 289H1340V387H1438V289ZM1339 288V388H1439V288H1339Z" fill="url(#paint59_radial_95_956)"/>
<defs>
<radialGradient id="paint0_radial_95_956" cx="0" cy="0" r="1" gradientUnits="userSpaceOnUse" gradientTransform="translate(696 189.5) rotate(0.0627555) scale(456.5 121.959)">
<stop offset="0.75" stop-color="#344054" stop-opacity="0.8"/>
<stop offset="1" stop-color="#344054" stop-opacity="0.2"/>
</radialGradient>
<radialGradient id="paint1_radial_95_956" cx="0" cy="0" r="1" gradientUnits="userSpaceOnUse" gradientTransform="translate(696 189.5) rotate(0.0627555) scale(456.5 121.959)">
<stop offset="0.75" stop-color="#344054" stop-opacity="0.8"/>
<stop offset="1" stop-color="#344054" stop-opacity="0.2"/>
</radialGradient>
<radialGradient id="paint2_radial_95_956" cx="0" cy="0" r="1" gradientUnits="userSpaceOnUse" gradientTransform="translate(696 189.5) rotate(0.0627555) scale(456.5 121.959)">
<stop offset="0.75" stop-color="#344054" stop-opacity="0.8"/>
<stop offset="1" stop-color="#344054" stop-opacity="0.2"/>
</radialGradient>
<radialGradient id="paint3_radial_95_956" cx="0" cy="0" r="1" gradientUnits="userSpaceOnUse" gradientTransform="translate(696 189.5) rotate(0.0627555) scale(456.5 121.959)">
<stop offset="0.75" stop-color="#344054" stop-opacity="0.8"/>
<stop offset="1" stop-color="#344054" stop-opacity="0.2"/>
</radialGradient>
<radialGradient id="paint4_radial_95_956" cx="0" cy="0" r="1" gradientUnits="userSpaceOnUse" gradientTransform="translate(696 189.5) rotate(0.0627555) scale(456.5 121.959)">
<stop offset="0.75" stop-color="#344054" stop-opacity="0.8"/>
<stop offset="1" stop-color="#344054" stop-opacity="0.2"/>
</radialGradient>
<radialGradient id="paint5_radial_95_956" cx="0" cy="0" r="1" gradientUnits="userSpaceOnUse" gradientTransform="translate(696 189.5) rotate(0.0627555) scale(456.5 121.959)">
<stop offset="0.75" stop-color="#344054" stop-opacity="0.8"/>
<stop offset="1" stop-color="#344054" stop-opacity="0.2"/>
</radialGradient>
<radialGradient id="paint6_radial_95_956" cx="0" cy="0" r="1" gradientUnits="userSpaceOnUse" gradientTransform="translate(696 189.5) rotate(0.0627555) scale(456.5 121.959)">
<stop offset="0.75" stop-color="#344054" stop-opacity="0.8"/>
<stop offset="1" stop-color="#344054" stop-opacity="0.2"/>
</radialGradient>
<radialGradient id="paint7_radial_95_956" cx="0" cy="0" r="1" gradientUnits="userSpaceOnUse" gradientTransform="translate(696 189.5) rotate(0.0627555) scale(456.5 121.959)">
<stop offset="0.75" stop-color="#344054" stop-opacity="0.8"/>
<stop offset="1" stop-color="#344054" stop-opacity="0.2"/>
</radialGradient>
<radialGradient id="paint8_radial_95_956" cx="0" cy="0" r="1" gradientUnits="userSpaceOnUse" gradientTransform="translate(696 189.5) rotate(0.0627555) scale(456.5 121.959)">
<stop offset="0.75" stop-color="#344054" stop-opacity="0.8"/>
<stop offset="1" stop-color="#344054" stop-opacity="0.2"/>
</radialGradient>
<radialGradient id="paint9_radial_95_956" cx="0" cy="0" r="1" gradientUnits="userSpaceOnUse" gradientTransform="translate(696 189.5) rotate(0.0627555) scale(456.5 121.959)">
<stop offset="0.75" stop-color="#344054" stop-opacity="0.8"/>
<stop offset="1" stop-color="#344054" stop-opacity="0.2"/>
</radialGradient>
<radialGradient id="paint10_radial_95_956" cx="0" cy="0" r="1" gradientUnits="userSpaceOnUse" gradientTransform="translate(696 189.5) rotate(0.0627555) scale(456.5 121.959)">
<stop offset="0.75" stop-color="#344054" stop-opacity="0.8"/>
<stop offset="1" stop-color="#344054" stop-opacity="0.2"/>
</radialGradient>
<radialGradient id="paint11_radial_95_956" cx="0" cy="0" r="1" gradientUnits="userSpaceOnUse" gradientTransform="translate(696 189.5) rotate(0.0627555) scale(456.5 121.959)">
<stop offset="0.75" stop-color="#344054" stop-opacity="0.8"/>
<stop offset="1" stop-color="#344054" stop-opacity="0.2"/>
</radialGradient>
<radialGradient id="paint12_radial_95_956" cx="0" cy="0" r="1" gradientUnits="userSpaceOnUse" gradientTransform="translate(696 189.5) rotate(0.0627555) scale(456.5 121.959)">
<stop offset="0.75" stop-color="#344054" stop-opacity="0.8"/>
<stop offset="1" stop-color="#344054" stop-opacity="0.2"/>
</radialGradient>
<radialGradient id="paint13_radial_95_956" cx="0" cy="0" r="1" gradientUnits="userSpaceOnUse" gradientTransform="translate(696 189.5) rotate(0.0627555) scale(456.5 121.959)">
<stop offset="0.75" stop-color="#344054" stop-opacity="0.8"/>
<stop offset="1" stop-color="#344054" stop-opacity="0.2"/>
</radialGradient>
<radialGradient id="paint14_radial_95_956" cx="0" cy="0" r="1" gradientUnits="userSpaceOnUse" gradientTransform="translate(696 189.5) rotate(0.0627555) scale(456.5 121.959)">
<stop offset="0.75" stop-color="#344054" stop-opacity="0.8"/>
<stop offset="1" stop-color="#344054" stop-opacity="0.2"/>
</radialGradient>
<radialGradient id="paint15_radial_95_956" cx="0" cy="0" r="1" gradientUnits="userSpaceOnUse" gradientTransform="translate(696 189.5) rotate(0.0627555) scale(456.5 121.959)">
<stop offset="0.75" stop-color="#344054" stop-opacity="0.8"/>
<stop offset="1" stop-color="#344054" stop-opacity="0.2"/>
</radialGradient>
<radialGradient id="paint16_radial_95_956" cx="0" cy="0" r="1" gradientUnits="userSpaceOnUse" gradientTransform="translate(696 189.5) rotate(0.0627555) scale(456.5 121.959)">
<stop offset="0.75" stop-color="#344054" stop-opacity="0.8"/>
<stop offset="1" stop-color="#344054" stop-opacity="0.2"/>
</radialGradient>
<radialGradient id="paint17_radial_95_956" cx="0" cy="0" r="1" gradientUnits="userSpaceOnUse" gradientTransform="translate(696 189.5) rotate(0.0627555) scale(456.5 121.959)">
<stop offset="0.75" stop-color="#344054" stop-opacity="0.8"/>
<stop offset="1" stop-color="#344054" stop-opacity="0.2"/>
</radialGradient>
<radialGradient id="paint18_radial_95_956" cx="0" cy="0" r="1" gradientUnits="userSpaceOnUse" gradientTransform="translate(696 189.5) rotate(0.0627555) scale(456.5 121.959)">
<stop offset="0.75" stop-color="#344054" stop-opacity="0.8"/>
<stop offset="1" stop-color="#344054" stop-opacity="0.2"/>
</radialGradient>
<radialGradient id="paint19_radial_95_956" cx="0" cy="0" r="1" gradientUnits="userSpaceOnUse" gradientTransform="translate(696 189.5) rotate(0.0627555) scale(456.5 121.959)">
<stop offset="0.75" stop-color="#344054" stop-opacity="0.8"/>
<stop offset="1" stop-color="#344054" stop-opacity="0.2"/>
</radialGradient>
<radialGradient id="paint20_radial_95_956" cx="0" cy="0" r="1" gradientUnits="userSpaceOnUse" gradientTransform="translate(696 189.5) rotate(0.0627555) scale(456.5 121.959)">
<stop offset="0.75" stop-color="#344054" stop-opacity="0.8"/>
<stop offset="1" stop-color="#344054" stop-opacity="0.2"/>
</radialGradient>
<radialGradient id="paint21_radial_95_956" cx="0" cy="0" r="1" gradientUnits="userSpaceOnUse" gradientTransform="translate(696 189.5) rotate(0.0627555) scale(456.5 121.959)">
<stop offset="0.75" stop-color="#344054" stop-opacity="0.8"/>
<stop offset="1" stop-color="#344054" stop-opacity="0.2"/>
</radialGradient>
<radialGradient id="paint22_radial_95_956" cx="0" cy="0" r="1" gradientUnits="userSpaceOnUse" gradientTransform="translate(696 189.5) rotate(0.0627555) scale(456.5 121.959)">
<stop offset="0.75" stop-color="#344054" stop-opacity="0.8"/>
<stop offset="1" stop-color="#344054" stop-opacity="0.2"/>
</radialGradient>
<radialGradient id="paint23_radial_95_956" cx="0" cy="0" r="1" gradientUnits="userSpaceOnUse" gradientTransform="translate(696 189.5) rotate(0.0627555) scale(456.5 121.959)">
<stop offset="0.75" stop-color="#344054" stop-opacity="0.8"/>
<stop offset="1" stop-color="#344054" stop-opacity="0.2"/>
</radialGradient>
<radialGradient id="paint24_radial_95_956" cx="0" cy="0" r="1" gradientUnits="userSpaceOnUse" gradientTransform="translate(696 189.5) rotate(0.0627555) scale(456.5 121.959)">
<stop offset="0.75" stop-color="#344054" stop-opacity="0.8"/>
<stop offset="1" stop-color="#344054" stop-opacity="0.2"/>
</radialGradient>
<radialGradient id="paint25_radial_95_956" cx="0" cy="0" r="1" gradientUnits="userSpaceOnUse" gradientTransform="translate(696 189.5) rotate(0.0627555) scale(456.5 121.959)">
<stop offset="0.75" stop-color="#344054" stop-opacity="0.8"/>
<stop offset="1" stop-color="#344054" stop-opacity="0.2"/>
</radialGradient>
<radialGradient id="paint26_radial_95_956" cx="0" cy="0" r="1" gradientUnits="userSpaceOnUse" gradientTransform="translate(696 189.5) rotate(0.0627555) scale(456.5 121.959)">
<stop offset="0.75" stop-color="#344054" stop-opacity="0.8"/>
<stop offset="1" stop-color="#344054" stop-opacity="0.2"/>
</radialGradient>
<radialGradient id="paint27_radial_95_956" cx="0" cy="0" r="1" gradientUnits="userSpaceOnUse" gradientTransform="translate(696 189.5) rotate(0.0627555) scale(456.5 121.959)">
<stop offset="0.75" stop-color="#344054" stop-opacity="0.8"/>
<stop offset="1" stop-color="#344054" stop-opacity="0.2"/>
</radialGradient>
<radialGradient id="paint28_radial_95_956" cx="0" cy="0" r="1" gradientUnits="userSpaceOnUse" gradientTransform="translate(696 189.5) rotate(0.0627555) scale(456.5 121.959)">
<stop offset="0.75" stop-color="#344054" stop-opacity="0.8"/>
<stop offset="1" stop-color="#344054" stop-opacity="0.2"/>
</radialGradient>
<radialGradient id="paint29_radial_95_956" cx="0" cy="0" r="1" gradientUnits="userSpaceOnUse" gradientTransform="translate(696 189.5) rotate(0.0627555) scale(456.5 121.959)">
<stop offset="0.75" stop-color="#344054" stop-opacity="0.8"/>
<stop offset="1" stop-color="#344054" stop-opacity="0.2"/>
</radialGradient>
<radialGradient id="paint30_radial_95_956" cx="0" cy="0" r="1" gradientUnits="userSpaceOnUse" gradientTransform="translate(696 189.5) rotate(0.0627555) scale(456.5 121.959)">
<stop offset="0.75" stop-color="#344054" stop-opacity="0.8"/>
<stop offset="1" stop-color="#344054" stop-opacity="0.2"/>
</radialGradient>
<radialGradient id="paint31_radial_95_956" cx="0" cy="0" r="1" gradientUnits="userSpaceOnUse" gradientTransform="translate(696 189.5) rotate(0.0627555) scale(456.5 121.959)">
<stop offset="0.75" stop-color="#344054" stop-opacity="0.8"/>
<stop offset="1" stop-color="#344054" stop-opacity="0.2"/>
</radialGradient>
<radialGradient id="paint32_radial_95_956" cx="0" cy="0" r="1" gradientUnits="userSpaceOnUse" gradientTransform="translate(696 189.5) rotate(0.0627555) scale(456.5 121.959)">
<stop offset="0.75" stop-color="#344054" stop-opacity="0.8"/>
<stop offset="1" stop-color="#344054" stop-opacity="0.2"/>
</radialGradient>
<radialGradient id="paint33_radial_95_956" cx="0" cy="0" r="1" gradientUnits="userSpaceOnUse" gradientTransform="translate(696 189.5) rotate(0.0627555) scale(456.5 121.959)">
<stop offset="0.75" stop-color="#344054" stop-opacity="0.8"/>
<stop offset="1" stop-color="#344054" stop-opacity="0.2"/>
</radialGradient>
<radialGradient id="paint34_radial_95_956" cx="0" cy="0" r="1" gradientUnits="userSpaceOnUse" gradientTransform="translate(696 189.5) rotate(0.0627555) scale(456.5 121.959)">
<stop offset="0.75" stop-color="#344054" stop-opacity="0.8"/>
<stop offset="1" stop-color="#344054" stop-opacity="0.2"/>
</radialGradient>
<radialGradient id="paint35_radial_95_956" cx="0" cy="0" r="1" gradientUnits="userSpaceOnUse" gradientTransform="translate(696 189.5) rotate(0.0627555) scale(456.5 121.959)">
<stop offset="0.75" stop-color="#344054" stop-opacity="0.8"/>
<stop offset="1" stop-color="#344054" stop-opacity="0.2"/>
</radialGradient>
<radialGradient id="paint36_radial_95_956" cx="0" cy="0" r="1" gradientUnits="userSpaceOnUse" gradientTransform="translate(696 189.5) rotate(0.0627555) scale(456.5 121.959)">
<stop offset="0.75" stop-color="#344054" stop-opacity="0.8"/>
<stop offset="1" stop-color="#344054" stop-opacity="0.2"/>
</radialGradient>
<radialGradient id="paint37_radial_95_956" cx="0" cy="0" r="1" gradientUnits="userSpaceOnUse" gradientTransform="translate(696 189.5) rotate(0.0627555) scale(456.5 121.959)">
<stop offset="0.75" stop-color="#344054" stop-opacity="0.8"/>
<stop offset="1" stop-color="#344054" stop-opacity="0.2"/>
</radialGradient>
<radialGradient id="paint38_radial_95_956" cx="0" cy="0" r="1" gradientUnits="userSpaceOnUse" gradientTransform="translate(696 189.5) rotate(0.0627555) scale(456.5 121.959)">
<stop offset="0.75" stop-color="#344054" stop-opacity="0.8"/>
<stop offset="1" stop-color="#344054" stop-opacity="0.2"/>
</radialGradient>
<radialGradient id="paint39_radial_95_956" cx="0" cy="0" r="1" gradientUnits="userSpaceOnUse" gradientTransform="translate(696 189.5) rotate(0.0627555) scale(456.5 121.959)">
<stop offset="0.75" stop-color="#344054" stop-opacity="0.8"/>
<stop offset="1" stop-color="#344054" stop-opacity="0.2"/>
</radialGradient>
<radialGradient id="paint40_radial_95_956" cx="0" cy="0" r="1" gradientUnits="userSpaceOnUse" gradientTransform="translate(696 189.5) rotate(0.0627555) scale(456.5 121.959)">
<stop offset="0.75" stop-color="#344054" stop-opacity="0.8"/>
<stop offset="1" stop-color="#344054" stop-opacity="0.2"/>
</radialGradient>
<radialGradient id="paint41_radial_95_956" cx="0" cy="0" r="1" gradientUnits="userSpaceOnUse" gradientTransform="translate(696 189.5) rotate(0.0627555) scale(456.5 121.959)">
<stop offset="0.75" stop-color="#344054" stop-opacity="0.8"/>
<stop offset="1" stop-color="#344054" stop-opacity="0.2"/>
</radialGradient>
<radialGradient id="paint42_radial_95_956" cx="0" cy="0" r="1" gradientUnits="userSpaceOnUse" gradientTransform="translate(696 189.5) rotate(0.0627555) scale(456.5 121.959)">
<stop offset="0.75" stop-color="#344054" stop-opacity="0.8"/>
<stop offset="1" stop-color="#344054" stop-opacity="0.2"/>
</radialGradient>
<radialGradient id="paint43_radial_95_956" cx="0" cy="0" r="1" gradientUnits="userSpaceOnUse" gradientTransform="translate(696 189.5) rotate(0.0627555) scale(456.5 121.959)">
<stop offset="0.75" stop-color="#344054" stop-opacity="0.8"/>
<stop offset="1" stop-color="#344054" stop-opacity="0.2"/>
</radialGradient>
<radialGradient id="paint44_radial_95_956" cx="0" cy="0" r="1" gradientUnits="userSpaceOnUse" gradientTransform="translate(696 189.5) rotate(0.0627555) scale(456.5 121.959)">
<stop offset="0.75" stop-color="#344054" stop-opacity="0.8"/>
<stop offset="1" stop-color="#344054" stop-opacity="0.2"/>
</radialGradient>
<radialGradient id="paint45_radial_95_956" cx="0" cy="0" r="1" gradientUnits="userSpaceOnUse" gradientTransform="translate(696 189.5) rotate(0.0627555) scale(456.5 121.959)">
<stop offset="0.75" stop-color="#344054" stop-opacity="0.8"/>
<stop offset="1" stop-color="#344054" stop-opacity="0.2"/>
</radialGradient>
<radialGradient id="paint46_radial_95_956" cx="0" cy="0" r="1" gradientUnits="userSpaceOnUse" gradientTransform="translate(696 189.5) rotate(0.0627555) scale(456.5 121.959)">
<stop offset="0.75" stop-color="#344054" stop-opacity="0.8"/>
<stop offset="1" stop-color="#344054" stop-opacity="0.2"/>
</radialGradient>
<radialGradient id="paint47_radial_95_956" cx="0" cy="0" r="1" gradientUnits="userSpaceOnUse" gradientTransform="translate(696 189.5) rotate(0.0627555) scale(456.5 121.959)">
<stop offset="0.75" stop-color="#344054" stop-opacity="0.8"/>
<stop offset="1" stop-color="#344054" stop-opacity="0.2"/>
</radialGradient>
<radialGradient id="paint48_radial_95_956" cx="0" cy="0" r="1" gradientUnits="userSpaceOnUse" gradientTransform="translate(696 189.5) rotate(0.0627555) scale(456.5 121.959)">
<stop offset="0.75" stop-color="#344054" stop-opacity="0.8"/>
<stop offset="1" stop-color="#344054" stop-opacity="0.2"/>
</radialGradient>
<radialGradient id="paint49_radial_95_956" cx="0" cy="0" r="1" gradientUnits="userSpaceOnUse" gradientTransform="translate(696 189.5) rotate(0.0627555) scale(456.5 121.959)">
<stop offset="0.75" stop-color="#344054" stop-opacity="0.8"/>
<stop offset="1" stop-color="#344054" stop-opacity="0.2"/>
</radialGradient>
<radialGradient id="paint50_radial_95_956" cx="0" cy="0" r="1" gradientUnits="userSpaceOnUse" gradientTransform="translate(696 189.5) rotate(0.0627555) scale(456.5 121.959)">
<stop offset="0.75" stop-color="#344054" stop-opacity="0.8"/>
<stop offset="1" stop-color="#344054" stop-opacity="0.2"/>
</radialGradient>
<radialGradient id="paint51_radial_95_956" cx="0" cy="0" r="1" gradientUnits="userSpaceOnUse" gradientTransform="translate(696 189.5) rotate(0.0627555) scale(456.5 121.959)">
<stop offset="0.75" stop-color="#344054" stop-opacity="0.8"/>
<stop offset="1" stop-color="#344054" stop-opacity="0.2"/>
</radialGradient>
<radialGradient id="paint52_radial_95_956" cx="0" cy="0" r="1" gradientUnits="userSpaceOnUse" gradientTransform="translate(696 189.5) rotate(0.0627555) scale(456.5 121.959)">
<stop offset="0.75" stop-color="#344054" stop-opacity="0.8"/>
<stop offset="1" stop-color="#344054" stop-opacity="0.2"/>
</radialGradient>
<radialGradient id="paint53_radial_95_956" cx="0" cy="0" r="1" gradientUnits="userSpaceOnUse" gradientTransform="translate(696 189.5) rotate(0.0627555) scale(456.5 121.959)">
<stop offset="0.75" stop-color="#344054" stop-opacity="0.8"/>
<stop offset="1" stop-color="#344054" stop-opacity="0.2"/>
</radialGradient>
<radialGradient id="paint54_radial_95_956" cx="0" cy="0" r="1" gradientUnits="userSpaceOnUse" gradientTransform="translate(696 189.5) rotate(0.0627555) scale(456.5 121.959)">
<stop offset="0.75" stop-color="#344054" stop-opacity="0.8"/>
<stop offset="1" stop-color="#344054" stop-opacity="0.2"/>
</radialGradient>
<radialGradient id="paint55_radial_95_956" cx="0" cy="0" r="1" gradientUnits="userSpaceOnUse" gradientTransform="translate(696 189.5) rotate(0.0627555) scale(456.5 121.959)">
<stop offset="0.75" stop-color="#344054" stop-opacity="0.8"/>
<stop offset="1" stop-color="#344054" stop-opacity="0.2"/>
</radialGradient>
<radialGradient id="paint56_radial_95_956" cx="0" cy="0" r="1" gradientUnits="userSpaceOnUse" gradientTransform="translate(696 189.5) rotate(0.0627555) scale(456.5 121.959)">
<stop offset="0.75" stop-color="#344054" stop-opacity="0.8"/>
<stop offset="1" stop-color="#344054" stop-opacity="0.2"/>
</radialGradient>
<radialGradient id="paint57_radial_95_956" cx="0" cy="0" r="1" gradientUnits="userSpaceOnUse" gradientTransform="translate(696 189.5) rotate(0.0627555) scale(456.5 121.959)">
<stop offset="0.75" stop-color="#344054" stop-opacity="0.8"/>
<stop offset="1" stop-color="#344054" stop-opacity="0.2"/>
</radialGradient>
<radialGradient id="paint58_radial_95_956" cx="0" cy="0" r="1" gradientUnits="userSpaceOnUse" gradientTransform="translate(696 189.5) rotate(0.0627555) scale(456.5 121.959)">
<stop offset="0.75" stop-color="#344054" stop-opacity="0.8"/>
<stop offset="1" stop-color="#344054" stop-opacity="0.2"/>
</radialGradient>
<radialGradient id="paint59_radial_95_956" cx="0" cy="0" r="1" gradientUnits="userSpaceOnUse" gradientTransform="translate(696 189.5) rotate(0.0627555) scale(456.5 121.959)">
<stop offset="0.75" stop-color="#344054" stop-opacity="0.8"/>
<stop offset="1" stop-color="#344054" stop-opacity="0.2"/>
</radialGradient>
</defs>
</svg>
