<svg width="1385" height="617" viewBox="0 0 1385 617" fill="none" xmlns="http://www.w3.org/2000/svg">
<mask id="path-1-inside-1_1_3370" fill="white">
<path d="M98 693H0V792H98V693Z"/>
<path d="M98 99H0V197H98V99Z"/>
<path d="M197 0H99V98H197V0Z"/>
<path d="M197 198H99V296H197V198Z"/>
<path d="M98 297H0V395H98V297Z"/>
<path d="M197 396H99V494H197V396Z"/>
<path d="M98 495H0V593H98V495Z"/>
<path d="M197 594H99V692H197V594Z"/>
<path d="M395 495H297V593H395V495Z"/>
<path d="M1187 495H1089V593H1187V495Z"/>
<path d="M1286 594H1188V692H1286V594Z"/>
<path d="M1385 495H1287V593H1385V495Z"/>
<path d="M1286 396H1188V494H1286V396Z"/>
<path d="M1385 297H1287V395H1385V297Z"/>
<path d="M1286 198H1188V296H1286V198Z"/>
<path d="M1385 99H1287V197H1385V99Z"/>
<path d="M1286 0H1188V98H1286V0Z"/>
<path d="M1187 99H1089V197H1187V99Z"/>
<path d="M494 297H396V395H494V297Z"/>
<path d="M989 198H891V296H989V198Z"/>
</mask>
<path d="M98 693H0V792H98V693Z" fill="#E3EFFC"/>
<path d="M98 99H0V197H98V99Z" fill="#F9FCFF"/>
<path d="M197 0H99V98H197V0Z" fill="#F9FCFF"/>
<path d="M197 198H99V296H197V198Z" fill="#F9FCFF"/>
<path d="M98 297H0V395H98V297Z" fill="#F9FCFF"/>
<path d="M197 396H99V494H197V396Z" fill="#F9FCFF"/>
<path d="M98 495H0V593H98V495Z" fill="#F9FCFF"/>
<path d="M197 594H99V692H197V594Z" fill="#F9FCFF"/>
<path d="M395 495H297V593H395V495Z" fill="#F9FCFF"/>
<path d="M1187 495H1089V593H1187V495Z" fill="#F9FCFF"/>
<path d="M1286 594H1188V692H1286V594Z" fill="#F9FCFF"/>
<path d="M1385 495H1287V593H1385V495Z" fill="#F9FCFF"/>
<path d="M1286 396H1188V494H1286V396Z" fill="#F9FCFF"/>
<path d="M1385 297H1287V395H1385V297Z" fill="#F9FCFF"/>
<path d="M1286 198H1188V296H1286V198Z" fill="#F9FCFF"/>
<path d="M1385 99H1287V197H1385V99Z" fill="#F9FCFF"/>
<path d="M1286 0H1188V98H1286V0Z" fill="#F9FCFF"/>
<path d="M1187 99H1089V197H1187V99Z" fill="#F9FCFF"/>
<path d="M494 297H396V395H494V297Z" fill="#F9FCFF"/>
<path d="M989 198H891V296H989V198Z" fill="#F9FCFF"/>
<path d="M-100 -100V-100.5H-100.5V-100H-100ZM0 -100H0.5V-100.5H0V-100ZM0 0V0.5H0.5V0H0ZM-100 0H-100.5V0.5H-100V0ZM-1 -100V-100.5H-1.5V-100H-1ZM99 -100H99.5V-100.5H99V-100ZM99 0V0.5H99.5V0H99ZM-1 0H-1.5V0.5H-1V0ZM98 -100V-100.5H97.5V-100H98ZM198 -100H198.5V-100.5H198V-100ZM198 0V0.5H198.5V0H198ZM98 0H97.5V0.5H98V0ZM197 -100V-100.5H196.5V-100H197ZM297 -100H297.5V-100.5H297V-100ZM297 0V0.5H297.5V0H297ZM197 0H196.5V0.5H197V0ZM296 -100V-100.5H295.5V-100H296ZM396 -100H396.5V-100.5H396V-100ZM296 0H295.5V0.5H296V0ZM395 -100V-100.5H394.5V-100H395ZM495 -100H495.5V-100.5H495V-100ZM495 0V0.5H495.5V0H495ZM395 0H394.5V0.5H395V0ZM494 -100V-100.5H493.5V-100H494ZM594 -100H594.5V-100.5H594V-100ZM593 -100V-100.5H592.5V-100H593ZM693 -100H693.5V-100.5H693V-100ZM693 0V0.5H693.5V0H693ZM593 0H592.5V0.5H593V0ZM692 -100V-100.5H691.5V-100H692ZM792 -100H792.5V-100.5H792V-100ZM791 -100V-100.5H790.5V-100H791ZM891 -100H891.5V-100.5H891V-100ZM891 0V0.5H891.5V0H891ZM791 0H790.5V0.5H791V0ZM890 -100V-100.5H889.5V-100H890ZM990 -100H990.5V-100.5H990V-100ZM989 -100V-100.5H988.5V-100H989ZM1089 -100H1089.5V-100.5H1089V-100ZM1089 0V0.5H1089.5V0H1089ZM989 0H988.5V0.5H989V0ZM1088 -100V-100.5H1087.5V-100H1088ZM1188 -100H1188.5V-100.5H1188V-100ZM1188 0V0.5H1188.5V0H1188ZM1187 -100V-100.5H1186.5V-100H1187ZM1287 -100H1287.5V-100.5H1287V-100ZM1287 0V0.5H1287.5V0H1287ZM1187 0H1186.5V0.5H1187V0ZM1286 -100V-100.5H1285.5V-100H1286ZM1386 -100H1386.5V-100.5H1386V-100ZM1386 0V0.5H1386.5V0H1386ZM1286 0H1285.5V0.5H1286V0ZM1385 -100V-100.5H1384.5V-100H1385ZM1485 -100H1485.5V-100.5H1485V-100ZM1485 0V0.5H1485.5V0H1485ZM1385 0H1384.5V0.5H1385V0ZM-100 -1V-1.5H-100.5V-1H-100ZM0 -1H0.5V-1.5H0V-1ZM0 99V99.5H0.5V99H0ZM-100 99H-100.5V99.5H-100V99ZM-1 -1V-1.5H-1.5V-1H-1ZM99 -1H99.5V-1.5H99V-1ZM99 99V99.5H99.5V99H99ZM-1 99H-1.5V99.5H-1V99ZM98 -1V-1.5H97.5V-1H98ZM198 -1H198.5V-1.5H198V-1ZM198 99V99.5H198.5V99H198ZM98 99H97.5V99.5H98V99ZM197 -1V-1.5H196.5V-1H197ZM297 -1H297.5V-1.5H297V-1ZM197 99H196.5V99.5H197V99ZM296 -1V-1.5H295.5V-1H296ZM396 -1H396.5V-1.5H396V-1ZM396 99V99.5H396.5V99H396ZM296 99H295.5V99.5H296V99ZM395 -1V-1.5H394.5V-1H395ZM495 -1H495.5V-1.5H495V-1ZM494 -1V-1.5H493.5V-1H494ZM594 -1H594.5V-1.5H594V-1ZM594 99V99.5H594.5V99H594ZM494 99H493.5V99.5H494V99ZM593 -1V-1.5H592.5V-1H593ZM693 -1H693.5V-1.5H693V-1ZM692 -1V-1.5H691.5V-1H692ZM792 -1H792.5V-1.5H792V-1ZM792 99V99.5H792.5V99H792ZM692 99H691.5V99.5H692V99ZM791 -1V-1.5H790.5V-1H791ZM891 -1H891.5V-1.5H891V-1ZM890 -1V-1.5H889.5V-1H890ZM990 -1H990.5V-1.5H990V-1ZM990 99V99.5H990.5V99H990ZM890 99H889.5V99.5H890V99ZM989 -1V-1.5H988.5V-1H989ZM1089 -1H1089.5V-1.5H1089V-1ZM1089 99V99.5H1089.5V99H1089ZM1088 -1V-1.5H1087.5V-1H1088ZM1188 -1H1188.5V-1.5H1188V-1ZM1188 99V99.5H1188.5V99H1188ZM1088 99H1087.5V99.5H1088V99ZM1187 -1V-1.5H1186.5V-1H1187ZM1287 -1H1287.5V-1.5H1287V-1ZM1287 99V99.5H1287.5V99H1287ZM1187 99H1186.5V99.5H1187V99ZM1286 -1V-1.5H1285.5V-1H1286ZM1386 -1H1386.5V-1.5H1386V-1ZM1386 99V99.5H1386.5V99H1386ZM1286 99H1285.5V99.5H1286V99ZM1385 -1V-1.5H1384.5V-1H1385ZM1485 -1H1485.5V-1.5H1485V-1ZM1485 99V99.5H1485.5V99H1485ZM1385 99H1384.5V99.5H1385V99ZM-100 98V97.5H-100.5V98H-100ZM0 98H0.5V97.5H0V98ZM0 198V198.5H0.5V198H0ZM-100 198H-100.5V198.5H-100V198ZM-1 98V97.5H-1.5V98H-1ZM99 98H99.5V97.5H99V98ZM99 198V198.5H99.5V198H99ZM-1 198H-1.5V198.5H-1V198ZM98 98V97.5H97.5V98H98ZM198 98H198.5V97.5H198V98ZM198 198V198.5H198.5V198H198ZM98 198H97.5V198.5H98V198ZM197 98V97.5H196.5V98H197ZM297 98H297.5V97.5H297V98ZM297 198V198.5H297.5V198H297ZM197 198H196.5V198.5H197V198ZM296 98V97.5H295.5V98H296ZM396 198V198.5H396.5V198H396ZM296 198H295.5V198.5H296V198ZM395 98V97.5H394.5V98H395ZM495 98H495.5V97.5H495V98ZM495 198V198.5H495.5V198H495ZM395 198H394.5V198.5H395V198ZM594 198V198.5H594.5V198H594ZM494 198H493.5V198.5H494V198ZM593 98V97.5H592.5V98H593ZM693 98H693.5V97.5H693V98ZM693 198V198.5H693.5V198H693ZM593 198H592.5V198.5H593V198ZM792 198V198.5H792.5V198H792ZM692 198H691.5V198.5H692V198ZM791 98V97.5H790.5V98H791ZM891 98H891.5V97.5H891V98ZM891 198V198.5H891.5V198H891ZM791 198H790.5V198.5H791V198ZM990 198V198.5H990.5V198H990ZM890 198H889.5V198.5H890V198ZM989 98V97.5H988.5V98H989ZM1089 98H1089.5V97.5H1089V98ZM1089 198V198.5H1089.5V198H1089ZM989 198H988.5V198.5H989V198ZM1188 98H1188.5V97.5H1188V98ZM1188 198V198.5H1188.5V198H1188ZM1088 198H1087.5V198.5H1088V198ZM1187 98V97.5H1186.5V98H1187ZM1287 98H1287.5V97.5H1287V98ZM1287 198V198.5H1287.5V198H1287ZM1187 198H1186.5V198.5H1187V198ZM1286 98V97.5H1285.5V98H1286ZM1386 98H1386.5V97.5H1386V98ZM1386 198V198.5H1386.5V198H1386ZM1286 198H1285.5V198.5H1286V198ZM1385 98V97.5H1384.5V98H1385ZM1485 98H1485.5V97.5H1485V98ZM1485 198V198.5H1485.5V198H1485ZM1385 198H1384.5V198.5H1385V198ZM-100 197V196.5H-100.5V197H-100ZM0 197H0.5V196.5H0V197ZM0 297V297.5H0.5V297H0ZM-100 297H-100.5V297.5H-100V297ZM-1 197V196.5H-1.5V197H-1ZM99 197H99.5V196.5H99V197ZM99 297V297.5H99.5V297H99ZM-1 297H-1.5V297.5H-1V297ZM98 197V196.5H97.5V197H98ZM198 197H198.5V196.5H198V197ZM198 297V297.5H198.5V297H198ZM98 297H97.5V297.5H98V297ZM197 197V196.5H196.5V197H197ZM297 297V297.5H297.5V297H297ZM197 297H196.5V297.5H197V297ZM296 197V196.5H295.5V197H296ZM396 197H396.5V196.5H396V197ZM396 297V297.5H396.5V297H396ZM296 297H295.5V297.5H296V297ZM495 297V297.5H495.5V297H495ZM395 297H394.5V297.5H395V297ZM494 197V196.5H493.5V197H494ZM594 197H594.5V196.5H594V197ZM594 297V297.5H594.5V297H594ZM494 297H493.5V297.5H494V297ZM693 297V297.5H693.5V297H693ZM593 297H592.5V297.5H593V297ZM692 197V196.5H691.5V197H692ZM792 197H792.5V196.5H792V197ZM792 297V297.5H792.5V297H792ZM692 297H691.5V297.5H692V297ZM891 297V297.5H891.5V297H891ZM791 297H790.5V297.5H791V297ZM890 197V196.5H889.5V197H890ZM990 197H990.5V196.5H990V197ZM990 297V297.5H990.5V297H990ZM890 297H889.5V297.5H890V297ZM1089 197H1089.5V196.5H1089V197ZM1089 297V297.5H1089.5V297H1089ZM989 297H988.5V297.5H989V297ZM1088 197V196.5H1087.5V197H1088ZM1188 197H1188.5V196.5H1188V197ZM1188 297V297.5H1188.5V297H1188ZM1088 297H1087.5V297.5H1088V297ZM1187 197V196.5H1186.5V197H1187ZM1287 197H1287.5V196.5H1287V197ZM1287 297V297.5H1287.5V297H1287ZM1187 297H1186.5V297.5H1187V297ZM1286 197V196.5H1285.5V197H1286ZM1386 197H1386.5V196.5H1386V197ZM1386 297V297.5H1386.5V297H1386ZM1286 297H1285.5V297.5H1286V297ZM1385 197V196.5H1384.5V197H1385ZM1485 197H1485.5V196.5H1485V197ZM1485 297V297.5H1485.5V297H1485ZM1385 297H1384.5V297.5H1385V297ZM-100 296V295.5H-100.5V296H-100ZM0 296H0.5V295.5H0V296ZM0 396V396.5H0.5V396H0ZM-100 396H-100.5V396.5H-100V396ZM-1 296V295.5H-1.5V296H-1ZM99 296H99.5V295.5H99V296ZM99 396V396.5H99.5V396H99ZM-1 396H-1.5V396.5H-1V396ZM98 296V295.5H97.5V296H98ZM198 296H198.5V295.5H198V296ZM198 396V396.5H198.5V396H198ZM98 396H97.5V396.5H98V396ZM197 296V295.5H196.5V296H197ZM297 296H297.5V295.5H297V296ZM297 396V396.5H297.5V396H297ZM197 396H196.5V396.5H197V396ZM296 296V295.5H295.5V296H296ZM396 296H396.5V295.5H396V296ZM396 396V396.5H396.5V396H396ZM296 396H295.5V396.5H296V396ZM395 296V295.5H394.5V296H395ZM495 296H495.5V295.5H495V296ZM495 396V396.5H495.5V396H495ZM395 396H394.5V396.5H395V396ZM494 296V295.5H493.5V296H494ZM594 296H594.5V295.5H594V296ZM594 396V396.5H594.5V396H594ZM494 396H493.5V396.5H494V396ZM593 296V295.5H592.5V296H593ZM693 296H693.5V295.5H693V296ZM593 396H592.5V396.5H593V396ZM692 296V295.5H691.5V296H692ZM792 296H792.5V295.5H792V296ZM792 396V396.5H792.5V396H792ZM692 396H691.5V396.5H692V396ZM791 296V295.5H790.5V296H791ZM891 296H891.5V295.5H891V296ZM891 396V396.5H891.5V396H891ZM890 296V295.5H889.5V296H890ZM990 296H990.5V295.5H990V296ZM890 396H889.5V396.5H890V396ZM989 296V295.5H988.5V296H989ZM1089 296H1089.5V295.5H1089V296ZM1089 396V396.5H1089.5V396H1089ZM989 396H988.5V396.5H989V396ZM1088 296V295.5H1087.5V296H1088ZM1188 296H1188.5V295.5H1188V296ZM1188 396V396.5H1188.5V396H1188ZM1187 296V295.5H1186.5V296H1187ZM1287 296H1287.5V295.5H1287V296ZM1287 396V396.5H1287.5V396H1287ZM1187 396H1186.5V396.5H1187V396ZM1286 296V295.5H1285.5V296H1286ZM1386 296H1386.5V295.5H1386V296ZM1386 396V396.5H1386.5V396H1386ZM1286 396H1285.5V396.5H1286V396ZM1385 296V295.5H1384.5V296H1385ZM1485 296H1485.5V295.5H1485V296ZM1485 396V396.5H1485.5V396H1485ZM1385 396H1384.5V396.5H1385V396ZM-100 395V394.5H-100.5V395H-100ZM0 395H0.5V394.5H0V395ZM0 495V495.5H0.5V495H0ZM-100 495H-100.5V495.5H-100V495ZM-1 395V394.5H-1.5V395H-1ZM99 395H99.5V394.5H99V395ZM-1 495H-1.5V495.5H-1V495ZM98 395V394.5H97.5V395H98ZM198 395H198.5V394.5H198V395ZM198 495V495.5H198.5V495H198ZM98 495H97.5V495.5H98V495ZM197 395V394.5H196.5V395H197ZM297 395H297.5V394.5H297V395ZM297 495V495.5H297.5V495H297ZM296 395V394.5H295.5V395H296ZM396 395H396.5V394.5H396V395ZM396 495V495.5H396.5V495H396ZM296 495H295.5V495.5H296V495ZM395 395V394.5H394.5V395H395ZM495 395H495.5V394.5H495V395ZM395 495H394.5V495.5H395V495ZM494 395V394.5H493.5V395H494ZM594 395H594.5V394.5H594V395ZM594 495V495.5H594.5V495H594ZM494 495H493.5V495.5H494V495ZM593 395V394.5H592.5V395H593ZM693 395H693.5V394.5H693V395ZM692 395V394.5H691.5V395H692ZM792 395H792.5V394.5H792V395ZM792 495V495.5H792.5V495H792ZM692 495H691.5V495.5H692V495ZM791 395V394.5H790.5V395H791ZM891 395H891.5V394.5H891V395ZM890 395V394.5H889.5V395H890ZM990 395H990.5V394.5H990V395ZM990 495V495.5H990.5V495H990ZM890 495H889.5V495.5H890V495ZM989 395V394.5H988.5V395H989ZM1089 395H1089.5V394.5H1089V395ZM1089 495V495.5H1089.5V495H1089ZM1088 395V394.5H1087.5V395H1088ZM1188 395H1188.5V394.5H1188V395ZM1188 495V495.5H1188.5V495H1188ZM1088 495H1087.5V495.5H1088V495ZM1187 395V394.5H1186.5V395H1187ZM1287 395H1287.5V394.5H1287V395ZM1287 495V495.5H1287.5V495H1287ZM1187 495H1186.5V495.5H1187V495ZM1286 395V394.5H1285.5V395H1286ZM1386 395H1386.5V394.5H1386V395ZM1386 495V495.5H1386.5V495H1386ZM1286 495H1285.5V495.5H1286V495ZM1385 395V394.5H1384.5V395H1385ZM1485 395H1485.5V394.5H1485V395ZM1485 495V495.5H1485.5V495H1485ZM1385 495H1384.5V495.5H1385V495ZM-100 494V493.5H-100.5V494H-100ZM0 494H0.5V493.5H0V494ZM0 594V594.5H0.5V594H0ZM-100 594H-100.5V594.5H-100V594ZM-1 494V493.5H-1.5V494H-1ZM99 494H99.5V493.5H99V494ZM99 594V594.5H99.5V594H99ZM-1 594H-1.5V594.5H-1V594ZM98 494V493.5H97.5V494H98ZM198 494H198.5V493.5H198V494ZM198 594V594.5H198.5V594H198ZM98 594H97.5V594.5H98V594ZM197 494V493.5H196.5V494H197ZM297 494H297.5V493.5H297V494ZM297 594V594.5H297.5V594H297ZM197 594H196.5V594.5H197V594ZM296 494V493.5H295.5V494H296ZM396 494H396.5V493.5H396V494ZM296 594H295.5V594.5H296V594ZM395 494V493.5H394.5V494H395ZM495 494H495.5V493.5H495V494ZM495 594V594.5H495.5V594H495ZM395 594H394.5V594.5H395V594ZM494 494V493.5H493.5V494H494ZM594 494H594.5V493.5H594V494ZM593 494V493.5H592.5V494H593ZM693 594V594.5H693.5V594H693ZM593 594H592.5V594.5H593V594ZM692 494V493.5H691.5V494H692ZM792 494H792.5V493.5H792V494ZM891 494H891.5V493.5H891V494ZM891 594V594.5H891.5V594H891ZM791 594H790.5V594.5H791V594ZM890 494V493.5H889.5V494H890ZM989 494V493.5H988.5V494H989ZM1089 494H1089.5V493.5H1089V494ZM1089 594V594.5H1089.5V594H1089ZM989 594H988.5V594.5H989V594ZM1188 494H1188.5V493.5H1188V494ZM1188 594V594.5H1188.5V594H1188ZM1187 494V493.5H1186.5V494H1187ZM1287 494H1287.5V493.5H1287V494ZM1287 594V594.5H1287.5V594H1287ZM1187 594H1186.5V594.5H1187V594ZM1286 494V493.5H1285.5V494H1286ZM1386 494H1386.5V493.5H1386V494ZM1386 594V594.5H1386.5V594H1386ZM1286 594H1285.5V594.5H1286V594ZM1385 494V493.5H1384.5V494H1385ZM1485 494H1485.5V493.5H1485V494ZM1485 594V594.5H1485.5V594H1485ZM1385 594H1384.5V594.5H1385V594ZM-100 593V592.5H-100.5V593H-100ZM0 593H0.5V592.5H0V593ZM0 693V693.5H0.5V693H0ZM-100 693H-100.5V693.5H-100V693ZM-1 593V592.5H-1.5V593H-1ZM99 693V693.5H99.5V693H99ZM-1 693H-1.5V693.5H-1V693ZM98 593V592.5H97.5V593H98ZM198 593H198.5V592.5H198V593ZM198 693V693.5H198.5V693H198ZM98 693H97.5V693.5H98V693ZM297 593H297.5V592.5H297V593ZM297 693V693.5H297.5V693H297ZM197 693H196.5V693.5H197V693ZM296 593V592.5H295.5V593H296ZM396 593H396.5V592.5H396V593ZM396 693V693.5H396.5V693H396ZM296 693H295.5V693.5H296V693ZM395 593V592.5H394.5V593H395ZM495 693V693.5H495.5V693H495ZM395 693H394.5V693.5H395V693ZM494 593V592.5H493.5V593H494ZM594 593H594.5V592.5H594V593ZM594 693V693.5H594.5V693H594ZM494 693H493.5V693.5H494V693ZM693 693V693.5H693.5V693H693ZM593 693H592.5V693.5H593V693ZM692 593V592.5H691.5V593H692ZM792 593H792.5V592.5H792V593ZM792 693V693.5H792.5V693H792ZM692 693H691.5V693.5H692V693ZM891 693V693.5H891.5V693H891ZM791 693H790.5V693.5H791V693ZM890 593V592.5H889.5V593H890ZM990 593H990.5V592.5H990V593ZM990 693V693.5H990.5V693H990ZM890 693H889.5V693.5H890V693ZM1089 593H1089.5V592.5H1089V593ZM1089 693V693.5H1089.5V693H1089ZM989 693H988.5V693.5H989V693ZM1088 593V592.5H1087.5V593H1088ZM1188 593H1188.5V592.5H1188V593ZM1188 693V693.5H1188.5V693H1188ZM1088 693H1087.5V693.5H1088V693ZM1187 593V592.5H1186.5V593H1187ZM1287 593H1287.5V592.5H1287V593ZM1287 693V693.5H1287.5V693H1287ZM1187 693H1186.5V693.5H1187V693ZM1286 593V592.5H1285.5V593H1286ZM1386 593H1386.5V592.5H1386V593ZM1386 693V693.5H1386.5V693H1386ZM1286 693H1285.5V693.5H1286V693ZM1385 593V592.5H1384.5V593H1385ZM1485 593H1485.5V592.5H1485V593ZM1485 693V693.5H1485.5V693H1485ZM1385 693H1384.5V693.5H1385V693ZM-100 692V691.5H-100.5V692H-100ZM0 692H0.5V691.5H0V692ZM0 792V792.5H0.5V792H0ZM-100 792H-100.5V792.5H-100V792ZM-1 692V691.5H-1.5V692H-1ZM99 692H99.5V691.5H99V692ZM99 792V792.5H99.5V792H99ZM-1 792H-1.5V792.5H-1V792ZM98 692V691.5H97.5V692H98ZM198 692H198.5V691.5H198V692ZM198 792V792.5H198.5V792H198ZM98 792H97.5V792.5H98V792ZM197 692V691.5H196.5V692H197ZM297 692H297.5V691.5H297V692ZM297 792V792.5H297.5V792H297ZM197 792H196.5V792.5H197V792ZM296 692V691.5H295.5V692H296ZM396 792V792.5H396.5V792H396ZM296 792H295.5V792.5H296V792ZM395 692V691.5H394.5V692H395ZM495 692H495.5V691.5H495V692ZM495 792V792.5H495.5V792H495ZM395 792H394.5V792.5H395V792ZM594 792V792.5H594.5V792H594ZM494 792H493.5V792.5H494V792ZM593 692V691.5H592.5V692H593ZM693 692H693.5V691.5H693V692ZM693 792V792.5H693.5V792H693ZM593 792H592.5V792.5H593V792ZM792 792V792.5H792.5V792H792ZM692 792H691.5V792.5H692V792ZM791 692V691.5H790.5V692H791ZM891 692H891.5V691.5H891V692ZM891 792V792.5H891.5V792H891ZM791 792H790.5V792.5H791V792ZM990 792V792.5H990.5V792H990ZM890 792H889.5V792.5H890V792ZM989 692V691.5H988.5V692H989ZM1089 692H1089.5V691.5H1089V692ZM1089 792V792.5H1089.5V792H1089ZM989 792H988.5V792.5H989V792ZM1188 692H1188.5V691.5H1188V692ZM1188 792V792.5H1188.5V792H1188ZM1088 792H1087.5V792.5H1088V792ZM1187 692V691.5H1186.5V692H1187ZM1287 692H1287.5V691.5H1287V692ZM1287 792V792.5H1287.5V792H1287ZM1187 792H1186.5V792.5H1187V792ZM1286 692V691.5H1285.5V692H1286ZM1386 692H1386.5V691.5H1386V692ZM1386 792V792.5H1386.5V792H1386ZM1286 792H1285.5V792.5H1286V792ZM1385 692V691.5H1384.5V692H1385ZM1485 692H1485.5V691.5H1485V692ZM1485 792V792.5H1485.5V792H1485ZM1385 792H1384.5V792.5H1385V792ZM-100 -99.5H0V-100.5H-100V-99.5ZM-0.5 -100V0H0.5V-100H-0.5ZM0 -0.5H-100V0.5H0V-0.5ZM-99.5 0V-100H-100.5V0H-99.5ZM-1 -99.5H99V-100.5H-1V-99.5ZM98.5 -100V0H99.5V-100H98.5ZM99 -0.5H-1V0.5H99V-0.5ZM-0.5 0V-100H-1.5V0H-0.5ZM98 -99.5H198V-100.5H98V-99.5ZM197.5 -100V0H198.5V-100H197.5ZM198 -0.5H98V0.5H198V-0.5ZM98.5 0V-100H97.5V0H98.5ZM197 -99.5H297V-100.5H197V-99.5ZM296.5 -100V0H297.5V-100H296.5ZM297 -0.5H197V0.5H297V-0.5ZM197.5 0V-100H196.5V0H197.5ZM296 -99.5H396V-100.5H296V-99.5ZM395.5 -100V0H396.5V-100H395.5ZM396 -0.5H296V0.5H396V-0.5ZM296.5 0V-100H295.5V0H296.5ZM395 -99.5H495V-100.5H395V-99.5ZM494.5 -100V0H495.5V-100H494.5ZM495 -0.5H395V0.5H495V-0.5ZM395.5 0V-100H394.5V0H395.5ZM494 -99.5H594V-100.5H494V-99.5ZM593.5 -100V0H594.5V-100H593.5ZM594 -0.5H494V0.5H594V-0.5ZM494.5 0V-100H493.5V0H494.5ZM593 -99.5H693V-100.5H593V-99.5ZM692.5 -100V0H693.5V-100H692.5ZM693 -0.5H593V0.5H693V-0.5ZM593.5 0V-100H592.5V0H593.5ZM692 -99.5H792V-100.5H692V-99.5ZM791.5 -100V0H792.5V-100H791.5ZM792 -0.5H692V0.5H792V-0.5ZM692.5 0V-100H691.5V0H692.5ZM791 -99.5H891V-100.5H791V-99.5ZM890.5 -100V0H891.5V-100H890.5ZM891 -0.5H791V0.5H891V-0.5ZM791.5 0V-100H790.5V0H791.5ZM890 -99.5H990V-100.5H890V-99.5ZM989.5 -100V0H990.5V-100H989.5ZM990 -0.5H890V0.5H990V-0.5ZM890.5 0V-100H889.5V0H890.5ZM989 -99.5H1089V-100.5H989V-99.5ZM1088.5 -100V0H1089.5V-100H1088.5ZM1089 -0.5H989V0.5H1089V-0.5ZM989.5 0V-100H988.5V0H989.5ZM1088 -99.5H1188V-100.5H1088V-99.5ZM1187.5 -100V0H1188.5V-100H1187.5ZM1188 -0.5H1088V0.5H1188V-0.5ZM1088.5 0V-100H1087.5V0H1088.5ZM1187 -99.5H1287V-100.5H1187V-99.5ZM1286.5 -100V0H1287.5V-100H1286.5ZM1287 -0.5H1187V0.5H1287V-0.5ZM1187.5 0V-100H1186.5V0H1187.5ZM1286 -99.5H1386V-100.5H1286V-99.5ZM1385.5 -100V0H1386.5V-100H1385.5ZM1386 -0.5H1286V0.5H1386V-0.5ZM1286.5 0V-100H1285.5V0H1286.5ZM1385 -99.5H1485V-100.5H1385V-99.5ZM1484.5 -100V0H1485.5V-100H1484.5ZM1485 -0.5H1385V0.5H1485V-0.5ZM1385.5 0V-100H1384.5V0H1385.5ZM-100 -0.5H0V-1.5H-100V-0.5ZM-0.5 -1V99H0.5V-1H-0.5ZM0 98.5H-100V99.5H0V98.5ZM-99.5 99V-1H-100.5V99H-99.5ZM-1 -0.5H99V-1.5H-1V-0.5ZM98.5 -1V99H99.5V-1H98.5ZM99 98.5H-1V99.5H99V98.5ZM-0.5 99V-1H-1.5V99H-0.5ZM98 -0.5H198V-1.5H98V-0.5ZM197.5 -1V99H198.5V-1H197.5ZM198 98.5H98V99.5H198V98.5ZM98.5 99V-1H97.5V99H98.5ZM197 -0.5H297V-1.5H197V-0.5ZM296.5 -1V99H297.5V-1H296.5ZM297 98.5H197V99.5H297V98.5ZM197.5 99V-1H196.5V99H197.5ZM296 -0.5H396V-1.5H296V-0.5ZM395.5 -1V99H396.5V-1H395.5ZM396 98.5H296V99.5H396V98.5ZM296.5 99V-1H295.5V99H296.5ZM395 -0.5H495V-1.5H395V-0.5ZM494.5 -1V99H495.5V-1H494.5ZM495 98.5H395V99.5H495V98.5ZM395.5 99V-1H394.5V99H395.5ZM494 -0.5H594V-1.5H494V-0.5ZM593.5 -1V99H594.5V-1H593.5ZM594 98.5H494V99.5H594V98.5ZM494.5 99V-1H493.5V99H494.5ZM593 -0.5H693V-1.5H593V-0.5ZM692.5 -1V99H693.5V-1H692.5ZM693 98.5H593V99.5H693V98.5ZM593.5 99V-1H592.5V99H593.5ZM692 -0.5H792V-1.5H692V-0.5ZM791.5 -1V99H792.5V-1H791.5ZM792 98.5H692V99.5H792V98.5ZM692.5 99V-1H691.5V99H692.5ZM791 -0.5H891V-1.5H791V-0.5ZM890.5 -1V99H891.5V-1H890.5ZM891 98.5H791V99.5H891V98.5ZM791.5 99V-1H790.5V99H791.5ZM890 -0.5H990V-1.5H890V-0.5ZM989.5 -1V99H990.5V-1H989.5ZM990 98.5H890V99.5H990V98.5ZM890.5 99V-1H889.5V99H890.5ZM989 -0.5H1089V-1.5H989V-0.5ZM1088.5 -1V99H1089.5V-1H1088.5ZM1089 98.5H989V99.5H1089V98.5ZM989.5 99V-1H988.5V99H989.5ZM1088 -0.5H1188V-1.5H1088V-0.5ZM1187.5 -1V99H1188.5V-1H1187.5ZM1188 98.5H1088V99.5H1188V98.5ZM1088.5 99V-1H1087.5V99H1088.5ZM1187 -0.5H1287V-1.5H1187V-0.5ZM1286.5 -1V99H1287.5V-1H1286.5ZM1287 98.5H1187V99.5H1287V98.5ZM1187.5 99V-1H1186.5V99H1187.5ZM1286 -0.5H1386V-1.5H1286V-0.5ZM1385.5 -1V99H1386.5V-1H1385.5ZM1386 98.5H1286V99.5H1386V98.5ZM1286.5 99V-1H1285.5V99H1286.5ZM1385 -0.5H1485V-1.5H1385V-0.5ZM1484.5 -1V99H1485.5V-1H1484.5ZM1485 98.5H1385V99.5H1485V98.5ZM1385.5 99V-1H1384.5V99H1385.5ZM-100 98.5H0V97.5H-100V98.5ZM-0.5 98V198H0.5V98H-0.5ZM0 197.5H-100V198.5H0V197.5ZM-99.5 198V98H-100.5V198H-99.5ZM-1 98.5H99V97.5H-1V98.5ZM98.5 98V198H99.5V98H98.5ZM99 197.5H-1V198.5H99V197.5ZM-0.5 198V98H-1.5V198H-0.5ZM98 98.5H198V97.5H98V98.5ZM197.5 98V198H198.5V98H197.5ZM198 197.5H98V198.5H198V197.5ZM98.5 198V98H97.5V198H98.5ZM197 98.5H297V97.5H197V98.5ZM296.5 98V198H297.5V98H296.5ZM297 197.5H197V198.5H297V197.5ZM197.5 198V98H196.5V198H197.5ZM296 98.5H396V97.5H296V98.5ZM395.5 98V198H396.5V98H395.5ZM396 197.5H296V198.5H396V197.5ZM296.5 198V98H295.5V198H296.5ZM395 98.5H495V97.5H395V98.5ZM494.5 98V198H495.5V98H494.5ZM495 197.5H395V198.5H495V197.5ZM395.5 198V98H394.5V198H395.5ZM494 98.5H594V97.5H494V98.5ZM593.5 98V198H594.5V98H593.5ZM594 197.5H494V198.5H594V197.5ZM494.5 198V98H493.5V198H494.5ZM593 98.5H693V97.5H593V98.5ZM692.5 98V198H693.5V98H692.5ZM693 197.5H593V198.5H693V197.5ZM593.5 198V98H592.5V198H593.5ZM692 98.5H792V97.5H692V98.5ZM791.5 98V198H792.5V98H791.5ZM792 197.5H692V198.5H792V197.5ZM692.5 198V98H691.5V198H692.5ZM791 98.5H891V97.5H791V98.5ZM890.5 98V198H891.5V98H890.5ZM891 197.5H791V198.5H891V197.5ZM791.5 198V98H790.5V198H791.5ZM890 98.5H990V97.5H890V98.5ZM989.5 98V198H990.5V98H989.5ZM990 197.5H890V198.5H990V197.5ZM890.5 198V98H889.5V198H890.5ZM989 98.5H1089V97.5H989V98.5ZM1088.5 98V198H1089.5V98H1088.5ZM1089 197.5H989V198.5H1089V197.5ZM989.5 198V98H988.5V198H989.5ZM1088 98.5H1188V97.5H1088V98.5ZM1187.5 98V198H1188.5V98H1187.5ZM1188 197.5H1088V198.5H1188V197.5ZM1088.5 198V98H1087.5V198H1088.5ZM1187 98.5H1287V97.5H1187V98.5ZM1286.5 98V198H1287.5V98H1286.5ZM1287 197.5H1187V198.5H1287V197.5ZM1187.5 198V98H1186.5V198H1187.5ZM1286 98.5H1386V97.5H1286V98.5ZM1385.5 98V198H1386.5V98H1385.5ZM1386 197.5H1286V198.5H1386V197.5ZM1286.5 198V98H1285.5V198H1286.5ZM1385 98.5H1485V97.5H1385V98.5ZM1484.5 98V198H1485.5V98H1484.5ZM1485 197.5H1385V198.5H1485V197.5ZM1385.5 198V98H1384.5V198H1385.5ZM-100 197.5H0V196.5H-100V197.5ZM-0.5 197V297H0.5V197H-0.5ZM0 296.5H-100V297.5H0V296.5ZM-99.5 297V197H-100.5V297H-99.5ZM-1 197.5H99V196.5H-1V197.5ZM98.5 197V297H99.5V197H98.5ZM99 296.5H-1V297.5H99V296.5ZM-0.5 297V197H-1.5V297H-0.5ZM98 197.5H198V196.5H98V197.5ZM197.5 197V297H198.5V197H197.5ZM198 296.5H98V297.5H198V296.5ZM98.5 297V197H97.5V297H98.5ZM197 197.5H297V196.5H197V197.5ZM296.5 197V297H297.5V197H296.5ZM297 296.5H197V297.5H297V296.5ZM197.5 297V197H196.5V297H197.5ZM296 197.5H396V196.5H296V197.5ZM395.5 197V297H396.5V197H395.5ZM396 296.5H296V297.5H396V296.5ZM296.5 297V197H295.5V297H296.5ZM395 197.5H495V196.5H395V197.5ZM494.5 197V297H495.5V197H494.5ZM495 296.5H395V297.5H495V296.5ZM395.5 297V197H394.5V297H395.5ZM494 197.5H594V196.5H494V197.5ZM593.5 197V297H594.5V197H593.5ZM594 296.5H494V297.5H594V296.5ZM494.5 297V197H493.5V297H494.5ZM593 197.5H693V196.5H593V197.5ZM692.5 197V297H693.5V197H692.5ZM693 296.5H593V297.5H693V296.5ZM593.5 297V197H592.5V297H593.5ZM692 197.5H792V196.5H692V197.5ZM791.5 197V297H792.5V197H791.5ZM792 296.5H692V297.5H792V296.5ZM692.5 297V197H691.5V297H692.5ZM791 197.5H891V196.5H791V197.5ZM890.5 197V297H891.5V197H890.5ZM891 296.5H791V297.5H891V296.5ZM791.5 297V197H790.5V297H791.5ZM890 197.5H990V196.5H890V197.5ZM989.5 197V297H990.5V197H989.5ZM990 296.5H890V297.5H990V296.5ZM890.5 297V197H889.5V297H890.5ZM989 197.5H1089V196.5H989V197.5ZM1088.5 197V297H1089.5V197H1088.5ZM1089 296.5H989V297.5H1089V296.5ZM989.5 297V197H988.5V297H989.5ZM1088 197.5H1188V196.5H1088V197.5ZM1187.5 197V297H1188.5V197H1187.5ZM1188 296.5H1088V297.5H1188V296.5ZM1088.5 297V197H1087.5V297H1088.5ZM1187 197.5H1287V196.5H1187V197.5ZM1286.5 197V297H1287.5V197H1286.5ZM1287 296.5H1187V297.5H1287V296.5ZM1187.5 297V197H1186.5V297H1187.5ZM1286 197.5H1386V196.5H1286V197.5ZM1385.5 197V297H1386.5V197H1385.5ZM1386 296.5H1286V297.5H1386V296.5ZM1286.5 297V197H1285.5V297H1286.5ZM1385 197.5H1485V196.5H1385V197.5ZM1484.5 197V297H1485.5V197H1484.5ZM1485 296.5H1385V297.5H1485V296.5ZM1385.5 297V197H1384.5V297H1385.5ZM-100 296.5H0V295.5H-100V296.5ZM-0.5 296V396H0.5V296H-0.5ZM0 395.5H-100V396.5H0V395.5ZM-99.5 396V296H-100.5V396H-99.5ZM-1 296.5H99V295.5H-1V296.5ZM98.5 296V396H99.5V296H98.5ZM99 395.5H-1V396.5H99V395.5ZM-0.5 396V296H-1.5V396H-0.5ZM98 296.5H198V295.5H98V296.5ZM197.5 296V396H198.5V296H197.5ZM198 395.5H98V396.5H198V395.5ZM98.5 396V296H97.5V396H98.5ZM197 296.5H297V295.5H197V296.5ZM296.5 296V396H297.5V296H296.5ZM297 395.5H197V396.5H297V395.5ZM197.5 396V296H196.5V396H197.5ZM296 296.5H396V295.5H296V296.5ZM395.5 296V396H396.5V296H395.5ZM396 395.5H296V396.5H396V395.5ZM296.5 396V296H295.5V396H296.5ZM395 296.5H495V295.5H395V296.5ZM494.5 296V396H495.5V296H494.5ZM495 395.5H395V396.5H495V395.5ZM395.5 396V296H394.5V396H395.5ZM494 296.5H594V295.5H494V296.5ZM593.5 296V396H594.5V296H593.5ZM594 395.5H494V396.5H594V395.5ZM494.5 396V296H493.5V396H494.5ZM593 296.5H693V295.5H593V296.5ZM692.5 296V396H693.5V296H692.5ZM693 395.5H593V396.5H693V395.5ZM593.5 396V296H592.5V396H593.5ZM692 296.5H792V295.5H692V296.5ZM791.5 296V396H792.5V296H791.5ZM792 395.5H692V396.5H792V395.5ZM692.5 396V296H691.5V396H692.5ZM791 296.5H891V295.5H791V296.5ZM890.5 296V396H891.5V296H890.5ZM891 395.5H791V396.5H891V395.5ZM791.5 396V296H790.5V396H791.5ZM890 296.5H990V295.5H890V296.5ZM989.5 296V396H990.5V296H989.5ZM990 395.5H890V396.5H990V395.5ZM890.5 396V296H889.5V396H890.5ZM989 296.5H1089V295.5H989V296.5ZM1088.5 296V396H1089.5V296H1088.5ZM1089 395.5H989V396.5H1089V395.5ZM989.5 396V296H988.5V396H989.5ZM1088 296.5H1188V295.5H1088V296.5ZM1187.5 296V396H1188.5V296H1187.5ZM1188 395.5H1088V396.5H1188V395.5ZM1088.5 396V296H1087.5V396H1088.5ZM1187 296.5H1287V295.5H1187V296.5ZM1286.5 296V396H1287.5V296H1286.5ZM1287 395.5H1187V396.5H1287V395.5ZM1187.5 396V296H1186.5V396H1187.5ZM1286 296.5H1386V295.5H1286V296.5ZM1385.5 296V396H1386.5V296H1385.5ZM1386 395.5H1286V396.5H1386V395.5ZM1286.5 396V296H1285.5V396H1286.5ZM1385 296.5H1485V295.5H1385V296.5ZM1484.5 296V396H1485.5V296H1484.5ZM1485 395.5H1385V396.5H1485V395.5ZM1385.5 396V296H1384.5V396H1385.5ZM-100 395.5H0V394.5H-100V395.5ZM-0.5 395V495H0.5V395H-0.5ZM0 494.5H-100V495.5H0V494.5ZM-99.5 495V395H-100.5V495H-99.5ZM-1 395.5H99V394.5H-1V395.5ZM98.5 395V495H99.5V395H98.5ZM99 494.5H-1V495.5H99V494.5ZM-0.5 495V395H-1.5V495H-0.5ZM98 395.5H198V394.5H98V395.5ZM197.5 395V495H198.5V395H197.5ZM198 494.5H98V495.5H198V494.5ZM98.5 495V395H97.5V495H98.5ZM197 395.5H297V394.5H197V395.5ZM296.5 395V495H297.5V395H296.5ZM297 494.5H197V495.5H297V494.5ZM197.5 495V395H196.5V495H197.5ZM296 395.5H396V394.5H296V395.5ZM395.5 395V495H396.5V395H395.5ZM396 494.5H296V495.5H396V494.5ZM296.5 495V395H295.5V495H296.5ZM395 395.5H495V394.5H395V395.5ZM494.5 395V495H495.5V395H494.5ZM495 494.5H395V495.5H495V494.5ZM395.5 495V395H394.5V495H395.5ZM494 395.5H594V394.5H494V395.5ZM593.5 395V495H594.5V395H593.5ZM594 494.5H494V495.5H594V494.5ZM494.5 495V395H493.5V495H494.5ZM593 395.5H693V394.5H593V395.5ZM692.5 395V495H693.5V395H692.5ZM693 494.5H593V495.5H693V494.5ZM593.5 495V395H592.5V495H593.5ZM692 395.5H792V394.5H692V395.5ZM791.5 395V495H792.5V395H791.5ZM792 494.5H692V495.5H792V494.5ZM692.5 495V395H691.5V495H692.5ZM791 395.5H891V394.5H791V395.5ZM890.5 395V495H891.5V395H890.5ZM891 494.5H791V495.5H891V494.5ZM791.5 495V395H790.5V495H791.5ZM890 395.5H990V394.5H890V395.5ZM989.5 395V495H990.5V395H989.5ZM990 494.5H890V495.5H990V494.5ZM890.5 495V395H889.5V495H890.5ZM989 395.5H1089V394.5H989V395.5ZM1088.5 395V495H1089.5V395H1088.5ZM1089 494.5H989V495.5H1089V494.5ZM989.5 495V395H988.5V495H989.5ZM1088 395.5H1188V394.5H1088V395.5ZM1187.5 395V495H1188.5V395H1187.5ZM1188 494.5H1088V495.5H1188V494.5ZM1088.5 495V395H1087.5V495H1088.5ZM1187 395.5H1287V394.5H1187V395.5ZM1286.5 395V495H1287.5V395H1286.5ZM1287 494.5H1187V495.5H1287V494.5ZM1187.5 495V395H1186.5V495H1187.5ZM1286 395.5H1386V394.5H1286V395.5ZM1385.5 395V495H1386.5V395H1385.5ZM1386 494.5H1286V495.5H1386V494.5ZM1286.5 495V395H1285.5V495H1286.5ZM1385 395.5H1485V394.5H1385V395.5ZM1484.5 395V495H1485.5V395H1484.5ZM1485 494.5H1385V495.5H1485V494.5ZM1385.5 495V395H1384.5V495H1385.5ZM-100 494.5H0V493.5H-100V494.5ZM-0.5 494V594H0.5V494H-0.5ZM0 593.5H-100V594.5H0V593.5ZM-99.5 594V494H-100.5V594H-99.5ZM-1 494.5H99V493.5H-1V494.5ZM98.5 494V594H99.5V494H98.5ZM99 593.5H-1V594.5H99V593.5ZM-0.5 594V494H-1.5V594H-0.5ZM98 494.5H198V493.5H98V494.5ZM197.5 494V594H198.5V494H197.5ZM198 593.5H98V594.5H198V593.5ZM98.5 594V494H97.5V594H98.5ZM197 494.5H297V493.5H197V494.5ZM296.5 494V594H297.5V494H296.5ZM297 593.5H197V594.5H297V593.5ZM197.5 594V494H196.5V594H197.5ZM296 494.5H396V493.5H296V494.5ZM395.5 494V594H396.5V494H395.5ZM396 593.5H296V594.5H396V593.5ZM296.5 594V494H295.5V594H296.5ZM395 494.5H495V493.5H395V494.5ZM494.5 494V594H495.5V494H494.5ZM495 593.5H395V594.5H495V593.5ZM395.5 594V494H394.5V594H395.5ZM494 494.5H594V493.5H494V494.5ZM593.5 494V594H594.5V494H593.5ZM594 593.5H494V594.5H594V593.5ZM494.5 594V494H493.5V594H494.5ZM593 494.5H693V493.5H593V494.5ZM692.5 494V594H693.5V494H692.5ZM693 593.5H593V594.5H693V593.5ZM593.5 594V494H592.5V594H593.5ZM692 494.5H792V493.5H692V494.5ZM791.5 494V594H792.5V494H791.5ZM792 593.5H692V594.5H792V593.5ZM692.5 594V494H691.5V594H692.5ZM791 494.5H891V493.5H791V494.5ZM890.5 494V594H891.5V494H890.5ZM891 593.5H791V594.5H891V593.5ZM791.5 594V494H790.5V594H791.5ZM890 494.5H990V493.5H890V494.5ZM989.5 494V594H990.5V494H989.5ZM990 593.5H890V594.5H990V593.5ZM890.5 594V494H889.5V594H890.5ZM989 494.5H1089V493.5H989V494.5ZM1088.5 494V594H1089.5V494H1088.5ZM1089 593.5H989V594.5H1089V593.5ZM989.5 594V494H988.5V594H989.5ZM1088 494.5H1188V493.5H1088V494.5ZM1187.5 494V594H1188.5V494H1187.5ZM1188 593.5H1088V594.5H1188V593.5ZM1088.5 594V494H1087.5V594H1088.5ZM1187 494.5H1287V493.5H1187V494.5ZM1286.5 494V594H1287.5V494H1286.5ZM1287 593.5H1187V594.5H1287V593.5ZM1187.5 594V494H1186.5V594H1187.5ZM1286 494.5H1386V493.5H1286V494.5ZM1385.5 494V594H1386.5V494H1385.5ZM1386 593.5H1286V594.5H1386V593.5ZM1286.5 594V494H1285.5V594H1286.5ZM1385 494.5H1485V493.5H1385V494.5ZM1484.5 494V594H1485.5V494H1484.5ZM1485 593.5H1385V594.5H1485V593.5ZM1385.5 594V494H1384.5V594H1385.5ZM-100 593.5H0V592.5H-100V593.5ZM-0.5 593V693H0.5V593H-0.5ZM0 692.5H-100V693.5H0V692.5ZM-99.5 693V593H-100.5V693H-99.5ZM-1 593.5H99V592.5H-1V593.5ZM98.5 593V693H99.5V593H98.5ZM99 692.5H-1V693.5H99V692.5ZM-0.5 693V593H-1.5V693H-0.5ZM98 593.5H198V592.5H98V593.5ZM197.5 593V693H198.5V593H197.5ZM198 692.5H98V693.5H198V692.5ZM98.5 693V593H97.5V693H98.5ZM197 593.5H297V592.5H197V593.5ZM296.5 593V693H297.5V593H296.5ZM297 692.5H197V693.5H297V692.5ZM197.5 693V593H196.5V693H197.5ZM296 593.5H396V592.5H296V593.5ZM395.5 593V693H396.5V593H395.5ZM396 692.5H296V693.5H396V692.5ZM296.5 693V593H295.5V693H296.5ZM395 593.5H495V592.5H395V593.5ZM494.5 593V693H495.5V593H494.5ZM495 692.5H395V693.5H495V692.5ZM395.5 693V593H394.5V693H395.5ZM494 593.5H594V592.5H494V593.5ZM593.5 593V693H594.5V593H593.5ZM594 692.5H494V693.5H594V692.5ZM494.5 693V593H493.5V693H494.5ZM593 593.5H693V592.5H593V593.5ZM692.5 593V693H693.5V593H692.5ZM693 692.5H593V693.5H693V692.5ZM593.5 693V593H592.5V693H593.5ZM692 593.5H792V592.5H692V593.5ZM791.5 593V693H792.5V593H791.5ZM792 692.5H692V693.5H792V692.5ZM692.5 693V593H691.5V693H692.5ZM791 593.5H891V592.5H791V593.5ZM890.5 593V693H891.5V593H890.5ZM891 692.5H791V693.5H891V692.5ZM791.5 693V593H790.5V693H791.5ZM890 593.5H990V592.5H890V593.5ZM989.5 593V693H990.5V593H989.5ZM990 692.5H890V693.5H990V692.5ZM890.5 693V593H889.5V693H890.5ZM989 593.5H1089V592.5H989V593.5ZM1088.5 593V693H1089.5V593H1088.5ZM1089 692.5H989V693.5H1089V692.5ZM989.5 693V593H988.5V693H989.5ZM1088 593.5H1188V592.5H1088V593.5ZM1187.5 593V693H1188.5V593H1187.5ZM1188 692.5H1088V693.5H1188V692.5ZM1088.5 693V593H1087.5V693H1088.5ZM1187 593.5H1287V592.5H1187V593.5ZM1286.5 593V693H1287.5V593H1286.5ZM1287 692.5H1187V693.5H1287V692.5ZM1187.5 693V593H1186.5V693H1187.5ZM1286 593.5H1386V592.5H1286V593.5ZM1385.5 593V693H1386.5V593H1385.5ZM1386 692.5H1286V693.5H1386V692.5ZM1286.5 693V593H1285.5V693H1286.5ZM1385 593.5H1485V592.5H1385V593.5ZM1484.5 593V693H1485.5V593H1484.5ZM1485 692.5H1385V693.5H1485V692.5ZM1385.5 693V593H1384.5V693H1385.5ZM-100 692.5H0V691.5H-100V692.5ZM-0.5 692V792H0.5V692H-0.5ZM0 791.5H-100V792.5H0V791.5ZM-99.5 792V692H-100.5V792H-99.5ZM-1 692.5H99V691.5H-1V692.5ZM98.5 692V792H99.5V692H98.5ZM99 791.5H-1V792.5H99V791.5ZM-0.5 792V692H-1.5V792H-0.5ZM98 692.5H198V691.5H98V692.5ZM197.5 692V792H198.5V692H197.5ZM198 791.5H98V792.5H198V791.5ZM98.5 792V692H97.5V792H98.5ZM197 692.5H297V691.5H197V692.5ZM296.5 692V792H297.5V692H296.5ZM297 791.5H197V792.5H297V791.5ZM197.5 792V692H196.5V792H197.5ZM296 692.5H396V691.5H296V692.5ZM395.5 692V792H396.5V692H395.5ZM396 791.5H296V792.5H396V791.5ZM296.5 792V692H295.5V792H296.5ZM395 692.5H495V691.5H395V692.5ZM494.5 692V792H495.5V692H494.5ZM495 791.5H395V792.5H495V791.5ZM395.5 792V692H394.5V792H395.5ZM494 692.5H594V691.5H494V692.5ZM593.5 692V792H594.5V692H593.5ZM594 791.5H494V792.5H594V791.5ZM494.5 792V692H493.5V792H494.5ZM593 692.5H693V691.5H593V692.5ZM692.5 692V792H693.5V692H692.5ZM693 791.5H593V792.5H693V791.5ZM593.5 792V692H592.5V792H593.5ZM692 692.5H792V691.5H692V692.5ZM791.5 692V792H792.5V692H791.5ZM792 791.5H692V792.5H792V791.5ZM692.5 792V692H691.5V792H692.5ZM791 692.5H891V691.5H791V692.5ZM890.5 692V792H891.5V692H890.5ZM891 791.5H791V792.5H891V791.5ZM791.5 792V692H790.5V792H791.5ZM890 692.5H990V691.5H890V692.5ZM989.5 692V792H990.5V692H989.5ZM990 791.5H890V792.5H990V791.5ZM890.5 792V692H889.5V792H890.5ZM989 692.5H1089V691.5H989V692.5ZM1088.5 692V792H1089.5V692H1088.5ZM1089 791.5H989V792.5H1089V791.5ZM989.5 792V692H988.5V792H989.5ZM1088 692.5H1188V691.5H1088V692.5ZM1187.5 692V792H1188.5V692H1187.5ZM1188 791.5H1088V792.5H1188V791.5ZM1088.5 792V692H1087.5V792H1088.5ZM1187 692.5H1287V691.5H1187V692.5ZM1286.5 692V792H1287.5V692H1286.5ZM1287 791.5H1187V792.5H1287V791.5ZM1187.5 792V692H1186.5V792H1187.5ZM1286 692.5H1386V691.5H1286V692.5ZM1385.5 692V792H1386.5V692H1385.5ZM1386 791.5H1286V792.5H1386V791.5ZM1286.5 792V692H1285.5V792H1286.5ZM1385 692.5H1485V691.5H1385V692.5ZM1484.5 692V792H1485.5V692H1484.5ZM1485 791.5H1385V792.5H1485V791.5ZM1385.5 792V692H1384.5V792H1385.5ZM197 494.5H99V495.5H197V494.5ZM98.5 495V593H99.5V495H98.5ZM99 593.5H197V592.5H99V593.5ZM197.5 593V495H196.5V593H197.5ZM494 593.5H396V594.5H494V593.5ZM395.5 594V692H396.5V594H395.5ZM396 692.5H494V691.5H396V692.5ZM494.5 692V594H493.5V692H494.5ZM593 494.5H495V495.5H593V494.5ZM494.5 495V593H495.5V495H494.5ZM495 593.5H593V592.5H495V593.5ZM593.5 593V495H592.5V593H593.5ZM692 593.5H594V594.5H692V593.5ZM593.5 594V692H594.5V594H593.5ZM594 692.5H692V691.5H594V692.5ZM692.5 692V594H691.5V692H692.5ZM791 494.5H693V495.5H791V494.5ZM692.5 495V593H693.5V495H692.5ZM693 593.5H791V592.5H693V593.5ZM791.5 593V495H790.5V593H791.5ZM890 593.5H792V594.5H890V593.5ZM791.5 594V692H792.5V594H791.5ZM792 692.5H890V691.5H792V692.5ZM890.5 692V594H889.5V692H890.5ZM989 494.5H891V495.5H989V494.5ZM890.5 495V593H891.5V495H890.5ZM891 593.5H989V592.5H891V593.5ZM989.5 593V495H988.5V593H989.5ZM1088 593.5H990V594.5H1088V593.5ZM989.5 594V692H990.5V594H989.5ZM990 692.5H1088V691.5H990V692.5ZM1088.5 692V594H1087.5V692H1088.5ZM1088 -0.5H990V0.5H1088V-0.5ZM989.5 0V98H990.5V0H989.5ZM990 98.5H1088V97.5H990V98.5ZM1088.5 98V0H1087.5V98H1088.5ZM989 98.5H891V99.5H989V98.5ZM890.5 99V197H891.5V99H890.5ZM891 197.5H989V196.5H891V197.5ZM989.5 197V99H988.5V197H989.5ZM890 -0.5H792V0.5H890V-0.5ZM791.5 0V98H792.5V0H791.5ZM792 98.5H890V97.5H792V98.5ZM890.5 98V0H889.5V98H890.5ZM791 98.5H693V99.5H791V98.5ZM692.5 99V197H693.5V99H692.5ZM693 197.5H791V196.5H693V197.5ZM791.5 197V99H790.5V197H791.5ZM692 -0.5H594V0.5H692V-0.5ZM593.5 0V98H594.5V0H593.5ZM594 98.5H692V97.5H594V98.5ZM692.5 98V0H691.5V98H692.5ZM593 98.5H495V99.5H593V98.5ZM494.5 99V197H495.5V99H494.5ZM495 197.5H593V196.5H495V197.5ZM593.5 197V99H592.5V197H593.5ZM494 -0.5H396V0.5H494V-0.5ZM395.5 0V98H396.5V0H395.5ZM396 98.5H494V97.5H396V98.5ZM494.5 98V0H493.5V98H494.5ZM395 98.5H297V99.5H395V98.5ZM296.5 99V197H297.5V99H296.5ZM297 197.5H395V196.5H297V197.5ZM395.5 197V99H394.5V197H395.5ZM791 395.5H693V396.5H791V395.5ZM692.5 396V494H693.5V396H692.5ZM693 494.5H791V493.5H693V494.5ZM791.5 494V396H790.5V494H791.5ZM1088 395.5H990V396.5H1088V395.5ZM989.5 396V494H990.5V396H989.5ZM990 494.5H1088V493.5H990V494.5ZM1088.5 494V396H1087.5V494H1088.5ZM99 0V-1H98V0H99ZM197 0H198V-1H197V0ZM1188 0V-1H1187V0H1188ZM1286 0H1287V-1H1286V0ZM0 99V98H-1V99H0ZM98 99H99V98H98V99ZM1089 99V98H1088V99H1089ZM1287 99V98H1286V99H1287ZM1187 99H1188V98H1187V99ZM1385 99H1386V98H1385V99ZM99 98H98V99H99V98ZM99 198V197H98V198H99ZM197 98V99H198V98H197ZM197 198H198V197H197V198ZM891 198V197H890V198H891ZM989 198H990V197H989V198ZM1188 98H1187V99H1188V98ZM1188 198V197H1187V198H1188ZM1286 98V99H1287V98H1286ZM1286 198H1287V197H1286V198ZM0 197H-1V198H0V197ZM0 297V296H-1V297H0ZM98 197V198H99V197H98ZM98 297H99V296H98V297ZM396 297V296H395V297H396ZM494 297H495V296H494V297ZM1089 197H1088V198H1089V197ZM1187 197V198H1188V197H1187ZM1287 197H1286V198H1287V197ZM1287 297V296H1286V297H1287ZM1385 197V198H1386V197H1385ZM1385 297H1386V296H1385V297ZM99 296H98V297H99V296ZM99 396V395H98V396H99ZM197 296V297H198V296H197ZM197 396H198V395H197V396ZM891 296H890V297H891V296ZM989 296V297H990V296H989ZM1188 296H1187V297H1188V296ZM1188 396V395H1187V396H1188ZM1286 296V297H1287V296H1286ZM1286 396H1287V395H1286V396ZM0 395H-1V396H0V395ZM0 495V494H-1V495H0ZM98 395V396H99V395H98ZM98 495H99V494H98V495ZM297 495V494H296V495H297ZM396 395H395V396H396V395ZM395 495H396V494H395V495ZM494 395V396H495V395H494ZM1089 495V494H1088V495H1089ZM1287 395H1286V396H1287V395ZM1287 495V494H1286V495H1287ZM1187 495H1188V494H1187V495ZM1385 395V396H1386V395H1385ZM1385 495H1386V494H1385V495ZM99 494H98V495H99V494ZM99 594V593H98V594H99ZM197 494V495H198V494H197ZM197 594H198V593H197V594ZM1188 494H1187V495H1188V494ZM1188 594V593H1187V594H1188ZM1286 494V495H1287V494H1286ZM1286 594H1287V593H1286V594ZM0 593H-1V594H0V593ZM0 693V692H-1V693H0ZM98 593V594H99V593H98ZM98 693H99V692H98V693ZM297 593H296V594H297V593ZM395 593V594H396V593H395ZM1089 593H1088V594H1089V593ZM1187 593V594H1188V593H1187ZM1287 593H1286V594H1287V593ZM1385 593V594H1386V593H1385ZM0 792H-1V793H0V792ZM99 692H98V693H99V692ZM98 792V793H99V792H98ZM197 692V693H198V692H197ZM1188 692H1187V693H1188V692ZM1286 692V693H1287V692H1286ZM197 -1H99V1H197V-1ZM98 0V98H100V0H98ZM99 99H197V97H99V99ZM198 98V0H196V98H198ZM98 98H0V100H98V98ZM-1 99V197H1V99H-1ZM0 198H98V196H0V198ZM99 197V99H97V197H99ZM197 197H99V199H197V197ZM98 198V296H100V198H98ZM99 297H197V295H99V297ZM198 296V198H196V296H198ZM98 296H0V298H98V296ZM-1 297V395H1V297H-1ZM0 396H98V394H0V396ZM99 395V297H97V395H99ZM197 395H99V397H197V395ZM98 396V494H100V396H98ZM99 495H197V493H99V495ZM198 494V396H196V494H198ZM98 494H0V496H98V494ZM-1 495V593H1V495H-1ZM0 594H98V592H0V594ZM99 593V495H97V593H99ZM197 593H99V595H197V593ZM98 594V692H100V594H98ZM99 693H197V691H99V693ZM198 692V594H196V692H198ZM98 692H0V694H98V692ZM-1 693V792H1V693H-1ZM0 793H98V791H0V793ZM99 792V693H97V792H99ZM395 494H297V496H395V494ZM296 495V593H298V495H296ZM297 594H395V592H297V594ZM396 593V495H394V593H396ZM1187 494H1089V496H1187V494ZM1088 495V593H1090V495H1088ZM1089 594H1187V592H1089V594ZM1188 593V495H1186V593H1188ZM1286 593H1188V595H1286V593ZM1187 594V692H1189V594H1187ZM1188 693H1286V691H1188V693ZM1287 692V594H1285V692H1287ZM1385 494H1287V496H1385V494ZM1286 495V593H1288V495H1286ZM1287 594H1385V592H1287V594ZM1386 593V495H1384V593H1386ZM1286 395H1188V397H1286V395ZM1187 396V494H1189V396H1187ZM1188 495H1286V493H1188V495ZM1287 494V396H1285V494H1287ZM1385 296H1287V298H1385V296ZM1286 297V395H1288V297H1286ZM1287 396H1385V394H1287V396ZM1386 395V297H1384V395H1386ZM1286 197H1188V199H1286V197ZM1187 198V296H1189V198H1187ZM1188 297H1286V295H1188V297ZM1287 296V198H1285V296H1287ZM1385 98H1287V100H1385V98ZM1286 99V197H1288V99H1286ZM1287 198H1385V196H1287V198ZM1386 197V99H1384V197H1386ZM1286 -1H1188V1H1286V-1ZM1187 0V98H1189V0H1187ZM1188 99H1286V97H1188V99ZM1287 98V0H1285V98H1287ZM1187 98H1089V100H1187V98ZM1088 99V197H1090V99H1088ZM1089 198H1187V196H1089V198ZM1188 197V99H1186V197H1188ZM494 296H396V298H494V296ZM395 297V395H397V297H395ZM396 396H494V394H396V396ZM495 395V297H493V395H495ZM989 197H891V199H989V197ZM890 198V296H892V198H890ZM891 297H989V295H891V297ZM990 296V198H988V296H990Z" fill="url(#paint0_radial_1_3370)" mask="url(#path-1-inside-1_1_3370)"/>
<defs>
<radialGradient id="paint0_radial_1_3370" cx="0" cy="0" r="1" gradientUnits="userSpaceOnUse" gradientTransform="translate(693 303) rotate(90) scale(473.5 841.365)">
<stop stop-color="#F0F2F5" stop-opacity="0"/>
<stop offset="1" stop-color="#F1F6FF"/>
</radialGradient>
</defs>
</svg>
