<svg width="360" height="288" viewBox="0 0 360 288" fill="none" xmlns="http://www.w3.org/2000/svg">
<path d="M270 164.5H319.171M319.171 164.5L338.934 27.5715C339.644 22.6514 343.86 19 348.831 19H390M319.171 164.5H390M319.171 164.5L340.066 307.28C340.136 307.759 340.171 308.243 340.171 308.728V705" stroke="url(#paint0_linear_39_1109)"/>
<path d="M90 163.396H40.8295M40.8295 163.396L19.9315 308.08C19.8631 308.553 19.8288 309.031 19.8288 309.509L19.8288 711M40.8295 163.396H-30M40.8295 163.396L21.0811 28.5509C20.3619 23.6402 16.1498 20 11.1867 20H-30" stroke="url(#paint1_linear_39_1109)"/>
<path d="M45.7364 149.795L26.4894 154.217C23.1233 154.99 21.0214 158.345 21.7947 161.712L25.8756 179.475C26.6489 182.841 30.0045 184.943 33.3706 184.17L52.6176 179.748C55.9837 178.975 58.0856 175.619 57.3123 172.253L53.2314 154.489C52.4581 151.123 49.1025 149.022 45.7364 149.795Z" fill="white"/>
<path d="M45.7364 149.795L26.4894 154.217C23.1233 154.99 21.0214 158.345 21.7947 161.712L25.8756 179.475C26.6489 182.841 30.0045 184.943 33.3706 184.17L52.6176 179.748C55.9837 178.975 58.0856 175.619 57.3123 172.253L53.2314 154.489C52.4581 151.123 49.1025 149.022 45.7364 149.795Z" stroke="#E4E7EC" stroke-width="0.658277"/>
<path d="M30.9723 158.928C30.8394 158.958 30.724 159.04 30.6516 159.156C30.5792 159.271 30.5557 159.411 30.5862 159.544L30.9317 161.048L26.9199 161.969L27.1502 162.972L27.1522 162.971L28.534 168.986L28.532 168.986L28.7623 169.989L28.7643 169.988L30.146 176.003L30.144 176.004L30.3743 177.006L34.3861 176.084L34.7316 177.588C34.7621 177.721 34.8442 177.836 34.9598 177.909C35.0754 177.981 35.215 178.005 35.3479 177.974L52.3895 174.059C52.5224 174.028 52.6378 173.946 52.7102 173.831C52.7826 173.715 52.8061 173.576 52.7756 173.443L51.8544 169.433C51.8238 169.3 51.7417 169.185 51.6261 169.112C51.5106 169.04 51.3709 169.016 51.238 169.047L34.1964 172.962C34.0635 172.992 33.9482 173.074 33.8757 173.19C33.8033 173.306 33.7798 173.445 33.8104 173.578L34.1558 175.082L31.1485 175.773L29.7667 169.758L32.774 169.067L33.1195 170.571C33.15 170.704 33.2321 170.819 33.3477 170.892C33.4633 170.964 33.6029 170.987 33.7358 170.957L50.7774 167.042C50.9103 167.011 51.0257 166.929 51.0981 166.814C51.1705 166.698 51.194 166.558 51.1635 166.426L50.2423 162.416C50.2118 162.283 50.1297 162.167 50.0141 162.095C49.8985 162.023 49.7589 161.999 49.6259 162.03L32.5844 165.945C32.4514 165.975 32.3361 166.057 32.2637 166.173C32.1913 166.289 32.1678 166.428 32.1983 166.561L32.5437 168.065L29.5364 168.756L28.1547 162.741L31.162 162.05L31.5074 163.554C31.5379 163.687 31.62 163.802 31.7356 163.874C31.8512 163.947 31.9908 163.97 32.1238 163.94L49.1653 160.025C49.2983 159.994 49.4136 159.912 49.486 159.797C49.5584 159.681 49.5819 159.541 49.5514 159.408L48.6302 155.399C48.5997 155.266 48.5176 155.15 48.402 155.078C48.2864 155.006 48.1468 154.982 48.0138 155.013L30.9723 158.928ZM31.7038 159.815L47.7429 156.13L48.4338 159.137L32.3947 162.822L31.7038 159.815ZM33.939 160.357L34.1693 161.359L41.1864 159.747L40.9561 158.745L33.939 160.357ZM45.4671 157.708C45.3342 157.739 45.2188 157.821 45.1464 157.937C45.074 158.052 45.0505 158.192 45.081 158.325C45.1116 158.458 45.1937 158.573 45.3093 158.645C45.4248 158.718 45.5645 158.741 45.6974 158.711C45.8303 158.68 45.9457 158.598 46.0181 158.483C46.0905 158.367 46.114 158.227 46.0835 158.094C46.0529 157.961 45.9708 157.846 45.8552 157.774C45.7397 157.701 45.6 157.678 45.4671 157.708ZM33.3159 166.832L49.355 163.147L50.0459 166.155L34.0068 169.839L33.3159 166.832ZM35.5511 167.374L35.7814 168.376L42.7985 166.764L42.5682 165.762L35.5511 167.374ZM47.0792 164.725C46.9462 164.756 46.8309 164.838 46.7585 164.954C46.6861 165.069 46.6626 165.209 46.6931 165.342C46.7236 165.475 46.8057 165.59 46.9213 165.663C47.0369 165.735 47.1765 165.758 47.3095 165.728C47.4424 165.697 47.5578 165.615 47.6302 165.5C47.7026 165.384 47.7261 165.244 47.6956 165.112C47.665 164.979 47.5829 164.863 47.4673 164.791C47.3517 164.718 47.2121 164.695 47.0792 164.725ZM34.928 173.849L50.9671 170.164L51.658 173.172L35.6189 176.856L34.928 173.849ZM37.1631 174.391L37.3934 175.393L44.4106 173.781L44.1803 172.779L37.1631 174.391ZM48.6913 171.743C48.5583 171.773 48.443 171.855 48.3706 171.971C48.2982 172.086 48.2746 172.226 48.3052 172.359C48.3357 172.492 48.4178 172.607 48.5334 172.68C48.649 172.752 48.7886 172.776 48.9216 172.745C49.0545 172.714 49.1698 172.632 49.2422 172.517C49.3146 172.401 49.3382 172.262 49.3076 172.129C49.2771 171.996 49.195 171.88 49.0794 171.808C48.9638 171.736 48.8242 171.712 48.6913 171.743Z" fill="#475367"/>
<path d="M356.449 6.547L334.86 1.40091C332.311 0.793327 329.753 2.36711 329.145 4.91604L324.401 24.8194C323.793 27.3683 325.367 29.9272 327.916 30.5348L349.505 35.6808C352.054 36.2884 354.612 34.7147 355.22 32.1657L359.964 12.2624C360.572 9.71345 358.998 7.15458 356.449 6.547Z" fill="white"/>
<path d="M356.449 6.547L334.86 1.40091C332.311 0.793327 329.753 2.36711 329.145 4.91604L324.401 24.8194C323.793 27.3683 325.367 29.9272 327.916 30.5348L349.505 35.6808C352.054 36.2884 354.612 34.7147 355.22 32.1657L359.964 12.2624C360.572 9.71345 358.998 7.15458 356.449 6.547Z" stroke="#E4E7EC" stroke-width="0.499428"/>
<path d="M347.019 15.0807C347.12 15.1047 347.226 15.0877 347.314 15.0335C347.402 14.9793 347.465 14.8923 347.489 14.7916C347.513 14.691 347.496 14.5849 347.442 14.4967C347.388 14.4086 347.301 14.3456 347.2 14.3216L346.441 14.1407L346.622 13.3816L347.001 13.472C347.102 13.496 347.208 13.4791 347.296 13.4249C347.384 13.3706 347.447 13.2836 347.471 13.183C347.495 13.0823 347.478 12.9762 347.424 12.8881C347.37 12.8 347.283 12.737 347.182 12.713L346.803 12.6225C346.827 12.5218 346.81 12.4158 346.756 12.3276C346.701 12.2395 346.614 12.1765 346.514 12.1525L346.604 11.7729C346.628 11.6723 346.611 11.5662 346.557 11.4781C346.503 11.3899 346.416 11.3269 346.315 11.3029C346.215 11.2789 346.108 11.2959 346.02 11.3501C345.932 11.4043 345.869 11.4913 345.845 11.592L345.755 11.9715L344.996 11.7906L345.177 11.0315C345.201 10.9308 345.184 10.8248 345.129 10.7366C345.075 10.6485 344.988 10.5855 344.887 10.5615C344.787 10.5375 344.681 10.5545 344.593 10.6087C344.504 10.6629 344.441 10.7499 344.417 10.8506L344.236 11.6096L343.477 11.4287L343.658 10.6696C343.682 10.569 343.665 10.4629 343.611 10.3747C343.557 10.2866 343.47 10.2236 343.369 10.1996C343.269 10.1756 343.163 10.1926 343.074 10.2468C342.986 10.301 342.923 10.388 342.899 10.4887L342.718 11.2478L341.959 11.0668L342.05 10.6873C342.074 10.5866 342.057 10.4805 342.003 10.3924C341.948 10.3042 341.861 10.2413 341.761 10.2173C341.66 10.1933 341.554 10.2102 341.466 10.2644C341.378 10.3187 341.315 10.4057 341.291 10.5063L341.2 10.8859C341.099 10.8619 340.993 10.8789 340.905 10.9331C340.817 10.9873 340.754 11.0743 340.73 11.1749L340.398 11.0958C340.297 11.0718 340.191 11.0888 340.103 11.143C340.015 11.1972 339.952 11.2842 339.928 11.3849C339.904 11.4855 339.921 11.5916 339.975 11.6797C340.029 11.7679 340.116 11.8309 340.217 11.8549L340.549 11.934L340.368 12.6931L339.609 12.5122C339.508 12.4882 339.402 12.5052 339.314 12.5594C339.226 12.6136 339.163 12.7006 339.139 12.8013C339.115 12.9019 339.132 13.008 339.186 13.0961C339.241 13.1843 339.328 13.2473 339.428 13.2713L340.187 13.4522L340.006 14.2113L339.247 14.0304C339.147 14.0064 339.041 14.0233 338.952 14.0776C338.864 14.1318 338.801 14.2188 338.777 14.3194C338.753 14.4201 338.77 14.5262 338.824 14.6143C338.879 14.7025 338.966 14.7655 339.066 14.7894L339.825 14.9704L339.644 15.7295L339.265 15.639C339.164 15.615 339.058 15.632 338.97 15.6862C338.882 15.7404 338.819 15.8274 338.795 15.9281C338.771 16.0287 338.788 16.1348 338.842 16.223C338.896 16.3111 338.983 16.3741 339.084 16.3981L339.464 16.4886C339.44 16.5892 339.457 16.6953 339.511 16.7834C339.565 16.8716 339.652 16.9346 339.753 16.9586L339.662 17.3381C339.638 17.4388 339.655 17.5449 339.709 17.633C339.764 17.7212 339.851 17.7842 339.951 17.8081C340.052 17.8321 340.158 17.8152 340.246 17.761C340.334 17.7067 340.397 17.6197 340.421 17.5191L340.512 17.1395L341.271 17.3205L341.09 18.0796C341.066 18.1802 341.083 18.2863 341.137 18.3744C341.191 18.4626 341.278 18.5256 341.379 18.5496C341.48 18.5736 341.586 18.5566 341.674 18.5024C341.762 18.4482 341.825 18.3612 341.849 18.2605L342.03 17.5014L342.789 17.6824L342.608 18.4414C342.584 18.5421 342.601 18.6482 342.655 18.7363C342.709 18.8245 342.796 18.8875 342.897 18.9115C342.998 18.9355 343.104 18.9185 343.192 18.8643C343.28 18.8101 343.343 18.7231 343.367 18.6224L343.548 17.8633L344.307 18.0442L344.217 18.4238C344.193 18.5244 344.21 18.6305 344.264 18.7187C344.318 18.8068 344.405 18.8698 344.506 18.8938C344.606 18.9178 344.712 18.9008 344.801 18.8466C344.889 18.7924 344.952 18.7054 344.976 18.6047L345.066 18.2252C345.167 18.2492 345.273 18.2322 345.361 18.178C345.449 18.1238 345.512 18.0368 345.536 17.9361L345.868 18.0153C345.969 18.0393 346.075 18.0223 346.163 17.9681C346.251 17.9139 346.314 17.8269 346.338 17.7262C346.362 17.6255 346.345 17.5195 346.291 17.4313C346.237 17.3432 346.15 17.2802 346.049 17.2562L345.717 17.177L345.898 16.4179L346.657 16.5989C346.758 16.6229 346.864 16.6059 346.952 16.5517C347.04 16.4975 347.103 16.4105 347.127 16.3098C347.151 16.2091 347.134 16.1031 347.08 16.0149C347.026 15.9268 346.939 15.8638 346.838 15.8398L346.079 15.6588L346.26 14.8998L347.019 15.0807ZM340.313 16.29L341.399 11.7354L345.953 12.8211L344.868 17.3756L340.313 16.29Z" fill="#475367"/>
<path d="M345.103 13.0196L342.067 12.2958C341.966 12.2718 341.86 12.2888 341.772 12.343C341.684 12.3972 341.621 12.4842 341.597 12.5849L340.873 15.6212C340.849 15.7219 340.866 15.828 340.92 15.9161C340.975 16.0042 341.062 16.0672 341.162 16.0912L344.199 16.815C344.299 16.839 344.405 16.822 344.494 16.7678C344.582 16.7136 344.645 16.6266 344.669 16.5259L345.392 13.4896C345.416 13.3889 345.4 13.2828 345.345 13.1947C345.291 13.1066 345.204 13.0436 345.103 13.0196ZM344 15.9655L341.723 15.4226L342.266 13.1454L344.543 13.6882L344 15.9655ZM333.669 11.8985C333.64 11.6239 333.515 11.3685 333.316 11.1774C333.116 10.9862 332.856 10.8717 332.58 10.854C332.305 10.8363 332.032 10.9166 331.81 11.0807C331.588 11.2448 331.431 11.4822 331.367 11.7508C331.303 12.0193 331.336 12.3019 331.46 12.5486C331.584 12.7952 331.792 12.99 332.045 13.0985C332.299 13.207 332.583 13.2223 332.848 13.1416C333.112 13.0609 333.339 12.8895 333.489 12.6576L336.59 13.3969L336.771 12.6378L333.669 11.8985ZM332.415 12.4017C332.34 12.3839 332.272 12.3441 332.22 12.2875C332.167 12.2309 332.133 12.1601 332.12 12.0839C332.108 12.0077 332.119 11.9296 332.151 11.8594C332.183 11.7893 332.236 11.7303 332.301 11.6899C332.367 11.6494 332.443 11.6294 332.52 11.6323C332.597 11.6352 332.672 11.6609 332.734 11.7062C332.797 11.7514 332.845 11.8142 332.872 11.8866C332.898 11.9589 332.903 12.0376 332.885 12.1127C332.861 12.2133 332.798 12.3002 332.71 12.3544C332.622 12.4086 332.516 12.4256 332.415 12.4017ZM354.032 15.95C353.796 15.8942 353.549 15.9126 353.325 16.0027C353.1 16.0928 352.909 16.2501 352.777 16.4532L349.676 15.7139L349.495 16.473L352.596 17.2123C352.619 17.4257 352.7 17.6288 352.83 17.7993C352.96 17.9698 353.135 18.1012 353.335 18.1792C353.535 18.2572 353.753 18.2787 353.964 18.2413C354.175 18.204 354.372 18.1093 354.533 17.9676C354.694 17.8259 354.814 17.6426 354.878 17.4377C354.942 17.2329 354.948 17.0144 354.896 16.8061C354.844 16.5979 354.736 16.4079 354.584 16.2569C354.431 16.1059 354.24 15.9997 354.032 15.95ZM353.67 17.4681C353.595 17.4503 353.527 17.4105 353.474 17.3539C353.422 17.2973 353.387 17.2265 353.375 17.1503C353.363 17.0741 353.373 16.996 353.406 16.9258C353.438 16.8557 353.49 16.7967 353.556 16.7563C353.621 16.7158 353.698 16.6958 353.775 16.6987C353.852 16.7016 353.926 16.7273 353.989 16.7726C354.051 16.8178 354.099 16.8806 354.126 16.953C354.153 17.0253 354.158 17.104 354.14 17.1791C354.116 17.2797 354.053 17.3666 353.964 17.4208C353.876 17.475 353.77 17.492 353.67 17.4681Z" fill="#475367"/>
<path d="M351.428 20.1428C351.193 20.087 350.946 20.1054 350.721 20.1955C350.497 20.2857 350.305 20.443 350.174 20.6461L349.729 20.54L350 19.4014C350.024 19.3007 350.007 19.1947 349.953 19.1065C349.899 19.0184 349.812 18.9554 349.711 18.9314L348.381 18.6143C348.957 17.869 349.367 17.0097 349.586 16.0935C349.804 15.1773 349.824 14.2251 349.646 13.3003L350.978 13.6178C351.079 13.6418 351.185 13.6248 351.273 13.5706C351.361 13.5164 351.424 13.4294 351.448 13.3287L351.719 12.1901L352.164 12.2961C352.194 12.5707 352.319 12.8261 352.518 13.0173C352.717 13.2084 352.978 13.3229 353.253 13.3406C353.529 13.3583 353.802 13.278 354.024 13.1139C354.246 12.9498 354.403 12.7125 354.467 12.4439C354.531 12.1753 354.498 11.8927 354.374 11.6461C354.25 11.3995 354.042 11.2047 353.788 11.0961C353.534 10.9876 353.25 10.9723 352.986 11.053C352.722 11.1337 352.495 11.3052 352.345 11.537L351.521 11.3405C351.42 11.3165 351.314 11.3335 351.226 11.3877C351.138 11.4419 351.075 11.5289 351.051 11.6296L350.779 12.7682L349.419 12.444C349.061 11.3769 348.438 10.4185 347.607 9.65916C346.776 8.89976 345.766 8.36435 344.671 8.10339C343.576 7.84242 342.433 7.8645 341.349 8.16754C340.265 8.47057 339.277 9.04459 338.476 9.83549L337.116 9.51126L337.387 8.37263C337.411 8.27197 337.394 8.1659 337.34 8.07775C337.286 7.98961 337.199 7.92661 337.098 7.90261L336.273 7.70606C336.244 7.43149 336.119 7.17606 335.92 6.98493C335.72 6.7938 335.46 6.67927 335.184 6.66158C334.909 6.6439 334.636 6.7242 334.414 6.88829C334.192 7.05239 334.035 7.2897 333.971 7.5583C333.907 7.8269 333.94 8.10949 334.064 8.35611C334.188 8.60274 334.396 8.79753 334.649 8.90606C334.903 9.01458 335.187 9.02985 335.451 8.94917C335.716 8.86849 335.943 8.69705 336.093 8.46515L336.538 8.57123L336.266 9.70987C336.242 9.81053 336.259 9.9166 336.313 10.0047C336.368 10.0929 336.455 10.1559 336.555 10.1799L337.887 10.4973C337.311 11.2423 336.9 12.1014 336.681 13.0175C336.462 13.9335 336.441 14.8857 336.619 15.8106L335.289 15.4935C335.188 15.4695 335.082 15.4865 334.994 15.5407C334.906 15.5949 334.843 15.6819 334.819 15.7825L334.547 16.9212L334.102 16.8151C334.073 16.5405 333.948 16.2851 333.748 16.094C333.549 15.9028 333.289 15.7883 333.013 15.7706C332.738 15.7529 332.465 15.8332 332.243 15.9973C332.02 16.1614 331.864 16.3987 331.799 16.6673C331.735 16.9359 331.768 17.2185 331.893 17.4652C332.017 17.7118 332.224 17.9066 332.478 18.0151C332.732 18.1236 333.016 18.1389 333.28 18.0582C333.544 17.9775 333.771 17.8061 333.921 17.5742L334.746 17.7707C334.846 17.7947 334.952 17.7778 335.041 17.7235C335.129 17.6693 335.192 17.5823 335.216 17.4817L335.487 16.343L336.845 16.6667C336.851 16.6858 336.857 16.7052 336.864 16.7239C337.238 17.8036 337.884 18.7688 338.739 19.5264L338.468 20.6637L337.709 20.4827C337.609 20.4587 337.503 20.4757 337.414 20.5299C337.326 20.5841 337.263 20.6711 337.239 20.7718L336.877 22.29C336.853 22.3906 336.87 22.4967 336.925 22.5848C336.979 22.673 337.066 22.736 337.166 22.76L336.533 25.4168C336.509 25.5174 336.526 25.6235 336.58 25.7117C336.635 25.7998 336.722 25.8628 336.822 25.8868L337.229 25.9838C337.171 26.6377 337.349 27.2908 337.732 27.824C338.115 28.3571 338.677 28.7347 339.316 28.8878L340.075 29.0688C340.714 29.2201 341.386 29.1366 341.968 28.8336C342.55 28.5306 343.004 28.0282 343.247 27.4183L343.654 27.5153C343.755 27.5393 343.861 27.5223 343.949 27.4681C344.037 27.4139 344.1 27.3269 344.124 27.2262L344.757 24.5694C344.858 24.5934 344.964 24.5764 345.052 24.5222C345.14 24.468 345.203 24.381 345.227 24.2803L345.589 22.7622C345.613 22.6615 345.596 22.5554 345.542 22.4673C345.488 22.3791 345.401 22.3161 345.3 22.2921L344.541 22.1112L344.812 20.974C345.917 20.6838 346.929 20.1137 347.75 19.3188C347.765 19.3052 347.779 19.2905 347.793 19.2763L349.151 19.6L348.879 20.7386C348.855 20.8393 348.872 20.9454 348.927 21.0335C348.981 21.1217 349.068 21.1847 349.168 21.2087L349.993 21.4052C350.016 21.6186 350.097 21.8217 350.227 21.9922C350.357 22.1627 350.532 22.2942 350.732 22.3721C350.932 22.4501 351.149 22.4716 351.361 22.4342C351.572 22.3969 351.769 22.3022 351.93 22.1604C352.091 22.0187 352.21 21.8354 352.274 21.6305C352.338 21.4257 352.345 21.2072 352.293 20.9989C352.241 20.7906 352.133 20.6006 351.98 20.4497C351.828 20.2987 351.637 20.1925 351.428 20.1428ZM353.418 11.7929C353.494 11.8107 353.562 11.8505 353.614 11.9071C353.667 11.9637 353.701 12.0345 353.713 12.1107C353.725 12.1869 353.715 12.265 353.683 12.3352C353.65 12.4053 353.598 12.4643 353.532 12.5048C353.467 12.5452 353.39 12.5652 353.313 12.5623C353.236 12.5594 353.162 12.5337 353.099 12.4884C353.037 12.4432 352.989 12.3804 352.962 12.308C352.935 12.2357 352.931 12.157 352.948 12.0819C352.973 11.9813 353.036 11.8944 353.124 11.8402C353.212 11.786 353.318 11.769 353.418 11.7929ZM335.019 8.20935C334.944 8.19145 334.876 8.1517 334.824 8.09512C334.771 8.03853 334.737 7.96766 334.725 7.89146C334.712 7.81526 334.723 7.73716 334.755 7.66702C334.787 7.59689 334.84 7.53788 334.905 7.49745C334.971 7.45702 335.047 7.43699 335.125 7.4399C335.202 7.4428 335.276 7.46851 335.339 7.51377C335.401 7.55903 335.449 7.6218 335.476 7.69416C335.502 7.76652 335.507 7.84521 335.489 7.92027C335.465 8.02086 335.402 8.10777 335.314 8.16196C335.226 8.21615 335.12 8.23319 335.019 8.20935ZM332.848 17.3184C332.773 17.3005 332.705 17.2607 332.652 17.2042C332.6 17.1476 332.565 17.0767 332.553 17.0005C332.541 16.9243 332.552 16.8462 332.584 16.7761C332.616 16.7059 332.668 16.6469 332.734 16.6065C332.8 16.5661 332.876 16.546 332.953 16.5489C333.03 16.5518 333.105 16.5776 333.167 16.6228C333.23 16.6681 333.278 16.7308 333.304 16.8032C333.331 16.8756 333.336 16.9542 333.318 17.0293C333.294 17.1299 333.231 17.2168 333.143 17.271C333.055 17.3252 332.949 17.3422 332.848 17.3184ZM340.256 28.3097L339.497 28.1288C339.06 28.024 338.672 27.7717 338.399 27.4144C338.126 27.0571 337.985 26.6166 337.999 26.1673L342.477 27.2348C342.287 27.6422 341.962 27.9715 341.558 28.1673C341.153 28.3631 340.693 28.4134 340.256 28.3097ZM343.455 26.6657L337.383 25.2182L337.926 22.9409L339.444 23.3028L339.172 24.4414C339.148 24.5421 339.165 24.6482 339.22 24.7363C339.274 24.8245 339.361 24.8875 339.461 24.9115L341.739 25.4543C341.839 25.4783 341.945 25.4613 342.034 25.4071C342.122 25.3529 342.185 25.2659 342.209 25.1652L342.48 24.0266L343.998 24.3885L343.455 26.6657ZM340.022 24.2428L340.203 23.4837L341.721 23.8456L341.54 24.6047L340.022 24.2428ZM344.74 22.9608L344.559 23.7198L337.727 22.0914L337.908 21.3323L344.74 22.9608ZM347.208 18.7582C346.43 19.5111 345.459 20.0344 344.403 20.2702C344.332 20.2862 344.266 20.3219 344.214 20.3733C344.162 20.4246 344.126 20.4895 344.109 20.5606L343.782 21.9303L339.227 20.8446L339.554 19.4749C339.571 19.4038 339.567 19.3294 339.544 19.2601C339.521 19.1908 339.479 19.1295 339.422 19.083C338.505 18.3311 337.838 17.3183 337.509 16.1788C337.181 15.0393 337.206 13.8268 337.582 12.7019C337.958 11.5771 338.667 10.593 339.614 9.88006C340.562 9.16707 341.704 8.75881 342.889 8.70938C344.074 8.65995 345.246 8.97167 346.25 9.60326C347.253 10.2348 348.042 11.1565 348.51 12.2461C348.978 13.3357 349.104 14.5418 348.872 15.7048C348.639 16.8677 348.059 17.9326 347.208 18.7582ZM351.066 21.661C350.991 21.6431 350.923 21.6034 350.871 21.5468C350.818 21.4902 350.784 21.4193 350.771 21.3431C350.759 21.2669 350.77 21.1888 350.802 21.1187C350.834 21.0486 350.887 20.9895 350.952 20.9491C351.018 20.9087 351.094 20.8887 351.171 20.8916C351.248 20.8945 351.323 20.9202 351.385 20.9654C351.448 21.0107 351.496 21.0735 351.522 21.1458C351.549 21.2182 351.554 21.2969 351.536 21.3719C351.512 21.4725 351.449 21.5594 351.361 21.6136C351.273 21.6678 351.167 21.6849 351.066 21.661Z" fill="#475367"/>
<defs>
<linearGradient id="paint0_linear_39_1109" x1="330" y1="19" x2="330" y2="425.5" gradientUnits="userSpaceOnUse">
<stop stop-color="#E4E7EC"/>
<stop offset="1" stop-color="#E4E7EC" stop-opacity="0"/>
</linearGradient>
<linearGradient id="paint1_linear_39_1109" x1="30" y1="20" x2="30.0001" y2="425.207" gradientUnits="userSpaceOnUse">
<stop stop-color="#E4E7EC"/>
<stop offset="1" stop-color="#E4E7EC" stop-opacity="0"/>
</linearGradient>
</defs>
</svg>
